<svg xmlns="http://www.w3.org/2000/svg" viewBox="0 0 940 200" fill="none"><path fill="url(#a)" d="M0 0h940v200H0z"/><path fill="#EA4335" fill-rule="evenodd" d="m487.687 77.631 4.018.076 10.919-10.82.53-4.582C494.478 54.658 483.064 50 470.566 50c-22.627 0-41.717 15.252-47.377 35.924 1.195-.82 3.737-.21 3.737-.21l21.821-3.552s1.129-1.838 1.686-1.724a27.32 27.32 0 0 1 20.133-8.816 27.3 27.3 0 0 1 17.121 6.01" clip-rule="evenodd"/><path fill="#4285F4" fill-rule="evenodd" d="M517.954 85.952c-2.533-9.27-7.765-17.448-14.809-23.656l-15.466 15.327c6.193 4.96 10.162 12.54 10.162 21.026v2.703c7.521 0 13.638 6.062 13.638 13.513s-6.117 13.513-13.64 13.513h-27.27l-2.73 2.717v16.217l2.73 2.688h27.272c19.552 0 35.457-15.762 35.457-35.135 0-11.976-6.083-22.568-15.344-28.913" clip-rule="evenodd"/><path fill="#34A853" fill-rule="evenodd" d="M443.293 150h27.252v-21.622h-27.249a13.6 13.6 0 0 1-5.617-1.214l-3.931 1.191-10.925 10.824-.956 3.654A35.5 35.5 0 0 0 443.293 150" clip-rule="evenodd"/><path fill="#FBBC05" fill-rule="evenodd" d="M442.456 80.007C422.904 80.007 407 95.77 407 115.142c0 11.408 5.517 21.558 14.044 27.981l15.814-15.672c-4.733-2.122-8.039-6.835-8.039-12.309 0-7.451 6.117-13.513 13.637-13.513a13.65 13.65 0 0 1 12.421 7.966l15.814-15.671c-6.48-8.45-16.724-13.917-28.235-13.917" clip-rule="evenodd"/><defs><linearGradient id="a" x1="-233.042" x2="597.72" y1="-47" y2="623.862" gradientUnits="userSpaceOnUse"><stop stop-color="#3C356C"/><stop offset=".307" stop-color="#282444"/><stop offset="1" stop-color="#0D0D0D"/></linearGradient></defs></svg>