<svg viewBox="0 0 940 200" fill="none" xmlns="http://www.w3.org/2000/svg">
<rect width="940" height="200" fill="url(#paint0_linear_11_208)"/>
<g clip-path="url(#clip0_11_208)">
<path d="M435.746 50.034H423.476C421.214 50.034 419.731 51.7885 419.731 53.99V145.987C419.731 148.189 421.214 149.953 423.476 149.953H435.746C438.008 149.953 439.747 148.189 439.747 145.987V53.99C439.747 51.7885 438.008 50.034 435.746 50.034Z" fill="#239DFF"/>
<path d="M397.433 122.681C396.319 120.221 393.126 119.544 391.166 121.391C385.976 126.286 379.017 129.292 371.343 129.292C351.236 129.292 335.893 108.759 344.873 87.3833C347.527 81.0653 352.563 76.0093 358.84 73.3413C371.109 68.1267 383.047 71.0974 390.965 78.4191C392.945 80.25 396.121 79.6005 397.237 77.137L402.551 65.4003C403.401 63.522 402.814 61.3192 401.178 60.0748C388.729 50.6031 371.735 46.8846 354.023 52.9604C339.807 57.8363 328.723 69.3765 324.209 83.7971C313.411 118.291 338.699 150 371.343 150C382.704 150 393.146 146.131 401.503 139.658C403.082 138.435 403.577 136.252 402.751 134.426L397.433 122.681Z" fill="#239DFF"/>
<path d="M615.79 83.7974C611.276 69.3767 600.191 57.8365 585.975 52.9606C575.914 49.5092 566.085 49.2216 557.189 51.3506C542.35 54.6865 531.602 61.7694 522.156 82.1882L503.202 123.582L471.028 52.3792C470.386 50.9597 468.981 50.0474 467.431 50.0449L453.376 50.0227C450.492 50.0181 448.571 53.0211 449.768 55.6635L491.494 147.518C492.137 148.938 493.545 149.898 495.095 149.898L495.777 149.953H511.557C511.874 149.953 512.192 149.887 512.493 149.784C513.579 149.412 514.494 148.632 514.969 147.555C514.969 147.555 535.86 99.6828 536.103 99.1056C542.46 84.0132 546.317 77.7271 556.407 73.4096C564.041 70.1433 573.068 69.7458 581.796 73.7257C587.872 76.4962 592.65 81.5584 595.191 87.766C596.799 91.6511 597.61 95.6453 597.744 99.5808C597.971 115.951 584.862 129.293 568.655 129.293C560.981 129.293 554.021 126.286 548.831 121.393C546.872 119.544 543.679 120.222 542.565 122.682L537.247 134.427C536.421 136.253 536.915 138.435 538.495 139.659C546.852 146.132 557.294 150 568.655 150C601.299 150 626.587 118.292 615.79 83.7974Z" fill="#239DFF"/>
</g>
<defs>
<linearGradient id="paint0_linear_11_208" x1="-233.042" y1="-47" x2="597.72" y2="623.862" gradientUnits="userSpaceOnUse">
<stop stop-color="#3C356C"/>
<stop offset="0.307292" stop-color="#282444"/>
<stop offset="1" stop-color="#0D0D0D"/>
</linearGradient>
<clipPath id="clip0_11_208">
<rect width="296.639" height="100" fill="white" transform="translate(321.68 50)"/>
</clipPath>
</defs>
</svg>
