<?xml version="1.0" encoding="UTF-8"?>
<svg id="_Слой_1" data-name="Слой 1" xmlns="http://www.w3.org/2000/svg" xmlns:xlink="http://www.w3.org/1999/xlink" viewBox="0 0 236.43 200.69">
  <defs>
    <style>
      .cls-1 {
        fill: url(#linear-gradient);
      }

      .cls-2 {
        fill: #3c356c;
      }

      .cls-3 {
        fill: url(#_Безымянный_градиент_5-2);
      }

      .cls-4 {
        fill: url(#linear-gradient-3);
      }

      .cls-5 {
        fill: url(#linear-gradient-4);
      }

      .cls-6 {
        fill: url(#linear-gradient-2);
      }

      .cls-7 {
        fill: url(#linear-gradient-6);
      }

      .cls-8 {
        fill: url(#linear-gradient-7);
      }

      .cls-9 {
        fill: url(#linear-gradient-5);
      }

      .cls-10 {
        fill: url(#_Безымянный_градиент_2);
      }

      .cls-11 {
        fill: url(#_Безымянный_градиент_5);
      }
    </style>
    <linearGradient id="_Безымянный_градиент_5" data-name="Безымянный градиент 5" x1="-1.89" y1="163.86" x2="190.51" y2="66.53" gradientUnits="userSpaceOnUse">
      <stop offset="0" stop-color="#d0bae9"/>
      <stop offset=".47" stop-color="#3c356c"/>
      <stop offset=".74" stop-color="#3c356c"/>
      <stop offset=".78" stop-color="#3f3a72"/>
      <stop offset=".83" stop-color="#484b83"/>
      <stop offset=".9" stop-color="#5766a0"/>
      <stop offset=".96" stop-color="#6c8cc7"/>
      <stop offset="1" stop-color="#7aa5e2"/>
    </linearGradient>
    <linearGradient id="_Безымянный_градиент_5-2" data-name="Безымянный градиент 5" x1="163.6" y1="133.92" x2="164.11" y2="133.66" xlink:href="#_Безымянный_градиент_5"/>
    <linearGradient id="linear-gradient" x1="96.65" y1="82.86" x2="109.03" y2="82.86" gradientUnits="userSpaceOnUse">
      <stop offset="0" stop-color="#fff"/>
      <stop offset="1" stop-color="#d0bae9"/>
    </linearGradient>
    <linearGradient id="linear-gradient-2" x1="128.62" y1="87.38" x2="138.72" y2="87.38" xlink:href="#linear-gradient"/>
    <linearGradient id="linear-gradient-3" x1="105.19" y1="106.63" x2="111.61" y2="106.63" xlink:href="#linear-gradient"/>
    <linearGradient id="linear-gradient-4" x1="159.72" y1="66.77" x2="166.14" y2="66.77" xlink:href="#linear-gradient"/>
    <linearGradient id="linear-gradient-5" x1="76.57" y1="102.81" x2="87.32" y2="102.81" xlink:href="#linear-gradient"/>
    <linearGradient id="linear-gradient-6" x1="68.11" y1="122.48" x2="74.54" y2="122.48" xlink:href="#linear-gradient"/>
    <linearGradient id="linear-gradient-7" x1="120.06" y1="69.98" x2="126.48" y2="69.98" xlink:href="#linear-gradient"/>
    <linearGradient id="_Безымянный_градиент_2" data-name="Безымянный градиент 2" x1="57.2" y1="-1.85" x2="79.77" y2="101.72" gradientUnits="userSpaceOnUse">
      <stop offset=".11" stop-color="#7aa5e2"/>
      <stop offset=".24" stop-color="#6885c1"/>
      <stop offset=".45" stop-color="#505a93"/>
      <stop offset=".61" stop-color="#413f76"/>
      <stop offset=".7" stop-color="#3c356c"/>
    </linearGradient>
  </defs>
  <g>
    <path class="cls-11" d="M215.93,60.23c-16.02,9.87-32.98,14.3-32.98,14.3,0,0,1.98-14.44-10.69-24.2-28.1-21.65-61.13-1.52-91.75,26.33-25.75,23.42-48.92,74.93-60.48,100.52C11.5,196.1,0,200.69,0,200.69c0,0,12.29-2.22,25.56-15.52,29.58-29.65,53.92-61.21,74.4-56.19,27.87,6.83,47.6,7.79,63.11,4.96,43.16-16.57,46.31-50.04,52.86-73.7Z"/>
    <path class="cls-3" d="M163.52,133.85c.23-.04,.46-.09,.69-.13-.23,.05-.46,.09-.69,.13Z"/>
  </g>
  <polygon class="cls-1" points="109.03 82.85 105.03 85.05 102.85 89.05 100.66 85.05 96.65 82.87 100.65 80.68 102.84 76.67 105.03 80.67 109.03 82.85"/>
  <polygon class="cls-6" points="138.72 87.38 135.46 89.17 133.68 92.43 131.89 89.17 128.62 87.39 131.88 85.6 133.66 82.34 135.45 85.6 138.72 87.38"/>
  <polygon class="cls-4" points="111.61 106.62 109.54 107.76 108.4 109.84 107.27 107.76 105.19 106.63 107.26 105.49 108.4 103.41 109.53 105.49 111.61 106.62"/>
  <polygon class="cls-5" points="166.14 66.77 164.07 67.9 162.93 69.98 161.8 67.91 159.72 66.77 161.79 65.64 162.93 63.56 164.06 65.63 166.14 66.77"/>
  <polygon class="cls-9" points="87.32 102.8 83.85 104.71 81.95 108.18 80.05 104.71 76.57 102.82 80.04 100.91 81.94 97.44 83.84 100.91 87.32 102.8"/>
  <polygon class="cls-7" points="74.54 122.47 72.46 123.61 71.33 125.69 70.19 123.61 68.11 122.48 70.19 121.34 71.32 119.27 72.46 121.34 74.54 122.47"/>
  <polygon class="cls-8" points="126.48 69.98 124.41 71.12 123.27 73.19 122.14 71.12 120.06 69.99 122.13 68.85 123.27 66.77 124.4 68.84 126.48 69.98"/>
  <path class="cls-10" d="M80.52,76.67c7.82-7.12,15.81-13.73,23.82-19.27-17.03-11.03-31.33-36.65-35.33-50.81-8.48-29.97-54.18,48.8-14.66,103.44,8.12-13.06,16.98-25,26.17-33.36Z"/>
  <path class="cls-2" d="M224.16,42.01c24.3-28.92,16.65,77.76-61.13,91.93,56.43-21.64,44.51-72.16,61.13-91.93Z"/>
  <g>
    <path class="cls-2" d="M25.68,140.4l9.72,4.03c4.77-9.58,10.11-19.68,15.87-29.35-11.69,7.73-21.67,15.29-26.63,19.63-1.92,1.68-1.35,4.8,1.04,5.7Z"/>
    <path class="cls-2" d="M99.96,128.97c-12.84-3.15-27.2,8.09-43.41,24.22l35.98,14.91c1.51,.56,3.2-.01,4.05-1.38,3.22-5.22,10.65-19.78,16.19-34.9-4.07-.8-8.34-1.75-12.81-2.84Z"/>
  </g>
</svg>