<svg width="40" height="40" viewBox="0 0 60 60" fill="none" xmlns="http://www.w3.org/2000/svg">
<g clip-path="url(#clip0_903_3011)">
<path d="M29.9663 59.6035C46.3342 59.6035 59.603 46.3347 59.603 29.9668C59.603 13.5989 46.3342 0.330078 29.9663 0.330078C13.5984 0.330078 0.32959 13.5989 0.32959 29.9668C0.32959 46.3347 13.5984 59.6035 29.9663 59.6035Z" fill="#2D4562"/>
<path d="M11.6311 53.2415C8.65158 48.6195 6.91553 43.1196 6.91553 37.2113C6.91553 20.8433 20.1842 7.57461 36.5522 7.57461C43.4774 7.57461 49.842 9.95608 54.8875 13.9366C49.6128 5.7536 40.4261 0.330078 29.9663 0.330078C13.5983 0.330078 0.32959 13.5988 0.32959 29.9668C0.32959 39.4097 4.75139 47.8147 11.6311 53.2415Z" fill="#203146"/>
<path d="M19.083 40.6602L23.5423 51.255C24.1292 52.6486 25.7341 53.3025 27.1271 52.7157C28.5207 52.1289 29.1746 50.5239 28.5878 49.131L25.694 42.2566L25.829 37.8203L19.083 40.6602Z" fill="#F1F5F9"/>
<path d="M20.6676 44.4247C23.0135 44.9391 24.7436 44.3193 25.7137 42.3007L25.6953 42.2566L25.8303 37.8203L19.083 40.6602L20.6676 44.4247Z" fill="#CBD5E1"/>
<path d="M31.7907 14.1123C31.7729 14.1433 31.7551 14.1736 31.738 14.2045C29.2499 18.548 25.3213 21.8864 20.7072 23.8286L13.9494 26.673C10.0064 28.3327 7.88903 32.7907 9.36165 36.8075C10.9337 41.0962 15.7461 43.157 19.9077 41.4051L26.8723 38.4731C31.4864 36.5309 36.6195 36.0547 41.4655 37.3113C41.4997 37.3199 41.534 37.3291 41.5682 37.3377C43.3345 37.7868 44.8467 35.9981 44.1393 34.318L35.7469 14.3843C35.0402 12.7043 32.7042 12.5357 31.7907 14.1123Z" fill="#F1F5F9"/>
<path d="M21.0685 23.668C20.9473 23.7213 20.8281 23.7773 20.7063 23.8287L13.9484 26.6731C10.0054 28.3328 7.88805 32.7908 9.36067 36.8076C10.9327 41.0963 15.7451 43.1571 19.9067 41.4052L26.8714 38.4732C26.9932 38.4218 27.117 38.3757 27.2395 38.3263L21.0685 23.668Z" fill="#F87171"/>
<path d="M31.7907 14.1123C31.7729 14.1433 31.7551 14.1736 31.738 14.2045C31.4363 14.7308 31.113 15.2418 30.7705 15.7384L39.6918 36.9326C40.2859 37.0347 40.8779 37.1605 41.4648 37.3126C41.499 37.3212 41.5332 37.3304 41.5675 37.339C43.3338 37.7881 44.846 35.9994 44.1386 34.3193L35.7468 14.3843C35.0402 12.7043 32.7041 12.5357 31.7907 14.1123Z" fill="#F87171"/>
<path d="M18.7934 37.0748C15.3496 38.5244 11.5259 37.6952 8.97314 35.2854C9.04822 35.7958 9.17665 36.3056 9.36106 36.8087C10.9331 41.0975 15.7455 43.1582 19.9071 41.4064L26.8717 38.4743C26.9936 38.4229 27.1174 38.3768 27.2399 38.3274L25.5203 34.2422L18.7934 37.0748Z" fill="#DC2626"/>
<path d="M42.5805 32.1236C42.2407 32.0511 41.8995 31.9853 41.5584 31.9273C40.1918 31.6928 38.8127 31.5776 37.4336 31.5684L39.6919 36.9326C40.286 37.0347 40.878 37.1605 41.4648 37.3126C41.4991 37.3212 41.5333 37.3304 41.5676 37.339C43.3339 37.7881 44.8461 35.9994 44.1387 34.3193L43.2845 32.2895C43.0501 32.2322 42.8156 32.1736 42.5805 32.1236Z" fill="#DC2626"/>
<path d="M37.4328 31.568C33.8086 31.5436 30.187 32.2779 26.8071 33.7005L25.5195 34.2425L27.2391 38.3278C31.1946 36.7386 35.5111 36.2163 39.6905 36.9316L37.4328 31.568Z" fill="#CBD5E1"/>
<path d="M43.4903 23.6946C42.9759 23.6946 42.4879 23.3917 42.2752 22.8878C41.9933 22.2174 42.3081 21.4449 42.9779 21.163L47.0572 19.446C47.729 19.1622 48.4996 19.4783 48.7827 20.1488C49.0646 20.8192 48.7498 21.5917 48.08 21.8736L44.0007 23.5906C43.8341 23.661 43.6609 23.6946 43.4903 23.6946Z" fill="#F1F5F9"/>
<path d="M40.9667 17.7014C40.6585 17.7014 40.3489 17.5941 40.0993 17.3748C39.5527 16.8953 39.4974 16.0629 39.9768 15.5162L42.4268 12.7212C42.9062 12.1739 43.7374 12.1179 44.2853 12.5987C44.832 13.0781 44.8873 13.9106 44.4078 14.4572L41.9579 17.2523C41.6971 17.55 41.3335 17.7014 40.9667 17.7014Z" fill="#F1F5F9"/>
<path d="M49.7256 29.8882C49.7012 29.8882 49.6775 29.8875 49.6531 29.8862L45.9413 29.6847C45.2149 29.6452 44.6584 29.0248 44.6972 28.2983C44.7367 27.5712 45.3683 27.02 46.0836 27.0542L49.7954 27.2558C50.5218 27.2953 51.0783 27.9157 51.0395 28.6421C51.0013 29.3448 50.4204 29.8882 49.7256 29.8882Z" fill="#F1F5F9"/>
</g>
<defs>
<clipPath id="clip0_903_3011">
<rect width="60" height="60" fill="white"/>
</clipPath>
</defs>
</svg>
