<svg xmlns="http://www.w3.org/2000/svg" fill="none" viewBox="0 0 940 200"><path fill="url(#a)" d="M0 0h940v200H0z"/><g clip-path="url(#b)"><path fill="#C9F4FF" d="M452.538 52.77a5.8 5.8 0 0 0-4.905-2.77h-29.814A5.82 5.82 0 0 0 412 55.819a5.87 5.87 0 0 0 .887 3.103l7.675 11.278 38.376-8.313z"/><path fill="#51B9FF" d="M459.104 62.109a5.85 5.85 0 0 0-4.932-2.771h-29.703a5.79 5.79 0 0 0-5.099 8.977l8.562 13.578 39.651-6.207z"/><path fill="#007BFC" d="M427.572 81.338a5.93 5.93 0 0 1-.526-5.209 5.85 5.85 0 0 1 5.541-3.713h29.704a5.82 5.82 0 0 1 4.932 2.771l26.683 42.311a5.87 5.87 0 0 1 0 6.207l-14.907 23.635a5.84 5.84 0 0 1-7.745 1.986 5.84 5.84 0 0 1-2.119-1.986zm75.146 13.522a5.847 5.847 0 0 0 9.864 0l5.126-8.118 9.781-15.517a5.87 5.87 0 0 0 .887-3.104 5.96 5.96 0 0 0-.887-3.103l-7.758-12.247A5.85 5.85 0 0 0 514.799 50h-29.815a5.82 5.82 0 0 0-5.819 5.819 5.55 5.55 0 0 0 .915 3.103z"/></g><defs><linearGradient id="a" x1="-233.042" x2="597.72" y1="-47" y2="623.862" gradientUnits="userSpaceOnUse"><stop stop-color="#3C356C"/><stop offset=".307" stop-color="#282444"/><stop offset="1" stop-color="#0D0D0D"/></linearGradient><clipPath id="b"><path fill="#fff" d="M412 50h116.376v100H412z"/></clipPath></defs></svg>