<svg xmlns="http://www.w3.org/2000/svg" viewBox="0 0 280 109" fill="none"><path fill="#384745" d="M159.622 29.652h12.176v13.78c0 1.531-.218 3.79-.364 5.469h.292a42 42 0 0 1 3.062-4.594l12.03-14.655h13.124l-16.04 19.321 16.916 29.894h-14l-11.374-20.633-3.646 4.448v16.185h-12.176zm53.082 33.758c-1.312 4.739 1.385 7.728 5.468 7.728 4.594 0 6.927-3.645 6.927-8.822 0-5.54-2.771-7.655-6.49-7.655a8.85 8.85 0 0 0-6.051 2.334l-5.249-5.688 15.238-12.615h-18.082v-9.04h30.258v9.55l-11.666 9.625c7.437-.728 14.51 4.156 14.51 13.635 0 10.28-8.385 17.28-18.958 17.28-9.988 0-18.373-6.197-16.186-14.874zm39.955-.728c-.875 3.936.656 8.456 8.385 8.456 5.103 0 6.854-2.04 6.854-4.74 0-4.082-4.084-5.103-8.896-6.852-7.218-2.48-16.113-5.979-16.113-16.26 0-9.186 7.073-14.801 19.102-14.509 14.729.29 18.885 8.968 17.281 16.478l-11.156 1.02c.73-5.686-1.312-8.895-7.072-8.895-3.864 0-6.052 1.46-6.052 4.521 0 4.083 3.937 5.322 8.75 7C271.179 51.379 280 54.369 280 64.576c0 8.822-6.561 15.167-19.394 15.167-12.03 0-20.269-5.543-18.591-16.04z"/><path fill="#FFC61C" d="M118.471 0H14.024A14.065 14.065 0 0 0 0 14.024v80.461a14.063 14.063 0 0 0 14.024 14.024H118.47a14.067 14.067 0 0 0 14.024-14.024V14.024A14.07 14.07 0 0 0 118.471 0M55.986 78.906l-25.49 14.813a6.819 6.819 0 0 1-10.02-7.644 6.82 6.82 0 0 1 3.166-4.15l25.49-14.814a6.821 6.821 0 1 1 6.854 11.795m10.028-22.57h-.031a6.82 6.82 0 0 1-6.79-6.85l.127-29.364a6.82 6.82 0 0 1 6.82-6.791h.03a6.82 6.82 0 0 1 6.791 6.85l-.127 29.365a6.82 6.82 0 0 1-6.82 6.79m45.101 34.893a6.83 6.83 0 0 1-4.141 3.18 6.82 6.82 0 0 1-5.176-.683L76.27 78.987a6.82 6.82 0 0 1-2.501-9.32 6.82 6.82 0 0 1 9.322-2.493l25.528 14.738a6.82 6.82 0 0 1 2.496 9.317"/></svg>