<svg xmlns="http://www.w3.org/2000/svg" fill="none" viewBox="0 0 280 48"><path fill="#0069FF" d="M23.613 47.177v-9.1c9.707 0 17.174-9.613 13.487-19.787-1.353-3.78-4.387-6.766-8.167-8.166C18.76 6.437 9.147 13.904 9.147 23.61H0C0 8.164 14.933-3.876 31.127 1.164 38.22 3.357 43.82 9.004 46.013 16.05c5.04 16.194-6.953 31.127-22.4 31.127m0-18.2h-9.1v9.1h9.1zm-9.1 16.1v-7h-7v7zm-7-12.88h-5.88v5.88h5.88zM84 13.624c1.493.98 2.66 2.426 3.453 4.246.794 1.82 1.214 3.92 1.214 6.347s-.42 4.573-1.214 6.393c-.793 1.82-1.96 3.314-3.453 4.34-2.707 1.96-6.067 2.987-9.987 2.987h-8.54V10.824h8.54c3.92 0 7.28.933 9.987 2.8m-13.533 19.74h2.706c3.034 0 5.46-.607 7.28-1.774 2.054-1.353 3.127-3.826 3.127-7.373 0-3.453-1.027-5.787-3.127-7.047-1.866-1.166-4.34-1.726-7.326-1.726H70.42v17.92zM94.64 10.497q-1.26 0-2.1.84c-.56.56-.887 1.26-.887 2.053 0 .84.28 1.54.887 2.1.56.56 1.26.887 2.1.887s1.54-.28 2.1-.887c.56-.56.887-1.26.887-2.1s-.28-1.54-.887-2.053c-.56-.56-1.307-.84-2.1-.84m-2.473 27.44h4.806V18.804h-4.806zm22.306-19.087h4.714v17.36c0 2.847-.887 5.18-2.567 6.954-1.68 1.726-4.013 2.613-6.86 2.613-2.1 0-3.92-.467-5.367-1.4-1.446-.933-2.52-1.913-3.22-2.893l-.093-.14 3.267-3.127c1.68 2.287 3.08 3.173 5.32 3.173 1.446 0 2.613-.42 3.453-1.26s1.26-2.1 1.26-3.686v-.42q-1.96 1.54-4.76 1.54c-2.66 0-4.9-.887-6.58-2.707-1.68-1.867-2.567-4.153-2.567-6.86 0-2.753.887-5.087 2.567-6.86 1.68-1.82 3.92-2.707 6.533-2.707 1.774 0 3.36.747 4.807 2.054V18.85zm-1.306 12.88c.84-.933 1.26-2.193 1.26-3.733s-.42-2.847-1.26-3.78c-.84-.98-1.914-1.447-3.314-1.447-1.353 0-2.473.467-3.266 1.447-.84.933-1.26 2.24-1.26 3.78s.42 2.8 1.26 3.733 1.913 1.4 3.266 1.4c1.354 0 2.474-.466 3.314-1.4m10.126 6.207h4.807V18.804h-4.807zm2.474-27.44q-1.26 0-2.1.84c-.56.56-.887 1.26-.887 2.053 0 .84.28 1.54.887 2.1.56.56 1.26.887 2.1.887s1.54-.28 2.1-.887c.56-.56.886-1.26.886-2.1s-.28-1.54-.886-2.053q-.91-.84-2.1-.84m12.88 3.173h-4.714v5.18h-2.753v4.387h2.753v7.933c0 2.474.514 4.247 1.494 5.274q1.47 1.54 5.18 1.54c.793 0 1.586-.047 2.333-.094h.233v-4.386l-1.633.093c-1.167 0-1.913-.187-2.287-.607q-.56-.63-.56-2.52v-7.28h4.48v-4.386h-4.48V13.67zm27.02 24.267h4.806V10.824h-4.806zm53.386-6.813c-.84.98-1.726 1.82-2.426 2.24-.654.42-1.494.653-2.474.653-1.4 0-2.566-.513-3.5-1.587q-1.4-1.61-1.4-4.06c0-1.633.467-2.986 1.354-4.013.933-1.073 2.053-1.587 3.453-1.587 1.54 0 3.173.98 4.573 2.614l3.174-3.034c-2.054-2.706-4.714-3.966-7.887-3.966-2.66 0-4.947.98-6.813 2.846-1.867 1.867-2.8 4.294-2.8 7.14q0 4.27 2.8 7.14c1.866 1.914 4.153 2.847 6.813 2.847 3.5 0 6.3-1.493 8.167-4.247zm19.74-9.614a11.5 11.5 0 0 1 1.54 3.127c.327 1.12.514 2.333.514 3.547l-.047 1.773h-12.74c.14 1.213.56 2.193 1.353 2.893.84.794 1.96 1.167 3.267 1.167.887 0 1.727-.187 2.427-.513.466-.234.933-.56 1.4-1.027.373-.373.793-.747 1.073-1.12l3.127 3.033-.094.14c-2.006 2.567-4.666 3.92-7.886 3.92-2.847 0-5.18-.933-6.954-2.753-1.773-1.82-2.66-4.247-2.66-7.14 0-2.8.794-5.227 2.427-7.187s3.827-2.94 6.533-2.94c1.494 0 2.847.28 3.967.84a6.6 6.6 0 0 1 2.753 2.24m-3.08 4.48q-.07-1.33-.98-2.24-.91-.98-2.66-.98-1.539 0-2.52.98c-.606.607-1.026 1.354-1.26 2.287h7.42zm21.56-5.74c1.447 1.26 2.194 3.08 2.194 5.414v12.273h-4.714V36.35c-1.54 1.26-3.266 2.007-5.086 2.007s-3.407-.513-4.667-1.587-1.867-2.52-1.867-4.34c0-2.053.747-3.64 2.194-4.76 1.446-1.12 3.406-1.68 5.786-1.68 1.167 0 2.334.187 3.547.56v-.933c0-.84-.327-1.54-.933-2.053-.654-.514-1.494-.794-2.474-.794-1.866 0-3.266.7-4.526 2.707l-3.08-2.94-.047-.047c.793-1.353 2.007-2.426 3.267-3.08 1.353-.7 2.846-1.026 4.433-1.026 2.52 0 4.527.653 5.973 1.866m-8.54 10.407c-.513.373-.793.84-.793 1.54 0 .56.233 1.027.653 1.4.467.373 1.074.56 1.914.56 1.726 0 3.126-.513 4.153-1.447v-1.866q-1.89-.7-3.64-.7c-.98-.047-1.727.14-2.287.513m29.26-9.987q-2.03-2.24-5.6-2.24c-1.913 0-3.453.56-4.62 1.634v-1.167h-4.713V38.03h4.807V27.484c0-1.447.326-2.614 1.026-3.407.7-.84 1.587-1.213 2.847-1.213 1.073 0 1.913.373 2.52 1.073.607.747.933 1.727.933 2.987v11.06H280V26.877c0-2.66-.7-4.76-2.007-6.207m-118.346-.42c1.446 1.26 2.193 3.08 2.193 5.414v12.273h-4.713V36.35c-1.54 1.26-3.267 2.007-5.087 2.007s-3.407-.513-4.667-1.587-1.866-2.52-1.866-4.34c0-2.053.746-3.64 2.193-4.76s3.407-1.68 5.787-1.68c1.166 0 2.333.187 3.546.56v-.933c0-.84-.326-1.54-.933-2.053-.653-.514-1.493-.794-2.473-.794-1.867 0-3.267.7-4.527 2.707l-3.08-2.94-.047-.047c.794-1.353 2.007-2.426 3.267-3.08 1.353-.7 2.847-1.026 4.433-1.026 2.474 0 4.48.653 5.974 1.866m-8.54 10.407c-.514.373-.794.84-.794 1.54 0 .56.234 1.027.654 1.4.466.373 1.073.56 1.913.56 1.727 0 3.127-.513 4.153-1.447v-1.866q-1.89-.7-3.64-.7c-.98-.047-1.773.14-2.286.513m36.82 7.7c7.7 0 14-6.253 14-14 0-7.7-6.254-14-14-14s-14 6.253-14 14 6.3 14 14 14m0-23.053c4.993 0 9.053 4.06 9.053 9.053s-4.06 9.053-9.053 9.053-9.054-4.06-9.054-9.053 4.06-9.053 9.054-9.053"/></svg>