<svg xmlns="http://www.w3.org/2000/svg" viewBox="0 0 940 200" fill="none"><path fill="url(#a)" d="M0 0h940v200H0z"/><g fill="#239DFF" clip-path="url(#b)"><path d="M435.746 50.034h-12.27c-2.262 0-3.745 1.755-3.745 3.956v91.997c0 2.202 1.483 3.966 3.745 3.966h12.27c2.262 0 4.001-1.764 4.001-3.966V53.99c0-2.202-1.739-3.956-4.001-3.956m-38.313 72.647c-1.114-2.46-4.307-3.137-6.267-1.29-5.19 4.895-12.149 7.901-19.823 7.901-20.107 0-35.45-20.533-26.47-41.909a26.4 26.4 0 0 1 13.967-14.042c12.269-5.214 24.207-2.244 32.125 5.078 1.98 1.831 5.156 1.181 6.272-1.282l5.314-11.737c.85-1.878.263-4.08-1.373-5.325-12.449-9.472-29.443-13.19-47.155-7.115-14.216 4.876-25.3 16.416-29.814 30.837C313.411 118.291 338.699 150 371.343 150c11.361 0 21.803-3.869 30.16-10.342 1.579-1.223 2.074-3.406 1.248-5.232zM615.79 83.797c-4.514-14.42-15.599-25.96-29.815-30.836-10.061-3.452-19.89-3.74-28.786-1.61-14.839 3.336-25.587 10.418-35.033 30.837l-18.954 41.394-32.174-71.203a3.96 3.96 0 0 0-3.597-2.334l-14.055-.022c-2.884-.005-4.805 2.998-3.608 5.64l41.726 91.855c.643 1.42 2.051 2.38 3.601 2.38l.682.055h15.78c.317 0 .635-.066.936-.169 1.086-.372 2.001-1.152 2.476-2.229 0 0 20.891-47.872 21.134-48.45 6.357-15.092 10.214-21.378 20.304-25.695 7.634-3.267 16.661-3.664 25.389.316 6.076 2.77 10.854 7.832 13.395 14.04a33.8 33.8 0 0 1 2.553 11.815c.227 16.37-12.882 29.712-29.089 29.712-7.674 0-14.634-3.007-19.824-7.9-1.959-1.849-5.152-1.171-6.266 1.289l-5.318 11.745c-.826 1.826-.332 4.008 1.248 5.232 8.357 6.473 18.799 10.341 30.16 10.341 32.644 0 57.932-31.708 47.135-66.203"/></g><defs><linearGradient id="a" x1="-233.042" x2="597.72" y1="-47" y2="623.862" gradientUnits="userSpaceOnUse"><stop stop-color="#3C356C"/><stop offset=".307" stop-color="#282444"/><stop offset="1" stop-color="#0D0D0D"/></linearGradient><clipPath id="b"><path fill="#fff" d="M321.68 50h296.639v100H321.68z"/></clipPath></defs></svg>