<svg xmlns="http://www.w3.org/2000/svg" fill="none" viewBox="0 0 940 200"><path fill="url(#a)" d="M0 0h940v200H0z"/><path fill="#CDF700" d="M367.006 135.442c1.253.227 1.595.569 1.823 1.025.228.57.228 1.026.114 1.596v.113c-.228.912-.912 1.368-1.937 1.368-.799-.227-1.368-.57-1.71-1.139-.342-.456-.342-1.026-.228-1.597.342-.91 1.026-1.366 1.938-1.366m-1.824-24.045c0-.456.114-.798.342-1.141l38.974-49.571c.342-.456.912-.685 1.482-.685.455 0 .797.114 1.139.343 1.026.798 1.139 1.595.342 2.621l-38.518 49.116v19.032c0 1.024-.912 1.936-1.937 1.936-1.026 0-1.824-.912-1.824-1.936zm0-16.525V62.165c0-1.024.798-1.936 1.824-1.936 1.025 0 1.937.912 1.937 1.936v32.707c0 1.026-.912 1.938-1.937 1.938-1.026 0-1.824-.912-1.824-1.938"/><path fill="#fff" d="M378.971 83.248c0 1.026-.912 1.938-1.937 1.938s-1.824-.912-1.824-1.938v-10.94c0-1.253.571-1.823 1.824-1.823 1.14 0 1.937.683 1.937 1.824z"/><path fill="#CDF700" d="M375.21 137.72v-21.082c0-.569.115-.911.343-1.139l6.723-8.547c.342-.456.912-.683 1.482-.683.683 0 1.139.227 1.481.683l22.791 29.856c.684 1.027.571 1.824-.341 2.622a1.93 1.93 0 0 1-1.14.343c-.569 0-1.139-.229-1.481-.685l-21.31-27.92-4.787 6.04v20.512c0 1.027-.912 1.824-1.937 1.824-1.253 0-1.824-.57-1.824-1.824"/><path fill="#fff" d="m421.706 62.964-28.604 36.239 28.718 37.378c.342.342.456.798.342 1.254-.114.57-.342 1.026-.798 1.368-.228.227-.57.341-1.139.341-.571 0-1.026-.227-1.482-.683l-29.515-38.519c-.57-.798-.57-1.481 0-2.279l29.629-37.378a1.62 1.62 0 0 1 1.368-.685c.569 0 .911.114 1.253.343 1.026.798 1.026 1.71.228 2.621"/><path fill="#CDF700" d="M462.497 62.736c.114.456.114.912-.114 1.367-.341.456-.684.798-1.253.912-10.029 2.507-16.752 10.256-16.752 20.74 0 1.026-.912 1.938-1.938 1.938-1.253 0-1.823-.683-1.823-1.938 0-12.649 8.091-21.196 19.601-24.387 1.253 0 1.937 0 2.279 1.368m-19.829 49.914c1.026 0 1.938.912 1.938 1.937 0 12.308 11.053 21.197 22.792 21.653q.854.17 1.367.683.513.512.342 1.368c0 1.139-.57 1.709-1.824 1.709-14.131-.912-26.439-10.826-26.439-25.413 0-1.025.799-1.937 1.824-1.937"/><path fill="#fff" d="M473.551 69.117c6.724 0 13.448 1.71 17.437 7.522 1.366 1.937 2.164 3.646 2.507 5.128.227 1.595.341 2.393.341 2.507 0 6.382-2.394 12.649-8.319 15.613 5.925 3.76 8.205 8.433 8.205 15.497 0 5.584-4.216 10.941-9.003 13.448-3.077 1.595-6.724 2.392-11.168 2.392h-.342c-11.282 0-21.994-3.987-21.994-16.637 0-1.025.912-1.937 1.937-1.937 1.14 0 1.823.798 1.823 1.937 0 10.712 9.915 12.877 18.462 12.877h.114c7.066 0 14.018-2.734 16.069-10.027q.341-1.88.342-2.053c0-1.595-.229-3.19-.571-4.785-1.48-4.673-4.672-8.434-9.914-8.775-.798-.227-1.71-1.026-1.71-1.824 0-1.139.684-1.71 1.71-1.936.57-.115 1.14-.23 1.709-.456a5.3 5.3 0 0 0 1.709-.685c5.243-2.051 7.181-7.18 7.181-12.534 0-2.053-1.026-4.104-2.28-5.699-2.735-3.874-7.521-5.813-14.245-5.813-8.205 0-18.803 3.078-18.803 12.878 0 1.255-.57 1.938-1.824 1.938-1.025 0-1.937-.912-1.937-1.938 0-11.966 12.422-16.638 22.564-16.638"/><path fill="#CDF700" d="M467.739 102.051c2.279.57 4.216 1.141 5.926 1.824 3.077 1.595 5.356 3.191 7.407 6.04.798 1.367 1.595 2.962 2.394 4.901q.171.683 0 1.367-.342.854-1.026 1.025c-.912 0-2.051 0-2.507-1.025-2.735-7.749-7.294-9.117-14.473-10.826-1.026-.115-1.482-.798-1.482-1.824v-6.496c0-1.025.456-1.71 1.368-1.824 1.937-.568 3.647-1.024 5.128-1.48 5.242-1.595 7.521-4.56 9.459-9.344.342-.8.912-1.141 1.823-1.141 1.139.229 1.483.57 1.71 1.026.114.57.114 1.026 0 1.48-3.419 8.206-7.75 10.6-15.727 12.651zm-2.735-40.454c.228-.912.911-1.368 1.938-1.368 1.253.227 1.595.57 1.823 1.026.228.569.228 1.025.114 1.595v.114c-.342.91-1.026 1.367-1.937 1.367-1.824-.456-2.508-1.367-1.938-2.735m53.668 76.353V72.194c0-1.026.797-1.936 1.823-1.936h19.715c10.483 0 18.917 6.267 23.248 15.611 1.709 4.216 2.621 8.888 2.621 14.018 0 12.876-5.813 25.07-18.69 29.059-1.368 0-2.165-.456-2.392-1.253-.115-.57-.115-1.026.114-1.482.227-.456.569-.798 1.139-.912 11.395-3.077 16.067-14.587 16.067-25.412 0-11.055-4.216-20.058-14.586-24.501q-3.76-1.368-7.521-1.368h-17.778v63.931c0 1.025-.912 1.937-1.937 1.937-1.026 0-1.823-.912-1.823-1.937"/><path fill="#fff" d="M530.41 64.33c-1.026 0-1.938-.797-1.938-1.822 0-1.026.912-1.938 1.938-1.938h12.307c13.106 0 24.729 8.889 29.744 20.741 2.392 5.699 3.646 12.193 3.646 19.374 0 21.31-11.054 39.088-33.39 39.088h-12.193c-1.026 0-1.938-.799-1.938-1.824V80.855c0-1.253.683-1.938 1.938-1.938s1.822.685 1.822 1.939v55.155h10.371c21.197 0 29.629-16.752 29.629-35.326 0-14.816-6.04-29.63-20.854-34.758-3.418-1.026-6.381-1.596-8.775-1.596z"/><path fill="#CDF700" d="M538.728 129.061c-.342-.456-.342-1.027-.113-1.597.113-.683.456-1.139 1.025-1.253.57-.115 1.026-.115 1.596-.115.569.229.911.571 1.139 1.027.228.57.228 1.026.115 1.595v.114c-.343.912-1.027 1.368-1.938 1.368-.912-.229-1.481-.571-1.824-1.139"/><defs><linearGradient id="a" x1="-233.042" x2="597.72" y1="-47" y2="623.862" gradientUnits="userSpaceOnUse"><stop stop-color="#3C356C"/><stop offset=".307" stop-color="#282444"/><stop offset="1" stop-color="#0D0D0D"/></linearGradient></defs></svg>