<svg xmlns="http://www.w3.org/2000/svg" viewBox="0 0 280 67" fill="none"><path fill="#fff" d="m279.295 48.522-7.031-12.12a10.927 10.927 0 0 0 2.629-18.514 10.92 10.92 0 0 0-6.909-2.464h-15.423a1.93 1.93 0 0 0-1.928 1.928v32.134a1.93 1.93 0 0 0 1.928 1.928h1.285a1.927 1.927 0 0 0 1.928-1.928v-12.21h11.233l7.648 13.174a1.91 1.91 0 0 0 1.683.964h1.286a1.93 1.93 0 0 0 1.671-2.892m-23.521-27.956h12.21a5.785 5.785 0 0 1 0 11.568h-12.21zm-16.066-5.142h-26.991a1.927 1.927 0 0 0-1.928 1.928v1.286a1.926 1.926 0 0 0 1.928 1.928h10.925v28.92a1.927 1.927 0 0 0 1.928 1.928h1.285a1.927 1.927 0 0 0 1.928-1.928v-28.92h10.925a1.927 1.927 0 0 0 1.928-1.928v-1.286a1.927 1.927 0 0 0-1.928-1.928m-28.276 30.849h-17.351v-28.92a1.93 1.93 0 0 0-1.928-1.929h-1.286a1.93 1.93 0 0 0-1.928 1.928v32.134a1.93 1.93 0 0 0 1.928 1.928h20.565a1.927 1.927 0 0 0 1.928-1.928v-1.285a1.926 1.926 0 0 0-1.928-1.928m-32.775-28.921a1.927 1.927 0 0 0-1.928-1.928h-1.285a1.927 1.927 0 0 0-1.928 1.928v19.923a9.643 9.643 0 0 1-9.64 9.64 9.64 9.64 0 0 1-9.639-9.64V17.352a1.927 1.927 0 0 0-1.928-1.928h-1.285a1.93 1.93 0 0 0-1.928 1.928v19.923a14.782 14.782 0 1 0 29.561 0zm-39.201-1.928h-1.285a1.925 1.925 0 0 0-1.787 1.209L125.318 44.46l-11.131-27.828a1.93 1.93 0 0 0-1.786-1.209h-1.285a1.927 1.927 0 0 0-1.723 2.648l12.853 32.134a1.92 1.92 0 0 0 1.787 1.208h2.57a1.92 1.92 0 0 0 1.787-1.208l12.853-32.134a1.927 1.927 0 0 0-1.787-2.648"/><path fill="#007BFC" d="M26.865 1.8A3.86 3.86 0 0 0 23.614 0H3.858A3.856 3.856 0 0 0 .594 5.913l4.049 6.426 26.284-4.113z"/><path fill="#51B9FF" d="M30.927 8.226a3.86 3.86 0 0 0-3.265-1.8H7.908a3.856 3.856 0 0 0-3.265 5.913l5.642 8.998 26.272-4.113z"/><path fill="#fff" d="M10.285 21.337a3.74 3.74 0 0 1-.552-2.057 3.856 3.856 0 0 1 3.856-3.856H33.33a3.86 3.86 0 0 1 3.264 1.8l17.673 28.034a3.86 3.86 0 0 1 0 4.113l-9.871 15.668a3.856 3.856 0 0 1-6.53 0zm49.844 8.393a3.856 3.856 0 0 0 6.516 0l3.406-5.385 6.427-10.283a3.86 3.86 0 0 0 0-4.126l-5.141-8.15A3.86 3.86 0 0 0 68.123 0H48.368a3.855 3.855 0 0 0-3.264 5.913z"/></svg>