<svg xmlns="http://www.w3.org/2000/svg" fill="none" viewBox="0 0 279 167"><path fill="#252F3E" d="M78.56 60.543c0 3.43.37 6.212 1.02 8.252a49.6 49.6 0 0 0 2.966 6.675c.464.742.65 1.484.65 2.133 0 .927-.557 1.854-1.762 2.781l-5.841 3.894c-.835.556-1.67.835-2.411.835-.927 0-1.854-.464-2.782-1.298a28.7 28.7 0 0 1-3.337-4.358c-.927-1.576-1.855-3.338-2.874-5.47Q53.34 86.782 36.93 86.782c-7.788 0-14-2.226-18.543-6.676s-6.86-10.384-6.86-17.801c0-7.881 2.78-14.279 8.437-19.1 5.655-4.82 13.165-7.231 22.715-7.231 3.152 0 6.397.278 9.828.741 3.43.464 6.953 1.205 10.662 2.04v-6.768c0-7.047-1.484-11.96-4.358-14.835-2.967-2.874-7.973-4.265-15.112-4.265-3.245 0-6.583.371-10.014 1.206-3.43.834-6.768 1.854-10.013 3.152-1.483.649-2.596 1.02-3.245 1.205s-1.113.279-1.483.279c-1.298 0-1.947-.928-1.947-2.875v-4.543c0-1.483.185-2.596.649-3.245.463-.649 1.298-1.298 2.596-1.947q4.868-2.504 11.682-4.172C36.467.742 41.288.185 46.387.185c11.033 0 19.1 2.504 24.292 7.51 5.099 5.007 7.695 12.61 7.695 22.808v30.04zM40.917 74.636c3.06 0 6.212-.556 9.55-1.67 3.337-1.112 6.304-3.151 8.808-5.933 1.483-1.761 2.596-3.709 3.152-5.934s.927-4.914.927-8.066V49.14a77 77 0 0 0-8.53-1.576 70 70 0 0 0-8.715-.556c-6.212 0-10.755 1.205-13.814 3.708-3.06 2.503-4.544 6.027-4.544 10.662 0 4.358 1.113 7.603 3.431 9.828 2.225 2.318 5.47 3.43 9.735 3.43m74.45 10.013c-1.668 0-2.781-.278-3.523-.927-.741-.556-1.39-1.854-1.947-3.616L88.109 8.437c-.556-1.854-.834-3.06-.834-3.709 0-1.483.741-2.317 2.225-2.317h9.086c1.762 0 2.967.278 3.616.927.742.556 1.298 1.854 1.854 3.616l15.576 61.377 14.464-61.377c.463-1.855 1.02-3.06 1.761-3.616.742-.557 2.04-.927 3.709-.927h7.417c1.762 0 2.967.278 3.709.927.742.556 1.391 1.854 1.762 3.616l14.649 62.119 16.039-62.12c.557-1.854 1.206-3.059 1.855-3.615.741-.557 1.947-.927 3.615-.927h8.623c1.483 0 2.318.741 2.318 2.317 0 .464-.093.928-.186 1.484-.092.556-.278 1.298-.649 2.318l-22.344 71.669q-.834 2.781-1.947 3.616c-.742.556-1.947.927-3.523.927h-7.974c-1.761 0-2.967-.278-3.708-.927-.742-.65-1.391-1.855-1.762-3.709l-14.371-59.801-14.278 59.708c-.463 1.855-1.02 3.06-1.761 3.709-.742.649-2.04.927-3.709.927zm119.14 2.503c-4.822 0-9.643-.556-14.279-1.668-4.635-1.113-8.251-2.318-10.662-3.71-1.483-.834-2.503-1.76-2.874-2.595a6.5 6.5 0 0 1-.556-2.596v-4.729c0-1.947.741-2.874 2.132-2.874q.834 0 1.669.278c.556.186 1.391.557 2.318.927a50.4 50.4 0 0 0 10.199 3.245 55.7 55.7 0 0 0 11.033 1.113c5.841 0 10.384-1.02 13.536-3.06s4.821-5.006 4.821-8.808c0-2.595-.834-4.728-2.503-6.49-1.669-1.761-4.821-3.337-9.364-4.82l-13.444-4.173c-6.768-2.132-11.775-5.285-14.834-9.457-3.06-4.08-4.636-8.622-4.636-13.444q0-5.84 2.503-10.291c1.669-2.967 3.894-5.563 6.676-7.603 2.781-2.132 5.933-3.708 9.642-4.82S233.487 0 237.566 0c2.04 0 4.172.093 6.212.37 2.132.279 4.079.65 6.027 1.02 1.854.464 3.615.928 5.284 1.484q2.503.835 3.894 1.669c1.298.742 2.225 1.483 2.782 2.318q.834 1.113.834 3.06v4.357c0 1.947-.742 2.967-2.132 2.967-.742 0-1.947-.37-3.523-1.113q-7.928-3.615-17.802-3.615c-5.285 0-9.457.834-12.331 2.596-2.874 1.761-4.357 4.45-4.357 8.251 0 2.596.927 4.821 2.781 6.583s5.285 3.523 10.199 5.1l13.165 4.172c6.676 2.132 11.497 5.099 14.371 8.9s4.265 8.16 4.265 12.98c0 3.987-.834 7.603-2.411 10.755-1.669 3.153-3.894 5.934-6.768 8.16-2.874 2.317-6.304 3.986-10.291 5.191-4.172 1.298-8.53 1.947-13.258 1.947"/><path fill="#F90" fill-rule="evenodd" d="M252.03 132.212c-30.504 22.53-74.822 34.49-112.927 34.49-53.404 0-101.524-19.748-137.868-52.57-2.874-2.596-.278-6.119 3.152-4.079 39.312 22.808 87.802 36.623 137.961 36.623 33.841 0 71.019-7.047 105.231-21.51 5.1-2.318 9.457 3.337 4.451 7.046" clip-rule="evenodd"/><path fill="#F90" fill-rule="evenodd" d="M264.733 117.748c-3.894-5.006-25.775-2.41-35.696-1.205-2.967.371-3.43-2.225-.742-4.172 17.431-12.238 46.08-8.715 49.418-4.636 3.337 4.172-.927 32.821-17.245 46.543-2.504 2.133-4.914 1.02-3.802-1.761 3.709-9.179 11.961-29.855 8.067-34.769" clip-rule="evenodd"/></svg>