<svg viewBox="0 0 940 200" fill="none" xmlns="http://www.w3.org/2000/svg">
<rect width="940" height="200" fill="url(#paint0_linear_429_49)"/>
<path d="M454.727 56.8167H481.85L453.694 140.241C453.404 141.098 452.853 141.843 452.119 142.371C451.384 142.898 450.502 143.182 449.597 143.182H428.489C427.803 143.182 427.127 143.019 426.517 142.706C425.907 142.394 425.381 141.94 424.981 141.383C424.581 140.826 424.32 140.182 424.218 139.504C424.116 138.826 424.178 138.134 424.397 137.484L450.629 59.7584C450.918 58.9008 451.469 58.1555 452.205 57.6276C452.94 57.0997 453.822 56.8168 454.727 56.8167Z" fill="url(#paint1_linear_429_49)"/>
<path d="M494.141 112.772H451.13C450.73 112.772 450.34 112.892 450.009 113.116C449.678 113.341 449.423 113.66 449.276 114.032C449.129 114.404 449.098 114.812 449.186 115.202C449.275 115.592 449.478 115.946 449.771 116.219L477.408 142.015C478.213 142.765 479.273 143.183 480.373 143.182H504.727L494.141 112.772Z" fill="#0078D4"/>
<path d="M454.727 56.8167C453.812 56.8132 452.92 57.1023 452.181 57.6418C451.442 58.1814 450.895 58.9431 450.62 59.8156L424.429 137.414C424.195 138.065 424.122 138.764 424.215 139.45C424.308 140.137 424.565 140.79 424.965 141.356C425.364 141.922 425.894 142.384 426.509 142.701C427.125 143.019 427.807 143.184 428.5 143.182H450.153C450.96 143.038 451.713 142.683 452.337 142.152C452.961 141.621 453.433 140.934 453.705 140.161L458.928 124.769L477.584 142.17C478.366 142.816 479.347 143.174 480.361 143.182H504.625L493.983 112.772L462.961 112.779L481.948 56.8167H454.727Z" fill="url(#paint2_linear_429_49)"/>
<path d="M489.37 59.7542C489.081 58.8979 488.531 58.1539 487.797 57.6269C487.063 57.1 486.182 56.8165 485.278 56.8167H455.05C455.954 56.8167 456.834 57.1002 457.568 57.6271C458.302 58.1541 458.853 58.898 459.142 59.7542L485.375 137.483C485.594 138.133 485.656 138.826 485.554 139.504C485.453 140.182 485.191 140.826 484.791 141.383C484.392 141.94 483.865 142.394 483.255 142.707C482.645 143.02 481.969 143.183 481.283 143.183H511.512C512.198 143.183 512.874 143.02 513.484 142.707C514.094 142.393 514.62 141.94 515.02 141.383C515.42 140.826 515.681 140.181 515.782 139.503C515.884 138.825 515.822 138.133 515.603 137.483L489.37 59.7542Z" fill="url(#paint3_linear_429_49)"/>
<path d="M454.727 56.8167H481.85L453.694 140.241C453.404 141.098 452.853 141.843 452.119 142.371C451.384 142.898 450.502 143.182 449.597 143.182H428.489C427.803 143.182 427.127 143.019 426.517 142.706C425.907 142.394 425.381 141.94 424.981 141.383C424.581 140.826 424.32 140.182 424.218 139.504C424.116 138.826 424.178 138.134 424.397 137.484L450.629 59.7584C450.918 58.9008 451.469 58.1555 452.205 57.6276C452.94 57.0997 453.822 56.8168 454.727 56.8167Z" fill="url(#paint4_linear_429_49)"/>
<path d="M494.141 112.772H451.13C450.73 112.772 450.34 112.892 450.009 113.116C449.678 113.341 449.423 113.66 449.276 114.032C449.129 114.404 449.098 114.812 449.186 115.202C449.275 115.592 449.478 115.946 449.771 116.219L477.408 142.015C478.213 142.765 479.273 143.183 480.373 143.182H504.727L494.141 112.772Z" fill="#0078D4"/>
<path d="M454.727 56.8167C453.812 56.8132 452.92 57.1023 452.181 57.6418C451.442 58.1814 450.895 58.9431 450.62 59.8156L424.429 137.414C424.195 138.065 424.122 138.764 424.215 139.45C424.308 140.137 424.565 140.79 424.965 141.356C425.364 141.922 425.894 142.384 426.509 142.701C427.125 143.019 427.807 143.184 428.5 143.182H450.153C450.96 143.038 451.713 142.683 452.337 142.152C452.961 141.621 453.433 140.934 453.705 140.161L458.928 124.769L477.584 142.17C478.366 142.816 479.347 143.174 480.361 143.182H504.625L493.983 112.772L462.961 112.779L481.948 56.8167H454.727Z" fill="url(#paint5_linear_429_49)"/>
<path d="M489.37 59.7542C489.081 58.8979 488.531 58.1539 487.797 57.6269C487.063 57.1 486.182 56.8165 485.278 56.8167H455.05C455.954 56.8167 456.834 57.1002 457.568 57.6271C458.302 58.1541 458.853 58.898 459.142 59.7542L485.375 137.483C485.594 138.133 485.656 138.826 485.554 139.504C485.453 140.182 485.191 140.826 484.791 141.383C484.392 141.94 483.865 142.394 483.255 142.707C482.645 143.02 481.969 143.183 481.283 143.183H511.512C512.198 143.183 512.874 143.02 513.484 142.707C514.094 142.393 514.62 141.94 515.02 141.383C515.42 140.826 515.681 140.181 515.782 139.503C515.884 138.825 515.822 138.133 515.603 137.483L489.37 59.7542Z" fill="url(#paint6_linear_429_49)"/>
<defs>
<linearGradient id="paint0_linear_429_49" x1="-233.042" y1="-47" x2="597.72" y2="623.862" gradientUnits="userSpaceOnUse">
<stop stop-color="#3C356C"/>
<stop offset="0.307292" stop-color="#282444"/>
<stop offset="1" stop-color="#0D0D0D"/>
</linearGradient>
<linearGradient id="paint1_linear_429_49" x1="464.613" y1="63.2167" x2="436.445" y2="146.431" gradientUnits="userSpaceOnUse">
<stop stop-color="#114A8B"/>
<stop offset="1" stop-color="#0669BC"/>
</linearGradient>
<linearGradient id="paint2_linear_429_49" x1="473.411" y1="101.997" x2="466.896" y2="104.2" gradientUnits="userSpaceOnUse">
<stop stop-opacity="0.3"/>
<stop offset="0.071" stop-opacity="0.2"/>
<stop offset="0.321" stop-opacity="0.1"/>
<stop offset="0.623" stop-opacity="0.05"/>
<stop offset="1" stop-opacity="0"/>
</linearGradient>
<linearGradient id="paint3_linear_429_49" x1="469.828" y1="60.7896" x2="500.748" y2="143.166" gradientUnits="userSpaceOnUse">
<stop stop-color="#3CCBF4"/>
<stop offset="1" stop-color="#2892DF"/>
</linearGradient>
<linearGradient id="paint4_linear_429_49" x1="464.613" y1="63.2167" x2="436.445" y2="146.431" gradientUnits="userSpaceOnUse">
<stop stop-color="#114A8B"/>
<stop offset="1" stop-color="#0669BC"/>
</linearGradient>
<linearGradient id="paint5_linear_429_49" x1="473.411" y1="101.997" x2="466.896" y2="104.2" gradientUnits="userSpaceOnUse">
<stop stop-opacity="0.3"/>
<stop offset="0.071" stop-opacity="0.2"/>
<stop offset="0.321" stop-opacity="0.1"/>
<stop offset="0.623" stop-opacity="0.05"/>
<stop offset="1" stop-opacity="0"/>
</linearGradient>
<linearGradient id="paint6_linear_429_49" x1="469.828" y1="60.7896" x2="500.748" y2="143.166" gradientUnits="userSpaceOnUse">
<stop stop-color="#3CCBF4"/>
<stop offset="1" stop-color="#2892DF"/>
</linearGradient>
</defs>
</svg>
