<svg xmlns="http://www.w3.org/2000/svg" fill="none" viewBox="0 0 280 94"><path fill="#239DFF" d="M107.668.032H96.087c-2.135 0-3.535 1.645-3.535 3.709v86.252c0 2.064 1.4 3.718 3.535 3.718h11.581c2.135 0 3.777-1.654 3.777-3.718V3.74c0-2.064-1.642-3.709-3.777-3.709M71.504 68.143c-1.051-2.307-4.065-2.942-5.915-1.21-4.899 4.59-11.468 7.408-18.711 7.408-18.98 0-33.462-19.251-24.985-39.292a24.83 24.83 0 0 1 13.184-13.165c11.58-4.889 22.848-2.104 30.322 4.76 1.87 1.717 4.867 1.108 5.92-1.201l5.016-11.004c.803-1.761.249-3.826-1.295-4.993C63.288.566 47.248-2.921 30.53 2.776 17.11 7.347 6.647 18.166 2.386 31.686c-10.192 32.341 13.678 62.07 44.49 62.07 10.725 0 20.581-3.627 28.47-9.697 1.49-1.146 1.957-3.193 1.177-4.905zm206.109-36.456c-4.26-13.52-14.723-24.34-28.141-28.911-9.497-3.236-18.775-3.506-27.173-1.51-14.006 3.128-24.151 9.769-33.067 28.912l-17.891 38.81L140.972 2.23a3.74 3.74 0 0 0-3.395-2.189L124.31.022c-2.723-.005-4.536 2.81-3.406 5.288l39.386 86.118c.607 1.331 1.936 2.232 3.399 2.232l.644.052h14.894c.3 0 .6-.062.884-.159 1.025-.35 1.888-1.08 2.337-2.09 0 0 19.719-44.883 19.949-45.424 6-14.15 9.641-20.043 19.165-24.091 7.206-3.062 15.727-3.435 23.965.296 5.735 2.598 10.245 7.344 12.643 13.164a31.5 31.5 0 0 1 2.41 11.077c.214 15.347-12.159 27.857-27.457 27.857-7.244 0-13.813-2.82-18.712-7.408-1.85-1.732-4.863-1.097-5.915 1.21l-5.02 11.011c-.78 1.712-.313 3.758 1.178 4.905 7.888 6.069 17.745 9.696 28.469 9.696 30.813 0 54.682-29.729 44.49-62.07"/></svg>