<svg xmlns="http://www.w3.org/2000/svg" viewBox="0 0 940 200" fill="none"><path fill="url(#a)" d="M0 0h940v200H0z"/><path fill="#0080FF" d="M470.007 150v-19.391c20.525 0 36.457-20.354 28.576-41.956-2.892-7.937-9.299-14.344-17.293-17.236-21.602-7.824-41.956 8.051-41.956 28.576H420c0-32.714 31.637-58.228 65.939-47.512 14.968 4.705 26.931 16.612 31.581 31.58C528.235 118.363 502.722 150 470.007 150"/><path fill="#0080FF" fill-rule="evenodd" d="M470.064 130.723H450.73v-19.334h19.334zm-19.334 14.798h-14.798v-14.798h14.798zm-14.798-14.798h-12.417v-12.417h12.417z" clip-rule="evenodd"/><defs><linearGradient id="a" x1="-233.042" x2="597.72" y1="-47" y2="623.862" gradientUnits="userSpaceOnUse"><stop stop-color="#3C356C"/><stop offset=".307" stop-color="#282444"/><stop offset="1" stop-color="#0D0D0D"/></linearGradient></defs></svg>