<svg xmlns="http://www.w3.org/2000/svg" viewBox="0 0 940 200" fill="none"><path fill="url(#a)" d="M0 0h940v200H0z"/><path fill="#FFC61C" d="M488.083 77.327h11.221v12.7c0 1.41-.201 3.493-.335 5.04h.269a38.5 38.5 0 0 1 2.822-4.234l11.087-13.506h12.094l-14.782 17.806 15.59 27.55h-12.902l-10.483-19.015-3.36 4.099v14.916h-11.221zm48.921 31.111c-1.21 4.367 1.276 7.122 5.039 7.122 4.234 0 6.384-3.359 6.384-8.131 0-5.106-2.554-7.054-5.981-7.054a8.15 8.15 0 0 0-5.577 2.151l-4.837-5.243 14.043-11.625h-16.664v-8.331h27.885v8.802l-10.751 8.87c6.854-.672 13.372 3.83 13.372 12.565 0 9.475-7.728 15.925-17.471 15.925-9.205 0-16.933-5.711-14.917-13.708zm36.821-.671c-.806 3.627.604 7.792 7.727 7.792 4.703 0 6.317-1.881 6.317-4.368 0-3.762-3.764-4.703-8.199-6.315-6.651-2.285-14.849-5.51-14.849-14.985 0-8.465 6.518-13.64 17.604-13.37 13.574.267 17.404 8.264 15.926 15.185l-10.281.941c.672-5.241-1.21-8.198-6.518-8.198-3.561 0-5.577 1.345-5.577 4.166 0 3.763 3.628 4.905 8.064 6.451 6.853 2.284 14.983 5.039 14.983 14.446 0 8.13-6.047 13.977-17.874 13.977-11.086 0-18.679-5.108-17.133-14.782zM450.16 50h-96.256a12.963 12.963 0 0 0-12.924 12.924v74.152A12.96 12.96 0 0 0 353.904 150h96.256a12.964 12.964 0 0 0 12.925-12.924V62.924A12.965 12.965 0 0 0 450.16 50m-57.585 72.718-23.491 13.652a6.3 6.3 0 0 1-2.32.794 6.28 6.28 0 0 1-6.273-3.071 6.283 6.283 0 0 1 2.276-8.592l23.492-13.653a6.295 6.295 0 0 1 6.974.434 6.3 6.3 0 0 1 2.418 4.162 6.28 6.28 0 0 1-3.076 6.274m9.242-20.799h-.029a6.285 6.285 0 0 1-6.258-6.313l.118-27.062a6.286 6.286 0 0 1 6.285-6.259h.028a6.29 6.29 0 0 1 6.259 6.314l-.118 27.062a6.286 6.286 0 0 1-6.285 6.258m41.564 32.156a6.3 6.3 0 0 1-1.616 1.845 6.3 6.3 0 0 1-4.648 1.245 6.3 6.3 0 0 1-2.322-.789l-23.526-13.582a6.287 6.287 0 0 1 3.963-11.678 6.3 6.3 0 0 1 2.323.79l23.526 13.583a6.29 6.29 0 0 1 2.3 8.586"/><defs><linearGradient id="a" x1="-233.042" x2="597.72" y1="-47" y2="623.862" gradientUnits="userSpaceOnUse"><stop stop-color="#3C356C"/><stop offset=".307" stop-color="#282444"/><stop offset="1" stop-color="#0D0D0D"/></linearGradient></defs></svg>