<svg xmlns="http://www.w3.org/2000/svg" fill="none" viewBox="0 0 770 225"><path fill="#fff" d="M0 0h770v224.7H0z"/><path stroke="#3C356C" stroke-miterlimit="10" stroke-width=".665" d="M219.1 168.7h25.8"/><path fill="#3C356C" d="m215.8 168.7 4.6 1.8-1.1-1.8 1.1-1.9z"/><path stroke="#3C356C" stroke-miterlimit="10" stroke-width=".665" d="M241.3 56.1h-27.6"/><path fill="#3C356C" d="m244.6 56.1-4.6-1.9 1.1 1.9L240 58zm137 49.5V120c0 3.4-2.7 6.1-6.1 6.1H310c-3.4 0-6.1-2.7-6.1-6.1v-14.4c0-3.4 2.7-6.1 6.1-6.1h65.5c3.3.1 6.1 2.8 6.1 6.1"/><path fill="#fff" d="M314.1 115c-.2 0-.5 0-.7-.1s-.5-.2-.7-.3c-.1 0-.1-.1-.1-.1v-.2c0-.1 0-.1.1-.2l.1-.1h.2l.6.3c.2 0 .4.1.6.1.3 0 .5-.1.7-.2s.2-.3.2-.4c0-.2-.1-.3-.2-.4s-.3-.1-.5-.2l-.8-.2c-.3-.1-.6-.2-.8-.4s-.3-.4-.3-.7c0-.2.1-.5.2-.6.1-.2.3-.3.6-.4.2-.1.5-.1.8-.1.2 0 .5 0 .7.1l.6.3c.1 0 .1.1.1.1v.2c0 .1 0 .1-.1.1s-.1.1-.1.1h-.2c-.2-.1-.3-.2-.5-.2s-.3-.1-.5-.1c-.3 0-.5.1-.7.2s-.2.3-.2.5c0 .1 0 .3.1.4s.2.2.4.2l.8.2c.4.1.6.2.8.4s.3.4.3.7c0 .4-.1.7-.4.9-.2 0-.6.1-1.1.1m4.4 0c-.4 0-.8-.1-1.1-.2s-.5-.4-.7-.7-.3-.7-.3-1.1.1-.8.2-1.1c.2-.3.4-.6.7-.7.3-.2.6-.3 1-.3.3 0 .5 0 .7.1s.4.2.6.4q.3.3.3.6c.1.2.1.5.1.8 0 .1 0 .2-.1.2s-.1.1-.2.1H317v-.5h2.6l-.1.1c0-.3 0-.5-.1-.7s-.2-.4-.4-.5-.4-.2-.6-.2c-.3 0-.5.1-.7.2s-.3.3-.4.5-.1.5-.1.8c0 .5.1.9.4 1.1.2.3.6.4 1 .4.2 0 .4 0 .5-.1.2 0 .4-.1.5-.2.1 0 .2-.1.2-.1.1 0 .1 0 .2.1l.1.1v.2c0 .1-.1.1-.2.2l-.6.3c-.3.1-.5.2-.8.2m4.2 0c-.3 0-.6-.1-.8-.2s-.4-.3-.5-.5-.2-.5-.2-.8v-2h-.5c-.1 0-.2 0-.2-.1-.1-.1-.1-.1-.1-.2s0-.2.1-.2.1-.1.2-.1h.5v-.9c0-.1 0-.2.1-.3s.2-.1.3-.1.2 0 .3.1.1.2.1.3v.9h1c.1 0 .2 0 .2.1.1 0 .1.1.1.2s0 .2-.1.2c-.1.1-.1.1-.2.1h-1v1.9c0 .3.1.5.2.7s.3.2.6.2h.6s.1.1.1.2v.2c0 .1-.1.1-.1.1-.1 0-.2 0-.3.1-.2.1-.3.1-.4.1m4.9 0c-.3 0-.7-.1-.9-.2s-.5-.4-.6-.7-.2-.7-.2-1.1.1-.8.2-1.1.3-.5.6-.7.6-.2.9-.2.7.1.9.3c.3.2.4.4.5.7v-2.4c0-.1 0-.2.1-.3s.2-.1.3-.1.2 0 .3.1.1.2.1.3v5.1c0 .1 0 .2-.1.3s-.2.1-.3.1-.2 0-.3-.1-.1-.2-.1-.3v-.7l.1.1c-.1.3-.3.5-.5.7-.3.1-.6.2-1 .2m.2-.6c.2 0 .4-.1.6-.2s.3-.3.4-.5.1-.5.1-.8c0-.5-.1-.8-.3-1.1s-.5-.4-.9-.4c-.2 0-.4.1-.6.2s-.3.3-.4.5-.1.5-.1.8c0 .5.1.8.3 1.1.3.3.6.4.9.4m5 .6c-.4 0-.8-.1-1.1-.2s-.5-.4-.7-.7-.3-.7-.3-1.1.1-.8.2-1.1c.2-.3.4-.6.7-.7.3-.2.6-.3 1-.3.3 0 .5 0 .7.1s.4.2.6.4q.3.3.3.6c.1.2.1.5.1.8 0 .1 0 .2-.1.2s-.1.1-.2.1h-2.8v-.5h2.6l-.1.1c0-.3 0-.5-.1-.7s-.2-.4-.4-.5-.4-.2-.6-.2c-.3 0-.5.1-.7.2s-.3.3-.4.5-.1.5-.1.8c0 .5.1.9.4 1.1.2.3.6.4 1 .4.2 0 .4 0 .5-.1.2 0 .4-.1.5-.2.1 0 .2-.1.2-.1.1 0 .1 0 .2.1l.1.1v.2c0 .1-.1.1-.2.2l-.6.3c-.3.1-.5.2-.7.2m3.9 0c-.2 0-.5 0-.7-.1s-.5-.2-.7-.3c-.1 0-.1-.1-.1-.1v-.2c0-.1 0-.1.1-.2l.1-.1h.2l.6.3c.2 0 .4.1.6.1.3 0 .5-.1.7-.2s.2-.3.2-.4c0-.2-.1-.3-.2-.4s-.3-.1-.5-.2l-.8-.2c-.3-.1-.6-.2-.8-.4s-.3-.4-.3-.7c0-.2.1-.5.2-.6.1-.2.3-.3.6-.4.2-.1.5-.1.8-.1.2 0 .5 0 .7.1l.6.3c.1 0 .1.1.1.1v.2c0 .1 0 .1-.1.1s-.1.1-.1.1h-.2c-.2-.1-.3-.2-.5-.2s-.3-.1-.5-.1c-.3 0-.5.1-.7.2s-.2.3-.2.5c0 .1 0 .3.1.4s.2.2.4.2l.8.2c.4.1.6.2.8.4s.3.4.3.7c0 .4-.1.7-.4.9-.3 0-.6.1-1.1.1m2.9-5c-.1 0-.3 0-.3-.1-.1-.1-.1-.2-.1-.3s0-.2.1-.3.2-.1.3-.1c.2 0 .3 0 .4.1s.1.2.1.3 0 .2-.1.3-.2.1-.4.1m0 4.9c-.1 0-.2 0-.3-.1s-.1-.2-.1-.3v-3.3c0-.1 0-.2.1-.3s.2-.1.3-.1.2 0 .3.1.1.2.1.3v3.3c0 .1 0 .2-.1.3s-.2.1-.3.1m2 0c-.1 0-.2 0-.3-.1s-.1-.2-.1-.3v-3.3c0-.1 0-.2.1-.3s.2-.1.3-.1.2 0 .3.1.1.2.1.3v.6h-.1c.1-.3.3-.6.5-.7s.5-.3.9-.3c.1 0 .2 0 .2.1.1 0 .1.1.1.2s0 .2-.1.2c-.1.1-.1.1-.3.1h-.1c-.4 0-.6.2-.8.4s-.3.5-.3.8v1.9c0 .1 0 .2-.1.3s-.2.1-.3.1m4.4.1c-.4 0-.8-.1-1.1-.2s-.5-.4-.7-.7-.3-.7-.3-1.1.1-.8.2-1.1c.2-.3.4-.6.7-.7.3-.2.6-.3 1-.3.3 0 .5 0 .7.1s.4.2.6.4q.3.3.3.6c.1.2.1.5.1.8 0 .1 0 .2-.1.2s-.1.1-.2.1h-2.8v-.5h2.6l-.1.1c0-.3 0-.5-.1-.7s-.2-.4-.4-.5-.4-.2-.6-.2c-.3 0-.5.1-.7.2s-.3.3-.4.5-.1.5-.1.8c0 .5.1.9.4 1.1.2.3.6.4 1 .4.2 0 .4 0 .5-.1.2 0 .4-.1.5-.2.1 0 .2-.1.2-.1.1 0 .1 0 .2.1l.1.1v.2c0 .1-.1.1-.2.2l-.6.3c-.3.1-.5.2-.7.2m4 0c-.3 0-.7-.1-.9-.2s-.5-.4-.6-.7-.2-.7-.2-1.1.1-.8.2-1.1.3-.5.6-.7.6-.2.9-.2.7.1.9.3c.3.2.4.4.5.7h-.1v-2.4c0-.1 0-.2.1-.3s.2-.1.3-.1.2 0 .3.1.1.2.1.3v5.1c0 .1 0 .2-.1.3s-.2.1-.3.1-.2 0-.3-.1-.1-.2-.1-.3v-.7l.1.1c-.1.3-.3.5-.5.7-.2.1-.5.2-.9.2m.2-.6c.2 0 .4-.1.6-.2s.3-.3.4-.5.1-.5.1-.8c0-.5-.1-.8-.3-1.1s-.5-.4-.9-.4c-.2 0-.4.1-.6.2s-.3.3-.4.5-.1.5-.1.8c0 .5.1.8.3 1.1s.5.4.9.4m6.6.6c-.2 0-.5 0-.7-.1s-.5-.2-.7-.3c-.1 0-.1-.1-.1-.1v-.2c0-.1 0-.1.1-.2l.1-.1h.2l.6.3c.2 0 .4.1.6.1.3 0 .5-.1.7-.2s.2-.3.2-.4c0-.2-.1-.3-.2-.4s-.3-.1-.5-.2l-.8-.2c-.3-.1-.6-.2-.8-.4s-.3-.4-.3-.7c0-.2.1-.5.2-.6.1-.2.3-.3.6-.4.2-.1.5-.1.8-.1.2 0 .5 0 .7.1l.6.3c.1 0 .1.1.1.1v.2c0 .1 0 .1-.1.1s-.1.1-.1.1h-.2c-.2-.1-.3-.2-.5-.2s-.3-.1-.5-.1c-.3 0-.5.1-.7.2s-.2.3-.2.5c0 .1 0 .3.1.4s.2.2.4.2l.8.2c.4.1.6.2.8.4s.3.4.3.7c0 .4-.1.7-.4.9-.2 0-.6.1-1.1.1m4.2 0c-.3 0-.6-.1-.8-.2s-.4-.3-.5-.5-.2-.5-.2-.8v-2h-.5c-.1 0-.2 0-.2-.1-.1-.1-.1-.1-.1-.2s0-.2.1-.2.1-.1.2-.1h.5v-.9c0-.1 0-.2.1-.3s.2-.1.3-.1.2 0 .3.1.1.2.1.3v.9h1c.1 0 .2 0 .2.1.1 0 .1.1.1.2s0 .2-.1.2c-.1.1-.1.1-.2.1h-1v1.9c0 .3.1.5.2.7s.3.2.6.2h.6s.1.1.1.2v.2c0 .1-.1.1-.1.1-.1 0-.2 0-.3.1-.2.1-.3.1-.4.1m2.5 0c-.3 0-.5-.1-.7-.2s-.4-.3-.5-.4c-.1-.2-.2-.4-.2-.6 0-.3.1-.5.2-.7s.4-.3.7-.4.8-.1 1.4-.1h.4v.5h-.4c-.4 0-.8 0-1 .1s-.4.1-.5.2-.1.2-.1.4.1.4.2.5.4.2.6.2.4-.1.5-.2c.2-.1.3-.2.4-.4s.1-.4.1-.6v-.9c0-.3-.1-.6-.2-.7s-.4-.2-.7-.2c-.2 0-.4 0-.6.1-.2 0-.4.1-.6.2-.1 0-.2.1-.2 0s-.1 0-.1-.1-.1-.1-.1-.2v-.2c0-.1.1-.1.2-.1.2-.1.5-.2.7-.3s.5-.1.7-.1c.4 0 .6.1.9.2s.4.3.5.5.2.5.2.9v2.2c0 .1 0 .2-.1.3s-.1.1-.3.1c-.1 0-.2 0-.3-.1s-.1-.2-.1-.3v-.6h.1c0 .2-.1.4-.2.5s-.3.3-.4.3-.3.2-.5.2m4.8 0c-.3 0-.6-.1-.8-.2s-.4-.3-.5-.5-.2-.5-.2-.8v-2h-.5c-.1 0-.2 0-.2-.1-.1-.1-.1-.1-.1-.2s0-.2.1-.2.1-.1.2-.1h.5v-.9c0-.1 0-.2.1-.3s.2-.1.3-.1.2 0 .3.1.1.2.1.3v.9h1c.1 0 .2 0 .2.1.1 0 .1.1.1.2s0 .2-.1.2c-.1.1-.1.1-.2.1h-1v1.9c0 .3.1.5.2.7s.3.2.6.2h.6s.1.1.1.2v.2c0 .1-.1.1-.1.1-.1 0-.2 0-.3.1-.3.1-.3.1-.4.1m3 0c-.4 0-.8-.1-1.1-.2s-.5-.4-.7-.7-.3-.7-.3-1.1.1-.8.2-1.1c.2-.3.4-.6.7-.7.3-.2.6-.3 1-.3.3 0 .5 0 .7.1s.4.2.6.4q.3.3.3.6c.1.2.1.5.1.8 0 .1 0 .2-.1.2s-.1.1-.2.1h-2.8v-.5h2.6l-.1.1c0-.3 0-.5-.1-.7s-.2-.4-.4-.5-.4-.2-.6-.2c-.3 0-.5.1-.7.2s-.3.3-.4.5-.1.5-.1.8c0 .5.1.9.4 1.1.2.3.6.4 1 .4.2 0 .4 0 .5-.1.2 0 .4-.1.5-.2.1 0 .2-.1.2-.1.1 0 .1 0 .2.1l.1.1v.2c0 .1-.1.1-.2.2l-.6.3c-.2.1-.4.2-.7.2"/><path fill="#3C356C" d="M603.8 117.5c-1.2 0-2.2-.2-3-.7s-1.4-1.1-1.9-1.9c-.4-.8-.6-1.9-.6-3 0-.9.1-1.7.4-2.4.2-.7.6-1.3 1.1-1.8s1-.9 1.7-1.1c.7-.3 1.4-.4 2.2-.4.6 0 1.3.1 1.9.3s1.2.5 1.7.8c.1.1.2.2.2.3v.4c0 .1-.1.2-.2.3s-.2.1-.3.2-.3 0-.4-.1c-.4-.3-.9-.5-1.3-.7-.5-.1-1-.2-1.5-.2-.8 0-1.5.2-2.1.5s-1 .8-1.3 1.5-.4 1.4-.4 2.4c0 1.4.3 2.5 1 3.3.7.7 1.7 1.1 3 1.1.5 0 1 0 1.4-.1.5-.1.9-.2 1.3-.4l-.3.8v-3.8h-2.1c-.2 0-.3-.1-.4-.2s-.2-.2-.2-.4.1-.3.2-.4.3-.1.4-.1h2.8c.2 0 .3.1.4.2s.2.3.2.5v4c0 .2 0 .3-.1.4l-.3.3c-.4.2-1 .3-1.6.4-.7-.1-1.3 0-1.9 0m6.9-9.6c-.3 0-.5-.1-.7-.2s-.2-.4-.2-.6c0-.3.1-.5.2-.6s.4-.2.7-.2.5.1.7.2.2.3.2.6-.1.5-.2.6-.4.2-.7.2m0 9.5c-.2 0-.4-.1-.5-.2s-.2-.3-.2-.6v-6.2c0-.3.1-.4.2-.6.1-.1.3-.2.5-.2s.4.1.5.2.2.3.2.6v6.2c0 .2-.1.4-.2.6-.1.1-.3.2-.5.2m6.1.1q-.9 0-1.5-.3c-.4-.2-.7-.5-.9-1s-.3-.9-.3-1.5v-3.9h-1c-.2 0-.3 0-.4-.1s-.2-.2-.2-.4.1-.3.2-.4.3-.1.4-.1h1V108c0-.2.1-.4.2-.5s.3-.2.5-.2.4.1.5.2.2.3.2.5v1.7h1.9c.2 0 .3 0 .5.1.1.1.2.2.2.4s-.1.3-.2.4-.3.1-.5.1h-1.9v3.7c0 .6.1 1 .4 1.3.2.3.6.4 1.2.4.2 0 .4 0 .5-.1s.3-.1.4-.1.2 0 .2.1c.1.1.1.2.1.4 0 .1 0 .3-.1.4 0 .1-.1.2-.3.2-.1 0-.3.1-.5.1-.2.4-.4.4-.6.4m7.4 0c-1 0-1.9-.2-2.7-.7s-1.4-1.1-1.8-2-.6-1.8-.6-3c0-.9.1-1.6.4-2.3.2-.7.6-1.3 1-1.8s1-.9 1.6-1.1c.6-.3 1.3-.4 2.1-.4 1 0 1.9.2 2.7.7s1.4 1.1 1.8 2q.6 1.2.6 3c0 .9-.1 1.6-.4 2.3-.2.7-.6 1.3-1 1.8s-1 .9-1.6 1.1-1.3.4-2.1.4m0-1.3c.8 0 1.4-.2 1.9-.5q.75-.45 1.2-1.5c.3-.7.4-1.4.4-2.4 0-1.4-.3-2.5-.9-3.2-.6-.8-1.5-1.1-2.7-1.1-.8 0-1.4.2-1.9.5q-.75.45-1.2 1.5c-.3.7-.4 1.4-.4 2.4 0 1.4.3 2.5.9 3.2.7.7 1.5 1.1 2.7 1.1m7.8 4.1c-.2 0-.4-.1-.5-.2s-.2-.3-.2-.5v-9.2c0-.2.1-.4.2-.5s.3-.2.5-.2.4.1.5.2.2.3.2.5v1.4l-.2-.3c.2-.6.5-1 1-1.4.5-.3 1.1-.5 1.8-.5s1.3.2 1.8.5.9.8 1.2 1.4.4 1.3.4 2.1-.1 1.5-.4 2.1-.7 1.1-1.2 1.4-1.1.5-1.8.5-1.3-.2-1.8-.5-.8-.8-1-1.4h.2v3.9c0 .2-.1.4-.2.5 0 .1-.2.2-.5.2m3-4q.6 0 1.2-.3c.3-.2.6-.5.8-1s.3-.9.3-1.5q0-1.35-.6-2.1c-.4-.5-1-.7-1.6-.7q-.75 0-1.2.3c-.3.2-.6.5-.8.9q-.3.6-.3 1.5 0 1.35.6 2.1c.4.6.9.8 1.6.8m8.2 1.2c-.5 0-.9-.1-1.4-.2s-.9-.3-1.3-.6c-.1-.1-.2-.2-.2-.3s-.1-.2 0-.3c0-.1.1-.2.1-.3.1-.1.2-.1.3-.1s.2 0 .4.1c.4.2.8.4 1.2.5s.8.1 1.1.1c.6 0 1-.1 1.3-.3s.4-.5.4-.8-.1-.5-.3-.7-.5-.3-.9-.4l-1.5-.3c-.6-.1-1.1-.4-1.5-.7-.3-.3-.5-.8-.5-1.3s.1-.9.4-1.2.6-.6 1.1-.8 1-.3 1.6-.3c.5 0 .9.1 1.3.2s.8.3 1.1.5c.1.1.2.2.2.3v.3c0 .1-.1.2-.1.3-.1.1-.2.1-.3.1s-.2 0-.4-.1c-.3-.2-.6-.4-.9-.4s-.6-.1-.9-.1c-.6 0-1 .1-1.3.3s-.4.5-.4.9c0 .3.1.5.3.7s.4.3.8.4l1.5.3c.7.1 1.2.4 1.5.7s.5.7.5 1.3c0 .7-.3 1.3-.8 1.7-.8.3-1.5.5-2.4.5m14 0c-1.1 0-2-.2-2.8-.7s-1.4-1.1-1.8-2q-.6-1.35-.6-3c0-.9.1-1.6.4-2.3.2-.7.6-1.3 1-1.8s1-.9 1.7-1.1c.7-.3 1.4-.4 2.2-.4q.9 0 1.8.3c.6.2 1.1.4 1.5.8.2.1.3.2.3.4s.1.3 0 .4c0 .1-.1.2-.2.3s-.2.1-.4.1c-.1 0-.3 0-.5-.2q-.6-.45-1.2-.6c-.4-.1-.9-.2-1.4-.2-.8 0-1.5.2-2 .5-.6.3-1 .8-1.3 1.5-.3.6-.4 1.4-.4 2.4 0 .9.1 1.7.4 2.4s.7 1.1 1.3 1.5c.6.3 1.2.5 2 .5.5 0 1-.1 1.4-.2s.9-.3 1.2-.6c.2-.1.3-.2.5-.2.1 0 .3.1.4.1.1.1.2.2.2.3v.4c0 .1-.1.3-.3.4-.4.4-.9.6-1.5.8-.6.1-1.2.2-1.9.2m6.5-.2c-.3 0-.4-.1-.6-.2-.1-.1-.2-.3-.2-.6V107c0-.3.1-.4.2-.6.1-.1.3-.2.6-.2h3c1.8 0 3.2.5 4.2 1.4s1.5 2.3 1.5 4.1c0 .9-.1 1.7-.4 2.4s-.6 1.3-1.1 1.7-1.1.8-1.8 1.1c-.7.2-1.5.4-2.4.4zm.7-1.2h2.3q1.05 0 1.8-.3c.5-.2 1-.4 1.3-.8s.6-.8.8-1.3.3-1.2.3-1.9c0-1.4-.4-2.5-1.1-3.2s-1.8-1.1-3.2-1.1h-2.3v8.6zm-438.6 63.3c-.1 0-.2 0-.3-.1s-.1-.2-.1-.3v-3.1h-.4c-.1 0-.2 0-.2-.1-.1-.1-.1-.1-.1-.2s0-.2.1-.2.1-.1.2-.1h.7l-.2.2v-.3c0-.5.1-.9.4-1.2s.6-.4 1.1-.5h.5l.1.1v.2c0 .1 0 .1-.1.2l-.1.1h-.2c-.3 0-.6.1-.7.3s-.2.4-.2.7v.3l-.1-.1h.9c.1 0 .2 0 .2.1.1 0 .1.1.1.2s0 .2-.1.2c-.1.1-.1.1-.2.1h-.8v3.1c-.1.2-.2.4-.5.4m3.4 0c-.3 0-.5-.1-.7-.2s-.4-.3-.5-.4c-.1-.2-.2-.4-.2-.6 0-.3.1-.5.2-.7s.4-.3.7-.4.8-.1 1.4-.1h.4v.5h-.4c-.4 0-.8 0-1 .1s-.4.1-.5.2-.1.2-.1.4.1.4.2.5.4.2.6.2.4-.1.5-.2c.2-.1.3-.2.4-.4s.1-.4.1-.6v-.9c0-.3-.1-.6-.2-.7s-.4-.2-.7-.2c-.2 0-.4 0-.6.1-.2 0-.4.1-.6.2-.1 0-.2.1-.2 0s-.1 0-.1-.1-.1-.1-.1-.2v-.2c0-.1.1-.1.2-.1.2-.1.5-.2.7-.3s.5-.1.7-.1c.4 0 .6.1.9.2s.4.3.5.5.2.5.2.9v2.2c0 .1 0 .2-.1.3s-.1.1-.3.1c-.1 0-.2 0-.3-.1s-.1-.2-.1-.3v-.6h.1c0 .2-.1.4-.2.5s-.3.3-.4.3-.3.2-.5.2m3.5-5c-.1 0-.3 0-.3-.1-.1-.1-.1-.2-.1-.3s0-.2.1-.3.2-.1.3-.1c.2 0 .3 0 .4.1s.1.2.1.3 0 .2-.1.3-.3.1-.4.1m0 4.9c-.1 0-.2 0-.3-.1s-.1-.2-.1-.3v-3.3c0-.1 0-.2.1-.3s.2-.1.3-.1.2 0 .3.1.1.2.1.3v3.3c0 .1 0 .2-.1.3s-.2.1-.3.1m2.8.1c-.4 0-.7-.1-.9-.4-.2-.2-.3-.6-.3-1.1v-4.1c0-.1 0-.2.1-.3s.2-.1.3-.1.2 0 .3.1.1.2.1.3v4c0 .3.1.5.2.6s.3.2.5.2h.3v.2c0 .1 0 .2-.1.2s-.1.1-.2.1h-.1c-.1.3-.1.3-.2.3M6.7 177.5c-.4 0-.8-.1-1.1-.2s-.5-.4-.7-.7-.3-.7-.3-1.1.1-.8.2-1.1c.2-.3.4-.6.7-.7.3-.2.6-.3 1-.3.3 0 .5 0 .7.1s.4.2.6.4q.3.3.3.6c.1.2.1.5.1.8 0 .1 0 .2-.1.2s-.1.1-.2.1H5.2v-.5h2.6l-.1.1c0-.3 0-.5-.1-.7s-.2-.4-.4-.5-.4-.2-.6-.2c-.3 0-.5.1-.7.2s-.3.3-.4.5-.1.5-.1.8c0 .5.1.9.4 1.1.2.3.6.4 1 .4.2 0 .4 0 .5-.1.2 0 .4-.1.5-.2.1 0 .2-.1.2-.1.1 0 .1 0 .2.1l.1.1v.2c0 .1-.1.1-.2.2l-.6.3c-.3.1-.6.2-.8.2m2.9 0c-.1 0-.2 0-.3-.1s-.1-.2-.1-.3v-3.3c0-.1 0-.2.1-.3s.2-.1.3-.1.2 0 .3.1.1.2.1.3v.7l-.1-.1c.1-.3.3-.5.6-.7s.6-.2.9-.2.6.1.8.2.4.3.5.5.2.5.2.9v2.1c0 .1 0 .2-.1.3s-.2.1-.3.1-.2 0-.3-.1-.1-.2-.1-.3V175c0-.4-.1-.6-.2-.8s-.4-.2-.7-.2-.6.1-.8.3q-.3.3-.3.9v1.9c-.1.2-.3.4-.5.4m5.8 0c-.1 0-.2 0-.3-.1s-.1-.1-.2-.3l-1.4-3.2c0-.1-.1-.2 0-.3 0-.1 0-.1.1-.2.1 0 .1-.1.3-.1.1 0 .2 0 .2.1.1 0 .1.1.2.2l1.3 3.2h-.2l1.3-3.2c0-.1.1-.2.2-.2s.1-.1.2-.1.2 0 .2.1c.1 0 .1.1.1.2v.2L16 177c0 .1-.1.2-.2.3-.2.1-.3.2-.4.2m3.1-5c-.1 0-.3 0-.3-.1-.1-.1-.1-.2-.1-.3s0-.2.1-.3.2-.1.3-.1c.2 0 .3 0 .4.1s.1.2.1.3 0 .2-.1.3-.3.1-.4.1m0 4.9c-.1 0-.2 0-.3-.1s-.1-.2-.1-.3v-3.3c0-.1 0-.2.1-.3s.2-.1.3-.1.2 0 .3.1.1.2.1.3v3.3c0 .1 0 .2-.1.3s-.2.1-.3.1m1.9.1c-.1 0-.2 0-.3-.1s-.1-.2-.1-.3v-3.3c0-.1 0-.2.1-.3s.2-.1.3-.1.2 0 .3.1.1.2.1.3v.6h-.1c.1-.3.3-.6.5-.7s.5-.3.9-.3c.1 0 .2 0 .2.1.1 0 .1.1.1.2s0 .2-.1.2c-.1.1-.1.1-.3.1h-.1c-.4 0-.6.2-.8.4s-.3.5-.3.8v1.9c0 .1 0 .2-.1.3-.1 0-.2.1-.3.1m4.2 0c-.4 0-.7-.1-1-.3s-.5-.4-.7-.7-.2-.7-.2-1.1c0-.3 0-.6.1-.9s.2-.5.4-.6c.2-.2.4-.3.6-.4s.5-.1.8-.1c.4 0 .7.1 1 .3s.5.4.7.7.2.7.2 1.1c0 .3 0 .6-.1.9s-.2.5-.4.7-.4.3-.6.4c-.2-.1-.5 0-.8 0m0-.6c.2 0 .4-.1.6-.2s.3-.3.4-.5.1-.5.1-.8c0-.5-.1-.8-.3-1.1s-.5-.4-.9-.4c-.2 0-.4.1-.6.2s-.3.3-.4.5-.1.5-.1.8c0 .5.1.8.3 1.1.3.3.6.4.9.4m3.3.6c-.1 0-.2 0-.3-.1s-.1-.2-.1-.3v-3.3c0-.1 0-.2.1-.3s.2-.1.3-.1.2 0 .3.1.1.2.1.3v.7l-.1-.1c.1-.3.3-.5.6-.7s.6-.2.9-.2.6.1.8.2.4.3.5.5.2.5.2.9v2.1c0 .1 0 .2-.1.3s-.2.1-.3.1-.2 0-.3-.1-.1-.2-.1-.3V175c0-.4-.1-.6-.2-.8s-.4-.2-.7-.2-.6.1-.8.3q-.3.3-.3.9v1.9c-.1.2-.2.4-.5.4m4.7 0c-.1 0-.2 0-.3-.1s-.1-.2-.1-.3v-3.3c0-.1 0-.2.1-.3s.2-.1.3-.1.2 0 .3.1.1.2.1.3v.7l-.1-.1c.1-.3.3-.5.5-.7s.5-.2.8-.2.6.1.8.2c.2.2.3.4.4.7h-.1c.1-.3.3-.5.5-.7.3-.2.5-.3.9-.3.3 0 .5.1.7.2s.3.3.4.5.1.5.1.9v2.1c0 .1 0 .2-.1.3s-.2.1-.3.1-.2 0-.3-.1-.1-.2-.1-.3V175c0-.3-.1-.6-.2-.8s-.3-.2-.6-.2-.6.1-.7.3-.3.5-.3.9v1.9c0 .1 0 .2-.1.3s-.2.1-.3.1-.2 0-.3-.1-.1-.2-.1-.3V175c0-.3-.1-.6-.2-.8s-.3-.2-.6-.2-.6.1-.7.3-.3.5-.3.9v1.9c.3.2.1.4-.1.4m8.5 0c-.4 0-.8-.1-1.1-.2s-.5-.4-.7-.7-.3-.7-.3-1.1.1-.8.2-1.1c.2-.3.4-.6.7-.7.3-.2.6-.3 1-.3.3 0 .5 0 .7.1s.4.2.6.4q.3.3.3.6c.1.2.1.5.1.8 0 .1 0 .2-.1.2s-.1.1-.2.1h-2.8v-.5h2.6l-.1.1c0-.3 0-.5-.1-.7s-.2-.4-.4-.5-.4-.2-.6-.2c-.3 0-.5.1-.7.2s-.3.3-.4.5-.1.5-.1.8c0 .5.1.9.4 1.1.2.3.6.4 1 .4.2 0 .4 0 .5-.1.2 0 .4-.1.5-.2.1 0 .2-.1.2-.1.1 0 .1 0 .2.1l.1.1v.2c0 .1-.1.1-.2.2l-.6.3c-.2.1-.5.2-.7.2m2.9 0c-.1 0-.2 0-.3-.1s-.1-.2-.1-.3v-3.3c0-.1 0-.2.1-.3s.2-.1.3-.1.2 0 .3.1.1.2.1.3v.7l-.1-.1c.1-.3.3-.5.6-.7s.6-.2.9-.2.6.1.8.2.4.3.5.5.2.5.2.9v2.1c0 .1 0 .2-.1.3s-.2.1-.3.1-.2 0-.3-.1-.1-.2-.1-.3V175c0-.4-.1-.6-.2-.8s-.4-.2-.7-.2-.6.1-.8.3q-.3.3-.3.9v1.9c-.1.2-.3.4-.5.4m6 0c-.3 0-.6-.1-.8-.2s-.4-.3-.5-.5-.2-.5-.2-.8v-2H48c-.1 0-.2 0-.2-.1-.1-.1-.1-.1-.1-.2s0-.2.1-.2.1-.1.2-.1h.5v-.9c0-.1 0-.2.1-.3s.2-.1.3-.1.2 0 .3.1.1.2.1.3v.9h1c.1 0 .2 0 .2.1.1 0 .1.1.1.2s0 .2-.1.2c-.1.1-.1.1-.2.1h-1v1.9c0 .3.1.5.2.7s.3.2.6.2h.6s.1.1.1.2v.2c0 .1-.1.1-.1.1-.1 0-.2 0-.3.1-.3.1-.4.1-.4.1m-36.5 11.2c-.1 0-.2 0-.3-.1s-.1-.2-.1-.3v-4.8c0-.1 0-.2.1-.3s.2-.1.3-.1.2 0 .3.1.1.2.1.3v.7l-.1-.1c.1-.3.3-.5.5-.7q.45-.3.9-.3c.4 0 .7.1.9.2.3.2.5.4.6.7s.2.7.2 1.1-.1.8-.2 1.1-.3.6-.6.7c-.3.2-.6.2-.9.2s-.7-.1-.9-.3c-.3-.2-.4-.4-.5-.7h.1v2.1c0 .1 0 .2-.1.3s-.2.2-.3.2m1.6-2c.2 0 .4-.1.6-.2s.3-.3.4-.5.1-.5.1-.8c0-.5-.1-.8-.3-1.1s-.5-.4-.9-.4c-.2 0-.4.1-.6.2s-.3.3-.4.5-.1.5-.1.8c0 .5.1.8.3 1.1s.5.4.9.4m3.2.6c-.1 0-.2 0-.3-.1s-.1-.2-.1-.3v-3.3c0-.1 0-.2.1-.3s.2-.1.3-.1.2 0 .3.1.1.2.1.3v.6h-.1c.1-.3.3-.6.5-.7s.5-.3.9-.3c.1 0 .2 0 .2.1.1 0 .1.1.1.2s0 .2-.1.2c-.1.1-.1.1-.3.1h-.1c-.4 0-.6.2-.8.4s-.3.5-.3.8v1.9c0 .1 0 .2-.1.3-.1 0-.1.1-.3.1m4.3 0c-.4 0-.7-.1-1-.3s-.5-.4-.7-.7-.2-.7-.2-1.1c0-.3 0-.6.1-.9s.2-.5.4-.6c.2-.2.4-.3.6-.4s.5-.1.8-.1c.4 0 .7.1 1 .3s.5.4.7.7.2.7.2 1.1c0 .3 0 .6-.1.9s-.2.5-.4.7-.4.3-.6.4c-.3-.1-.5 0-.8 0m0-.6c.2 0 .4-.1.6-.2s.3-.3.4-.5.1-.5.1-.8c0-.5-.1-.8-.3-1.1s-.5-.4-.9-.4c-.2 0-.4.1-.6.2s-.3.3-.4.5-.1.5-.1.8c0 .5.1.8.3 1.1s.5.4.9.4m3.2.6c-.1 0-.2 0-.3-.1s-.1-.2-.1-.3v-3.3c0-.1 0-.2.1-.3s.2-.1.3-.1.2 0 .3.1.1.2.1.3v.7l-.1-.1c.1-.3.3-.5.5-.7s.5-.2.8-.2.6.1.8.2c.2.2.3.4.4.7h-.1c.1-.3.3-.5.5-.7.3-.2.5-.3.9-.3.3 0 .5.1.7.2s.3.3.4.5.1.5.1.9v2.1c0 .1 0 .2-.1.3s-.2.1-.3.1-.2 0-.3-.1-.1-.2-.1-.3v-2.1c0-.3-.1-.6-.2-.8s-.3-.2-.6-.2-.6.1-.7.3-.3.5-.3.9v1.9c0 .1 0 .2-.1.3s-.2.1-.3.1-.2 0-.3-.1.2-.2.2-.3v-2.1c0-.3-.1-.6-.2-.8s-.3-.2-.6-.2-.6.1-.7.3-.3.5-.3.9v1.9c0 .2-.1.4-.4.4m8.4 0c-.4 0-.7-.1-1-.3s-.5-.4-.7-.7-.2-.7-.2-1.1c0-.3 0-.6.1-.9s.2-.5.4-.6c.2-.2.4-.3.6-.4s.5-.1.8-.1c.4 0 .7.1 1 .3s.5.4.7.7.2.7.2 1.1c0 .3 0 .6-.1.9s-.2.5-.4.7-.4.3-.6.4c-.2-.1-.5 0-.8 0m0-.6c.2 0 .4-.1.6-.2s.3-.3.4-.5.1-.5.1-.8c0-.5-.1-.8-.3-1.1s-.5-.4-.9-.4c-.2 0-.4.1-.6.2s-.3.3-.4.5-.1.5-.1.8c0 .5.1.8.3 1.1.3.3.5.4.9.4m4.5.6c-.3 0-.6-.1-.8-.2s-.4-.3-.5-.5-.2-.5-.2-.8v-2h-.5c-.1 0-.2 0-.2-.1-.1-.1-.1-.1-.1-.2s0-.2.1-.2.1-.1.2-.1h.5v-.9c0-.1 0-.2.1-.3s.2-.1.3-.1.2 0 .3.1.1.2.1.3v.9h1c.1 0 .2 0 .2.1.1 0 .1.1.1.2s0 .2-.1.2c-.1.1-.1.1-.2.1h-1v1.9c0 .3.1.5.2.7s.3.2.6.2h.6s.1.1.1.2v.2c0 .1-.1.1-.1.1-.1 0-.2 0-.3.1-.2.1-.3.1-.4.1m1.7-5c-.1 0-.3 0-.3-.1-.1-.1-.1-.2-.1-.3s0-.2.1-.3.2-.1.3-.1c.2 0 .3 0 .4.1s.1.2.1.3 0 .2-.1.3-.2.1-.4.1m0 5c-.1 0-.2 0-.3-.1s-.1-.2-.1-.3v-3.3c0-.1 0-.2.1-.3s.2-.1.3-.1.2 0 .3.1.1.2.1.3v3.3c0 .1 0 .2-.1.3-.1 0-.2.1-.3.1m3.3 0c-.4 0-.7-.1-1-.3s-.5-.4-.7-.7-.2-.7-.2-1.1c0-.3 0-.6.1-.9s.2-.5.4-.6c.2-.2.4-.3.6-.4s.5-.1.8-.1c.4 0 .7.1 1 .3s.5.4.7.7.2.7.2 1.1c0 .3 0 .6-.1.9s-.2.5-.4.7-.4.3-.6.4c-.3-.1-.5 0-.8 0m0-.6c.2 0 .4-.1.6-.2s.3-.3.4-.5.1-.5.1-.8c0-.5-.1-.8-.3-1.1s-.5-.4-.9-.4c-.2 0-.4.1-.6.2s-.3.3-.4.5-.1.5-.1.8c0 .5.1.8.3 1.1s.5.4.9.4m3.2.6c-.1 0-.2 0-.3-.1s-.1-.2-.1-.3v-3.3c0-.1 0-.2.1-.3s.2-.1.3-.1.2 0 .3.1.1.2.1.3v.7l-.1-.1c.1-.3.3-.5.6-.7s.6-.2.9-.2.6.1.8.2.4.3.5.5.2.5.2.9v2.1c0 .1 0 .2-.1.3s-.2.1-.3.1-.2 0-.3-.1-.1-.2-.1-.3v-2.1c0-.4-.1-.6-.2-.8s-.4-.2-.7-.2-.6.1-.8.3q-.3.3-.3.9v1.9c-.1.1-.2.3-.5.3m341.5-61.2c-.1 0-.2 0-.3-.1s-.1-.2-.1-.3v-4.8c0-.1 0-.2.1-.3s.2-.1.3-.1.2 0 .3.1.1.2.1.3v.7l-.1-.1c.1-.3.3-.5.5-.7q.45-.3.9-.3c.4 0 .7.1.9.2.3.2.5.4.6.7s.2.7.2 1.1-.1.8-.2 1.1-.3.6-.6.7c-.3.2-.6.2-.9.2s-.7-.1-.9-.3c-.3-.2-.4-.4-.5-.7h.1v2.1c0 .1 0 .2-.1.3s-.2.2-.3.2m1.6-2.1c.2 0 .4-.1.6-.2s.3-.3.4-.5.1-.5.1-.8c0-.5-.1-.8-.3-1.1s-.5-.4-.9-.4c-.2 0-.4.1-.6.2s-.3.3-.4.5-.1.5-.1.8c0 .5.1.8.3 1.1s.5.4.9.4m4.3.6c-.3 0-.6-.1-.8-.2s-.4-.3-.5-.5-.2-.5-.2-.9v-2.1c0-.1 0-.2.1-.3s.2-.1.3-.1.2 0 .3.1.1.2.1.3v2.1c0 .3.1.6.2.7.1.2.4.2.6.2.3 0 .6-.1.8-.3q.3-.3.3-.9v-1.9c0-.1 0-.2.1-.3s.2-.1.3-.1.2 0 .3.1.1.2.1.3v3.3c0 .3-.1.4-.4.4-.1 0-.2 0-.3-.1s-.1-.2-.1-.3v-.7l.1.1c-.1.3-.3.6-.5.7s-.5.4-.8.4m4.5 0c-.2 0-.5 0-.7-.1s-.5-.2-.7-.3c-.1 0-.1-.1-.1-.1v-.2c0-.1 0-.1.1-.2l.1-.1h.2l.6.3c.2 0 .4.1.6.1.3 0 .5-.1.7-.2s.2-.3.2-.4c0-.2-.1-.3-.2-.4s-.3-.1-.5-.2l-.8-.2c-.3-.1-.6-.2-.8-.4s-.3-.4-.3-.7c0-.2.1-.5.2-.6.1-.2.3-.3.6-.4.2-.1.5-.1.8-.1.2 0 .5 0 .7.1l.6.3c.1 0 .1.1.1.1v.2c0 .1 0 .1-.1.1s-.1.1-.1.1h-.2c-.2-.1-.3-.2-.5-.2s-.3-.1-.5-.1c-.3 0-.5.1-.7.2s-.2.3-.2.5c0 .1 0 .3.1.4s.2.2.4.2l.8.2c.4.1.6.2.8.4s.3.4.3.7c0 .4-.1.7-.4.9-.2 0-.6.1-1.1.1m3 0c-.1 0-.2 0-.3-.1s-.1-.2-.1-.3v-5.1c0-.1 0-.2.1-.3s.2-.1.3-.1.2 0 .3.1.1.2.1.3v2.3h-.1c.1-.3.3-.5.6-.7s.6-.2.9-.2.6.1.8.2.4.3.5.5.2.5.2.9v2.1c0 .1 0 .2-.1.3s-.2.1-.3.1-.2 0-.3-.1-.1-.2-.1-.3v-2.1c0-.4-.1-.6-.2-.8s-.4-.2-.7-.2-.6.1-.8.3q-.3.3-.3.9v1.9c-.1.3-.3.4-.5.4m78.4 1.5c-.1 0-.2 0-.3-.1s-.1-.2-.1-.3v-4.8c0-.1 0-.2.1-.3s.2-.1.3-.1.2 0 .3.1.1.2.1.3v.7l-.1-.1c.1-.3.3-.5.5-.7q.45-.3.9-.3c.4 0 .7.1.9.2.3.2.5.4.6.7s.2.7.2 1.1-.1.8-.2 1.1-.3.6-.6.7c-.3.2-.6.2-.9.2s-.7-.1-.9-.3c-.3-.2-.4-.4-.5-.7h.1v2.1c0 .1 0 .2-.1.3s-.2.2-.3.2m1.5-2.1c.2 0 .4-.1.6-.2s.3-.3.4-.5.1-.5.1-.8c0-.5-.1-.8-.3-1.1s-.5-.4-.9-.4c-.2 0-.4.1-.6.2s-.3.3-.4.5-.1.5-.1.8c0 .5.1.8.3 1.1.3.3.6.4.9.4m4.3.6c-.3 0-.6-.1-.8-.2s-.4-.3-.5-.5-.2-.5-.2-.9v-2.1c0-.1 0-.2.1-.3s.2-.1.3-.1.2 0 .3.1.1.2.1.3v2.1c0 .3.1.6.2.7.1.2.4.2.6.2.3 0 .6-.1.8-.3q.3-.3.3-.9v-1.9c0-.1 0-.2.1-.3s.2-.1.3-.1.2 0 .3.1.1.2.1.3v3.3c0 .3-.1.4-.4.4-.1 0-.2 0-.3-.1s-.1-.2-.1-.3v-.7l.1.1c-.1.3-.3.6-.5.7s-.5.4-.8.4m4.5 0c-.4 0-.7-.1-.9-.4-.2-.2-.3-.6-.3-1.1V119c0-.1 0-.2.1-.3s.2-.1.3-.1.2 0 .3.1.1.2.1.3v4c0 .3.1.5.2.6s.3.2.5.2h.3v.2c0 .1 0 .2-.1.2s-.1.1-.2.1h-.1c-.1.3-.2.3-.2.3m2.4 0c-.4 0-.7-.1-.9-.4-.2-.2-.3-.6-.3-1.1V119c0-.1 0-.2.1-.3s.2-.1.3-.1.2 0 .3.1.1.2.1.3v4c0 .3.1.5.2.6s.3.2.5.2h.3v.2c0 .1 0 .2-.1.2s-.1.1-.2.1h-.1c-.1.3-.1.3-.2.3m181.3-74.8v14.4c0 3.4-2.7 6.1-6.1 6.1h-65.5c-3.4 0-6.1-2.7-6.1-6.1V49.8c0-3.4 2.7-6.1 6.1-6.1h65.5c3.4 0 6.1 2.8 6.1 6.1"/><path fill="#fff" d="M622.5 50.3c-.1 0-.3 0-.3-.1-.1-.1-.1-.2-.1-.3s0-.2.1-.3.2-.1.3-.1c.2 0 .3 0 .4.1s.1.2.1.3 0 .2-.1.3-.3.1-.4.1m0 5c-.1 0-.2 0-.3-.1s-.1-.2-.1-.3v-3.3c0-.1 0-.2.1-.3s.2-.1.3-.1.2 0 .3.1.1.2.1.3v3.3c0 .1 0 .2-.1.3-.1 0-.2.1-.3.1m3.1 0c-.3 0-.7-.1-.9-.2s-.5-.4-.6-.7-.2-.7-.2-1.1.1-.8.2-1.1.3-.5.6-.7.6-.2.9-.2.7.1.9.3c.3.2.4.4.5.7h-.1v-2.4c0-.1 0-.2.1-.3s.2-.1.3-.1.2 0 .3.1.1.2.1.3V55c0 .1 0 .2-.1.3s-.2.1-.3.1-.2 0-.3-.1-.1-.2-.1-.3v-.7l.1.1c-.1.3-.3.5-.5.7-.3.1-.6.2-.9.2m.1-.6c.2 0 .4-.1.6-.2s.3-.3.4-.5.1-.5.1-.8c0-.5-.1-.8-.3-1.1s-.5-.4-.9-.4c-.2 0-.4.1-.6.2s-.3.3-.4.5-.1.5-.1.8c0 .5.1.8.3 1.1.3.3.6.4.9.4m5 .6c-.4 0-.8-.1-1.1-.2s-.5-.4-.7-.7-.3-.7-.3-1.1.1-.8.2-1.1c.2-.3.4-.6.7-.7.3-.2.6-.3 1-.3.3 0 .5 0 .7.1s.4.2.6.4q.3.3.3.6c.1.2.1.5.1.8 0 .1 0 .2-.1.2s-.1.1-.2.1h-2.8v-.5h2.6l-.1.1c0-.3 0-.5-.1-.7s-.2-.4-.4-.5-.4-.2-.6-.2c-.3 0-.5.1-.7.2s-.3.3-.4.5-.1.5-.1.8c0 .5.1.9.4 1.1.2.3.6.4 1 .4.2 0 .4 0 .5-.1.2 0 .4-.1.5-.2.1 0 .2-.1.2-.1.1 0 .1 0 .2.1l.1.1v.2c0 .1-.1.1-.2.2l-.6.3c-.2.2-.5.2-.7.2m2.9 0c-.1 0-.2 0-.3-.1s-.1-.2-.1-.3v-3.3c0-.1 0-.2.1-.3s.2-.1.3-.1.2 0 .3.1.1.2.1.3v.7l-.1-.1c.1-.3.3-.5.6-.7s.6-.2.9-.2.6.1.8.2.4.3.5.5.2.5.2.9V55c0 .1 0 .2-.1.3s-.2.1-.3.1-.2 0-.3-.1-.2-.3-.2-.4v-2.1c0-.4-.1-.6-.2-.8s-.4-.2-.7-.2-.6.1-.8.3q-.3.3-.3.9v1.9c0 .2-.2.4-.4.4m5.9 0c-.3 0-.6-.1-.8-.2s-.4-.3-.5-.5-.2-.5-.2-.8v-2h-.5c-.1 0-.2 0-.2-.1-.1-.1-.1-.1-.1-.2s0-.2.1-.2.1-.1.2-.1h.5v-.9c0-.1 0-.2.1-.3s.2-.1.3-.1.2 0 .3.1.1.2.1.3v.9h1c.1 0 .2 0 .2.1.1 0 .1.1.1.2s0 .2-.1.2c-.1.1-.1.1-.2.1h-1v1.9c0 .3.1.5.2.7s.3.2.6.2h.6s.1.1.1.2v.2c0 .1-.1.1-.1.1-.1 0-.2 0-.3.1-.2.1-.3.1-.4.1m1.8-5c-.1 0-.3 0-.3-.1-.1-.1-.1-.2-.1-.3s0-.2.1-.3.2-.1.3-.1c.2 0 .3 0 .4.1s.1.2.1.3 0 .2-.1.3-.3.1-.4.1m0 5c-.1 0-.2 0-.3-.1s-.1-.2-.1-.3v-3.3c0-.1 0-.2.1-.3s.2-.1.3-.1.2 0 .3.1.1.2.1.3v3.3c0 .1 0 .2-.1.3-.1 0-.2.1-.3.1m2.1 0c-.1 0-.2 0-.3-.1s-.1-.2-.1-.3v-3.1h-.5c-.1 0-.2 0-.2-.1-.1-.1-.1-.1-.1-.2s0-.2.1-.2.1-.1.2-.1h.7l-.2.2v-.3c0-.5.1-.9.4-1.2s.6-.4 1.1-.5h.5l.1.1v.2c0 .1 0 .1-.1.2l-.1.1h-.2c-.3 0-.6.1-.7.3s-.2.4-.2.7v.3l-.1-.1h.9c.1 0 .2 0 .2.1.1 0 .1.1.1.2s0 .2-.1.2c-.1.1-.1.1-.2.1h-.8v3.1c0 .2-.1.4-.4.4m3.1 1.4c-.1 0-.2 0-.2-.1s-.1-.1-.1-.2v-.2l.6-1.3v.3l-1.5-3.6c0-.1-.1-.2 0-.3 0-.1 0-.1.1-.2.1 0 .1-.1.3-.1.1 0 .2 0 .2.1.1 0 .1.1.2.2l1.3 3.2h-.4l1.3-3.2c0-.1.1-.2.2-.2s.1-.1.2-.1.2 0 .2.1c.1 0 .1.1.1.2v.2l-2.1 4.8c-.1.1-.1.2-.2.2s-.1.2-.2.2m-29.1 6.4c-.3 0-.7-.1-.9-.2s-.5-.4-.6-.7-.2-.7-.2-1.1.1-.8.2-1.1.3-.5.6-.7.6-.2.9-.2.7.1.9.3c.3.2.4.4.5.7h-.1v-2.4c0-.1 0-.2.1-.3s.2-.1.3-.1.2 0 .3.1.1.2.1.3v5.1c0 .1 0 .2-.1.3s-.2.1-.3.1-.2 0-.3-.1-.1-.2-.1-.3V62l.1.1c-.1.3-.3.5-.5.7q-.45.3-.9.3m.1-.6c.2 0 .4-.1.6-.2s.3-.3.4-.5.1-.5.1-.8c0-.5-.1-.8-.3-1.1s-.5-.4-.9-.4c-.2 0-.4.1-.6.2s-.3.3-.4.5-.1.5-.1.8c0 .5.1.8.3 1.1.3.3.6.4.9.4m3.5-4.4c-.1 0-.3 0-.3-.1-.1-.1-.1-.2-.1-.3s0-.2.1-.3.2-.1.3-.1c.2 0 .3 0 .4.1s.1.2.1.3 0 .2-.1.3-.2.1-.4.1m0 5c-.1 0-.2 0-.3-.1s-.1-.2-.1-.3v-3.3c0-.1 0-.2.1-.3s.2-.1.3-.1.2 0 .3.1.1.2.1.3v3.3c0 .1 0 .2-.1.3-.1 0-.2.1-.3.1m3.1 0c-.1 0-.2 0-.3-.1s-.1-.1-.2-.3l-1.4-3.2c0-.1-.1-.2 0-.3 0-.1 0-.1.1-.2.1 0 .1-.1.3-.1.1 0 .2 0 .2.1.1 0 .1.1.2.2l1.3 3.2h-.3l1.3-3.2c0-.1.1-.2.2-.2s.1-.1.2-.1.2 0 .2.1c.1 0 .1.1.1.2v.2l-1.4 3.2c0 .1-.1.2-.2.3-.1.2-.2.2-.3.2m4.5 0c-.4 0-.8-.1-1.1-.2s-.5-.4-.7-.7-.3-.7-.3-1.1.1-.8.2-1.1c.2-.3.4-.6.7-.7.3-.2.6-.3 1-.3.3 0 .5 0 .7.1s.4.2.6.4q.3.3.3.6c.1.2.1.5.1.8 0 .1 0 .2-.1.2s-.1.1-.2.1H627v-.5h2.6l-.1.1c0-.3 0-.5-.1-.7s-.2-.4-.4-.5-.4-.2-.6-.2c-.3 0-.5.1-.7.2s-.3.3-.4.5-.1.5-.1.8c0 .5.1.9.4 1.1.2.3.6.4 1 .4.2 0 .4 0 .5-.1.2 0 .4-.1.5-.2.1 0 .2-.1.2-.1.1 0 .1 0 .2.1l.1.1v.2c0 .1-.1.1-.2.2l-.6.3c-.2.2-.5.2-.7.2m2.9 0c-.1 0-.2 0-.3-.1s-.1-.2-.1-.3v-3.3c0-.1 0-.2.1-.3s.2-.1.3-.1.2 0 .3.1.1.2.1.3v.6h-.1c.1-.3.3-.6.5-.7s.5-.3.9-.3c.1 0 .2 0 .2.1.1 0 .1.1.1.2s0 .2-.1.2c-.1.1-.1.1-.3.1h-.1c-.4 0-.6.2-.8.4s-.3.5-.3.8v1.9c0 .1 0 .2-.1.3s-.2.1-.3.1m4.3 1.5c-.3 0-.6 0-.9-.1s-.5-.2-.7-.3c-.1 0-.1-.1-.1-.2v-.2c0-.1 0-.1.1-.2l.1-.1h.2c.2.1.5.2.7.3.2 0 .4.1.6.1q.6 0 .9-.3t.3-.9v-.9h.1c-.1.3-.2.5-.5.7q-.45.3-.9.3c-.4 0-.7-.1-.9-.2-.3-.2-.5-.4-.6-.7s-.2-.6-.2-1c0-.3 0-.6.1-.8s.2-.5.4-.6c.2-.2.3-.3.6-.4.2-.1.5-.1.7-.1q.6 0 .9.3c.3.2.4.4.5.7l-.1.1v-.7c0-.1 0-.2.1-.3s.2-.1.3-.1.2 0 .3.1.1.2.1.3v3.4c0 .6-.2 1.1-.5 1.4-.5.2-1 .4-1.6.4m0-2.2c.2 0 .5-.1.6-.2s.3-.3.4-.5.1-.5.1-.7c0-.4-.1-.8-.3-1s-.5-.4-.9-.4c-.2 0-.5.1-.6.2-.2.1-.3.3-.4.5s-.1.5-.1.7c0 .4.1.8.3 1s.5.4.9.4m4.9.7c-.4 0-.8-.1-1.1-.2s-.5-.4-.7-.7-.3-.7-.3-1.1.1-.8.2-1.1c.2-.3.4-.6.7-.7.3-.2.6-.3 1-.3.3 0 .5 0 .7.1s.4.2.6.4q.3.3.3.6c.1.2.1.5.1.8 0 .1 0 .2-.1.2s-.1.1-.2.1h-2.8v-.5h2.6l-.1.1c0-.3 0-.5-.1-.7s-.2-.4-.4-.5-.4-.2-.6-.2c-.3 0-.5.1-.7.2s-.3.3-.4.5-.1.5-.1.8c0 .5.1.9.4 1.1.2.3.6.4 1 .4.2 0 .4 0 .5-.1.2 0 .4-.1.5-.2.1 0 .2-.1.2-.1.1 0 .1 0 .2.1l.1.1v.2c0 .1-.1.1-.2.2l-.6.3c-.2.2-.4.2-.7.2m2.9 0c-.1 0-.2 0-.3-.1s-.1-.2-.1-.3v-3.3c0-.1 0-.2.1-.3s.2-.1.3-.1.2 0 .3.1.1.2.1.3v.6l-.1-.1c.1-.3.3-.5.6-.7s.6-.2.9-.2.6.1.8.2.4.3.5.5.2.5.2.9v2.1c0 .1 0 .2-.1.3s-.2.1-.3.1-.2 0-.3-.1-.1-.2-.1-.3v-2.1c0-.4-.1-.6-.2-.8s-.4-.2-.7-.2-.6.1-.8.3q-.3.3-.3.9v1.9c-.1.3-.2.4-.5.4m6.1 0c-.4 0-.8-.1-1-.3s-.5-.4-.7-.7-.2-.7-.2-1.1c0-.3 0-.6.1-.9s.2-.5.4-.6c.2-.2.4-.3.6-.4s.5-.1.8-.1c.2 0 .4 0 .6.1l.6.3c.1 0 .1.1.1.2v.2c0 .1 0 .1-.1.2 0 0-.1.1-.2.1s-.1 0-.2-.1-.3-.2-.4-.2-.3-.1-.4-.1c-.2 0-.4 0-.5.1-.2.1-.3.2-.4.3s-.2.3-.2.5c-.1.2-.1.4-.1.6 0 .5.1.8.3 1.1s.5.4.9.4c.1 0 .3 0 .4-.1.1 0 .3-.1.4-.2.1 0 .1-.1.2-.1s.1 0 .2.1l.1.1v.2c0 .1-.1.1-.1.1l-.6.3zm3.8 0c-.4 0-.8-.1-1.1-.2s-.5-.4-.7-.7-.3-.7-.3-1.1.1-.8.2-1.1c.2-.3.4-.6.7-.7.3-.2.6-.3 1-.3.3 0 .5 0 .7.1s.4.2.6.4q.3.3.3.6c.1.2.1.5.1.8 0 .1 0 .2-.1.2s-.1.1-.2.1H652v-.5h2.6l-.1.1c0-.3 0-.5-.1-.7s-.2-.4-.4-.5-.4-.2-.6-.2c-.3 0-.5.1-.7.2s-.3.3-.4.5-.1.5-.1.8c0 .5.1.9.4 1.1.2.3.6.4 1 .4.2 0 .4 0 .5-.1.2 0 .4-.1.5-.2.1 0 .2-.1.2-.1.1 0 .1 0 .2.1l.1.1v.2c0 .1-.1.1-.2.2l-.6.3c-.3.2-.6.2-.8.2"/><path fill="#3C356C" d="M674.2 161.5v14.4c0 3.4-2.7 6.1-6.1 6.1h-65.5c-3.4 0-6.1-2.7-6.1-6.1v-14.4c0-3.4 2.7-6.1 6.1-6.1h65.5c3.4 0 6.1 2.7 6.1 6.1"/><path fill="#fff" d="M613.2 168.4c-.1 0-.2 0-.3-.1s-.1-.2-.1-.3v-4.8c0-.1 0-.2.1-.3s.2-.1.3-.1.2 0 .3.1.1.2.1.3v.7l-.1-.1c.1-.3.3-.5.5-.7q.45-.3.9-.3c.4 0 .7.1.9.2.3.2.5.4.6.7s.2.7.2 1.1-.1.8-.2 1.1-.3.6-.6.7c-.3.2-.6.2-.9.2s-.7-.1-.9-.3c-.3-.2-.4-.4-.5-.7h.1v2.1c0 .1 0 .2-.1.3s-.2.2-.3.2m1.5-2c.2 0 .4-.1.6-.2s.3-.3.4-.5.1-.5.1-.8c0-.5-.1-.8-.3-1.1s-.5-.4-.9-.4c-.2 0-.4.1-.6.2s-.3.3-.4.5-.1.5-.1.8c0 .5.1.8.3 1.1.3.2.5.4.9.4m3.3.5c-.1 0-.2 0-.3-.1s-.1-.2-.1-.3v-3.3c0-.1 0-.2.1-.3s.2-.1.3-.1.2 0 .3.1.1.2.1.3v.6h-.1c.1-.3.3-.6.5-.7s.5-.3.9-.3c.1 0 .2 0 .2.1.1 0 .1.1.1.2s0 .2-.1.2c-.1.1-.1.1-.3.1h-.1c-.4 0-.6.2-.8.4s-.3.5-.3.8v1.9c0 .1 0 .2-.1.3s-.2.1-.3.1m4.2 0c-.4 0-.7-.1-1-.3s-.5-.4-.7-.7-.2-.7-.2-1.1c0-.3 0-.6.1-.9s.2-.5.4-.6c.2-.2.4-.3.6-.4s.5-.1.8-.1c.4 0 .7.1 1 .3s.5.4.7.7.2.7.2 1.1c0 .3 0 .6-.1.9s-.2.5-.4.7-.4.3-.6.4zm0-.5c.2 0 .4-.1.6-.2s.3-.3.4-.5.1-.5.1-.8c0-.5-.1-.8-.3-1.1s-.5-.4-.9-.4c-.2 0-.4.1-.6.2s-.3.3-.4.5-.1.5-.1.8c0 .5.1.8.3 1.1.3.2.6.4.9.4m4.3.5c-.1 0-.2 0-.3-.1s-.1-.1-.2-.3l-1.4-3.2c0-.1-.1-.2 0-.3 0-.1 0-.1.1-.2.1 0 .1-.1.3-.1.1 0 .2 0 .2.1.1 0 .1.1.2.2l1.3 3.2h-.2l1.3-3.2c0-.1.1-.2.2-.2s.1-.1.2-.1.2 0 .2.1c.1 0 .1.1.1.2v.2l-1.4 3.2c0 .1-.1.2-.2.3-.2.2-.3.2-.4.2m3.1-4.9c-.1 0-.3 0-.3-.1-.1-.1-.1-.2-.1-.3s0-.2.1-.3.2-.1.3-.1c.2 0 .3 0 .4.1s.1.2.1.3 0 .2-.1.3-.2.1-.4.1m0 4.9c-.1 0-.2 0-.3-.1s-.1-.2-.1-.3v-3.3c0-.1 0-.2.1-.3s.2-.1.3-.1.2 0 .3.1.1.2.1.3v3.3c0 .1 0 .2-.1.3 0 .1-.1.1-.3.1m3.1 0c-.3 0-.7-.1-.9-.2s-.5-.4-.6-.7-.2-.7-.2-1.1.1-.8.2-1.1.3-.5.6-.7.6-.2.9-.2.7.1.9.3c.3.2.4.4.5.7h-.1v-2.4c0-.1 0-.2.1-.3s.2-.1.3-.1.2 0 .3.1.1.2.1.3v5.1c0 .1 0 .2-.1.3s-.2.1-.3.1-.2 0-.3-.1-.1-.2-.1-.3v-.7l.1.1c-.1.3-.3.5-.5.7s-.5.2-.9.2m.2-.5c.2 0 .4-.1.6-.2s.3-.3.4-.5.1-.5.1-.8c0-.5-.1-.8-.3-1.1s-.5-.4-.9-.4c-.2 0-.4.1-.6.2s-.3.3-.4.5-.1.5-.1.8c0 .5.1.8.3 1.1.3.2.5.4.9.4m4.9.5c-.4 0-.8-.1-1.1-.2s-.5-.4-.7-.7-.3-.7-.3-1.1.1-.8.2-1.1c.2-.3.4-.6.7-.7.3-.2.6-.3 1-.3.3 0 .5 0 .7.1s.4.2.6.4q.3.3.3.6c.1.2.1.5.1.8 0 .1 0 .2-.1.2s-.1.1-.2.1h-2.8v-.5h2.6l-.1.1c0-.3 0-.5-.1-.7s-.2-.4-.4-.5-.4-.2-.6-.2c-.3 0-.5.1-.7.2s-.3.3-.4.5-.1.5-.1.8c0 .5.1.9.4 1.1.2.3.6.4 1 .4.2 0 .4 0 .5-.1.2 0 .4-.1.5-.2.1 0 .2-.1.2-.1.1 0 .1 0 .2.1l.1.1v.2c0 .1-.1.1-.2.2l-.6.3c-.2.2-.4.2-.7.2m6.1 0c-.2 0-.5 0-.7-.1s-.5-.2-.7-.3c-.1 0-.1-.1-.1-.1v-.2c0-.1 0-.1.1-.2l.1-.1h.2l.6.3c.2 0 .4.1.6.1.3 0 .5-.1.7-.2s.2-.3.2-.4c0-.2-.1-.3-.2-.4s-.3-.1-.5-.2l-.8-.2c-.3-.1-.6-.2-.8-.4s-.3-.4-.3-.7c0-.2.1-.5.2-.6.1-.2.3-.3.6-.4.2-.1.5-.1.8-.1.2 0 .5 0 .7.1l.6.3c.1 0 .1.1.1.1v.2c0 .1 0 .1-.1.1s-.1.1-.1.1h-.2c-.2-.1-.3-.2-.5-.2s-.3-.1-.5-.1c-.3 0-.5.1-.7.2s-.2.3-.2.5c0 .1 0 .3.1.4s.2.2.4.2l.8.2c.4.1.6.2.8.4s.3.4.3.7c0 .4-.1.7-.4.9-.2 0-.6.1-1.1.1m3.4 1.5c-.1 0-.2 0-.2-.1s-.1-.1-.1-.2v-.2l.6-1.3v.3l-1.5-3.6c0-.1-.1-.2 0-.3 0-.1 0-.1.1-.2.1 0 .1-.1.3-.1.1 0 .2 0 .2.1.1 0 .1.1.2.2l1.3 3.2h-.2l1.3-3.2c0-.1.1-.2.2-.2s.1-.1.2-.1.2 0 .2.1c.1 0 .1.1.1.2v.2l-2.1 4.8c-.1.1-.1.2-.2.2s-.3.2-.4.2m3.7-1.5c-.1 0-.2 0-.3-.1s-.1-.2-.1-.3v-3.3c0-.1 0-.2.1-.3s.2-.1.3-.1.2 0 .3.1.1.2.1.3v.7l-.1-.1c.1-.3.3-.5.6-.7s.6-.2.9-.2.6.1.8.2.4.3.5.5.2.5.2.9v2.1c0 .1 0 .2-.1.3s-.2.1-.3.1-.2 0-.3-.1-.1-.2-.1-.3v-2.1c0-.4-.1-.6-.2-.8s-.4-.2-.7-.2-.6.1-.8.3q-.3.3-.3.9v1.9c-.2.2-.3.3-.5.3m6 0c-.4 0-.8-.1-1-.3s-.5-.4-.7-.7-.2-.7-.2-1.1c0-.3 0-.6.1-.9s.2-.5.4-.6c.2-.2.4-.3.6-.4s.5-.1.8-.1c.2 0 .4 0 .6.1l.6.3c.1 0 .1.1.1.2v.2c0 .1 0 .1-.1.2 0 0-.1.1-.2.1s-.1 0-.2-.1-.3-.2-.4-.2-.3-.1-.4-.1c-.2 0-.4 0-.5.1-.2.1-.3.2-.4.3s-.2.3-.2.5c-.1.2-.1.4-.1.6 0 .5.1.8.3 1.1s.5.4.9.4c.1 0 .3 0 .4-.1.1 0 .3-.1.4-.2.1 0 .1-.1.2-.1s.1 0 .2.1l.1.1v.2c0 .1-.1.1-.1.1l-.6.3zm-31.3 7.9c-.1 0-.2 0-.3-.1s-.1-.2-.1-.3V171c0-.1 0-.2.1-.3s.2-.1.3-.1.2 0 .3.1.1.2.1.3v.6h-.1c.1-.3.3-.6.5-.7s.5-.3.9-.3c.1 0 .2 0 .2.1.1 0 .1.1.1.2s0 .2-.1.2c-.1.1-.1.1-.3.1h-.1c-.4 0-.6.2-.8.4s-.3.5-.3.8v1.9c0 .1 0 .2-.1.3s-.1.2-.3.2m4.4 0c-.4 0-.8-.1-1.1-.2s-.5-.4-.7-.7-.3-.7-.3-1.1.1-.8.2-1.1c.2-.3.4-.6.7-.7.3-.2.6-.3 1-.3.3 0 .5 0 .7.1s.4.2.6.4q.3.3.3.6c.1.2.1.5.1.8 0 .1 0 .2-.1.2s-.1.1-.2.1h-2.8v-.5h2.6l-.1.1c0-.3 0-.5-.1-.7s-.2-.4-.4-.5-.4-.2-.6-.2c-.3 0-.5.1-.7.2s-.3.3-.4.5-.1.5-.1.8c0 .5.1.9.4 1.1.2.3.6.4 1 .4.2 0 .4 0 .5-.1.2 0 .4-.1.5-.2.1 0 .2-.1.2-.1.1 0 .1 0 .2.1l.1.1v.2c0 .1-.1.1-.2.2l-.6.3c-.2.1-.5.2-.7.2m3.9 0c-.2 0-.5 0-.7-.1s-.5-.2-.7-.3c-.1 0-.1-.1-.1-.1v-.2c0-.1 0-.1.1-.2l.1-.1h.2l.6.3c.2 0 .4.1.6.1.3 0 .5-.1.7-.2s.2-.3.2-.4c0-.2-.1-.3-.2-.4s-.3-.1-.5-.2l-.8-.2c-.3-.1-.6-.2-.8-.4s-.3-.4-.3-.7c0-.2.1-.5.2-.6.1-.2.3-.3.6-.4.2-.1.5-.1.8-.1.2 0 .5 0 .7.1l.6.3c.1 0 .1.1.1.1v.2c0 .1 0 .1-.1.1s-.1.1-.1.1h-.2c-.2-.1-.3-.2-.5-.2s-.3-.1-.5-.1c-.3 0-.5.1-.7.2s-.2.3-.2.5c0 .1 0 .3.1.4s.2.2.4.2l.8.2c.4.1.6.2.8.4s.3.4.3.7c0 .4-.1.7-.4.9-.2 0-.6.1-1.1.1m4 0c-.3 0-.6-.1-.8-.2s-.4-.3-.5-.5-.2-.5-.2-.9V171c0-.1 0-.2.1-.3s.2-.1.3-.1.2 0 .3.1.1.2.1.3v2.1c0 .3.1.6.2.7.1.2.4.2.6.2.3 0 .6-.1.8-.3q.3-.3.3-.9V171c0-.1 0-.2.1-.3s.2-.1.3-.1.2 0 .3.1.1.2.1.3v3.3c0 .3-.1.4-.4.4-.1 0-.2 0-.3-.1s-.1-.2-.1-.3v-.7l.1.1c-.1.3-.3.6-.5.7s-.5.4-.8.4m4.5 0c-.4 0-.7-.1-.9-.4-.2-.2-.3-.6-.3-1.1v-4.1c0-.1 0-.2.1-.3s.2-.1.3-.1.2 0 .3.1.1.2.1.3v4c0 .3.1.5.2.6s.3.2.5.2h.3v.2c0 .1 0 .2-.1.2s-.1.1-.2.1h-.1c-.1.3-.2.3-.2.3m2.7 0c-.3 0-.6-.1-.8-.2s-.4-.3-.5-.5-.2-.5-.2-.8v-2h-.5c-.1 0-.2 0-.2-.1-.1-.1-.1-.1-.1-.2s0-.2.1-.2.1-.1.2-.1h.5v-.9c0-.1 0-.2.1-.3s.2-.1.3-.1.2 0 .3.1.1.2.1.3v.9h1c.1 0 .2 0 .2.1.1 0 .1.1.1.2s0 .2-.1.2c-.1.1-.1.1-.2.1h-1v1.9c0 .3.1.5.2.7s.3.2.6.2h.6s.1.1.1.2v.2c0 .1-.1.1-.1.1-.1 0-.2 0-.3.1-.2.1-.3.1-.4.1"/><path fill="#3C356C" d="M582.6 105.6V120c0 3.4-2.7 6.1-6.1 6.1H511c-3.4 0-6.1-2.7-6.1-6.1v-14.4c0-3.4 2.7-6.1 6.1-6.1h65.5c3.4.1 6.1 2.8 6.1 6.1"/><path fill="#fff" d="M514.9 111.1c-.4 0-.8-.1-1-.3s-.5-.4-.7-.7-.2-.7-.2-1.1c0-.3 0-.6.1-.9s.2-.5.4-.6c.2-.2.4-.3.6-.4s.5-.1.8-.1c.2 0 .4 0 .6.1l.6.3c.1 0 .1.1.1.2v.2c0 .1 0 .1-.1.2 0 0-.1.1-.2.1s-.1 0-.2-.1-.3-.2-.4-.2-.3-.1-.4-.1c-.2 0-.4 0-.5.1-.2.1-.3.2-.4.3s-.2.3-.2.5c-.1.2-.1.4-.1.6 0 .5.1.8.3 1.1s.5.4.9.4c.1 0 .3 0 .4-.1.1 0 .3-.1.4-.2.1 0 .1-.1.2-.1s.1 0 .2.1l.1.1v.2c0 .1-.1.1-.1.1l-.6.3zm3.3 0c-.3 0-.5-.1-.7-.2s-.4-.3-.5-.4c-.1-.2-.2-.4-.2-.6 0-.3.1-.5.2-.7s.4-.3.7-.4.8-.1 1.4-.1h.4v.5h-.4c-.4 0-.8 0-1 .1s-.4.1-.5.2-.1.2-.1.4.1.4.2.5.4.2.6.2.4-.1.5-.2c.2-.1.3-.2.4-.4s.1-.4.1-.6v-.9c0-.3-.1-.6-.2-.7s-.4-.2-.7-.2c-.2 0-.4 0-.6.1-.2 0-.4.1-.6.2-.1 0-.2.1-.2 0s-.1 0-.1-.1-.1-.1-.1-.2v-.2c0-.1.1-.1.2-.1.2-.1.5-.2.7-.3s.5-.1.7-.1c.4 0 .6.1.9.2s.4.3.5.5.2.5.2.9v2.2c0 .1 0 .2-.1.3s-.1.1-.3.1c-.1 0-.2 0-.3-.1s-.1-.2-.1-.3v-.6h.1c0 .2-.1.4-.2.5s-.3.3-.4.3-.2.2-.5.2m4.4 0c-.4 0-.7-.1-.9-.4-.2-.2-.3-.6-.3-1.1v-4.1c0-.1 0-.2.1-.3s.2-.1.3-.1.2 0 .3.1.1.2.1.3v4c0 .3.1.5.2.6s.3.2.5.2h.3v.2c0 .1 0 .2-.1.2s-.1.1-.2.1h-.1c-.1.3-.2.3-.2.3m2.9 0c-.4 0-.8-.1-1-.3s-.5-.4-.7-.7-.2-.7-.2-1.1c0-.3 0-.6.1-.9s.2-.5.4-.6c.2-.2.4-.3.6-.4s.5-.1.8-.1c.2 0 .4 0 .6.1l.6.3c.1 0 .1.1.1.2v.2c0 .1 0 .1-.1.2 0 0-.1.1-.2.1s-.1 0-.2-.1-.3-.2-.4-.2-.3-.1-.4-.1c-.2 0-.4 0-.5.1-.2.1-.3.2-.4.3s-.2.3-.2.5c-.1.2-.1.4-.1.6 0 .5.1.8.3 1.1s.5.4.9.4c.1 0 .3 0 .4-.1.1 0 .3-.1.4-.2.1 0 .1-.1.2-.1s.1 0 .2.1l.1.1v.2c0 .1-.1.1-.1.1l-.6.3zm3.5 0c-.3 0-.6-.1-.8-.2s-.4-.3-.5-.5-.2-.5-.2-.9v-2.1c0-.1 0-.2.1-.3s.2-.1.3-.1.2 0 .3.1.1.2.1.3v2.1c0 .3.1.6.2.7.1.2.4.2.6.2.3 0 .6-.1.8-.3q.3-.3.3-.9v-1.9c0-.1 0-.2.1-.3s.2-.1.3-.1.2 0 .3.1.1.2.1.3v3.3c0 .3-.1.4-.4.4-.1 0-.2 0-.3-.1s-.1-.2-.1-.3v-.6l.1.1c-.1.3-.3.6-.5.7s-.5.3-.8.3m4.4 0c-.4 0-.7-.1-.9-.4-.2-.2-.3-.6-.3-1.1v-4.1c0-.1 0-.2.1-.3s.2-.1.3-.1.2 0 .3.1.1.2.1.3v4c0 .3.1.5.2.6s.3.2.5.2h.3v.2c0 .1 0 .2-.1.2s-.1.1-.2.1h-.1c-.1.3-.1.3-.2.3m2.5 0c-.3 0-.5-.1-.7-.2s-.4-.3-.5-.4c-.1-.2-.2-.4-.2-.6 0-.3.1-.5.2-.7s.4-.3.7-.4.8-.1 1.4-.1h.4v.5h-.4c-.4 0-.8 0-1 .1s-.4.1-.5.2-.1.2-.1.4.1.4.2.5.4.2.6.2.4-.1.5-.2c.2-.1.3-.2.4-.4s.1-.4.1-.6v-.9c0-.3-.1-.6-.2-.7s-.4-.2-.7-.2c-.2 0-.4 0-.6.1-.2 0-.4.1-.6.2-.1 0-.2.1-.2 0s-.1 0-.1-.1-.1-.1-.1-.2v-.2c0-.1.1-.1.2-.1.2-.1.5-.2.7-.3s.5-.1.7-.1c.4 0 .6.1.9.2s.4.3.5.5.2.5.2.9v2.2c0 .1 0 .2-.1.3s-.1.1-.3.1c-.1 0-.2 0-.3-.1s-.1-.2-.1-.3v-.6h.1c0 .2-.1.4-.2.5s-.3.3-.4.3-.3.2-.5.2m4.8 0c-.3 0-.6-.1-.8-.2s-.4-.3-.5-.5-.2-.5-.2-.8v-2h-.5c-.1 0-.2 0-.2-.1-.1-.1-.1-.1-.1-.2s0-.2.1-.2.1-.1.2-.1h.5v-.9c0-.1 0-.2.1-.3s.2-.1.3-.1.2 0 .3.1.1.2.1.3v.9h1c.1 0 .2 0 .2.1.1 0 .1.1.1.2s0 .2-.1.2c-.1.1-.1.1-.2.1h-1v1.9c0 .3.1.5.2.7s.3.2.6.2h.6s.1.1.1.2v.2c0 .1-.1.1-.1.1-.1 0-.2 0-.3.1-.3.1-.4.1-.4.1m3 0c-.4 0-.8-.1-1.1-.2s-.5-.4-.7-.7-.3-.7-.3-1.1.1-.8.2-1.1c.2-.3.4-.6.7-.7.3-.2.6-.3 1-.3.3 0 .5 0 .7.1s.4.2.6.4q.3.3.3.6c.1.2.1.5.1.8 0 .1 0 .2-.1.2s-.1.1-.2.1h-2.8v-.5h2.6l-.1.1c0-.3 0-.5-.1-.7s-.2-.4-.4-.5-.4-.2-.6-.2c-.3 0-.5.1-.7.2s-.3.3-.4.5-.1.5-.1.8c0 .5.1.9.4 1.1.2.3.6.4 1 .4.2 0 .4 0 .5-.1.2 0 .4-.1.5-.2.1 0 .2-.1.2-.1.1 0 .1 0 .2.1l.1.1v.2c0 .1-.1.1-.2.2l-.6.3c-.2.2-.4.2-.7.2m6.2 0c-.3 0-.7-.1-.9-.2s-.5-.4-.6-.7-.2-.7-.2-1.1.1-.8.2-1.1.3-.5.6-.7.6-.2.9-.2.7.1.9.3c.3.2.4.4.5.7h-.1v-2.4c0-.1 0-.2.1-.3s.2-.1.3-.1.2 0 .3.1.1.2.1.3v5.1c0 .1 0 .2-.1.3s-.2.1-.3.1-.2 0-.3-.1-.1-.2-.1-.3v-.8l.1.1c-.1.3-.3.5-.5.7q-.3.3-.9.3m.2-.6c.2 0 .4-.1.6-.2s.3-.3.4-.5.1-.5.1-.8c0-.5-.1-.8-.3-1.1s-.5-.4-.9-.4c-.2 0-.4.1-.6.2s-.3.3-.4.5-.1.5-.1.8c0 .5.1.8.3 1.1s.5.4.9.4m4.9.6c-.4 0-.8-.1-1.1-.2s-.5-.4-.7-.7-.3-.7-.3-1.1.1-.8.2-1.1c.2-.3.4-.6.7-.7.3-.2.6-.3 1-.3.3 0 .5 0 .7.1s.4.2.6.4q.3.3.3.6c.1.2.1.5.1.8 0 .1 0 .2-.1.2s-.1.1-.2.1h-2.8v-.5h2.6l-.1.1c0-.3 0-.5-.1-.7s-.2-.4-.4-.5-.4-.2-.6-.2c-.3 0-.5.1-.7.2s-.3.3-.4.5-.1.5-.1.8c0 .5.1.9.4 1.1.2.3.6.4 1 .4.2 0 .4 0 .5-.1.2 0 .4-.1.5-.2.1 0 .2-.1.2-.1.1 0 .1 0 .2.1l.1.1v.2c0 .1-.1.1-.2.2l-.6.3c-.2.2-.4.2-.7.2m3.9 0c-.2 0-.5 0-.7-.1s-.5-.2-.7-.3c-.1 0-.1-.1-.1-.1v-.2c0-.1 0-.1.1-.2l.1-.1h.2l.6.3c.2 0 .4.1.6.1.3 0 .5-.1.7-.2s.2-.3.2-.4c0-.2-.1-.3-.2-.4s-.3-.1-.5-.2l-.8-.2c-.3-.1-.6-.2-.8-.4s-.3-.4-.3-.7c0-.2.1-.5.2-.6.1-.2.3-.3.6-.4.2-.1.5-.1.8-.1.2 0 .5 0 .7.1l.6.3c.1 0 .1.1.1.1v.2c0 .1 0 .1-.1.1s-.1.1-.1.1h-.2c-.2-.1-.3-.2-.5-.2s-.3-.1-.5-.1c-.3 0-.5.1-.7.2s-.2.3-.2.5c0 .1 0 .3.1.4s.2.2.4.2l.8.2c.4.1.6.2.8.4s.3.4.3.7c0 .4-.1.7-.4.9-.2 0-.6.1-1.1.1m3-5c-.1 0-.3 0-.3-.1-.1-.1-.1-.2-.1-.3s0-.2.1-.3.2-.1.3-.1c.2 0 .3 0 .4.1s.1.2.1.3 0 .2-.1.3-.3.1-.4.1m0 5c-.1 0-.2 0-.3-.1s-.1-.2-.1-.3v-3.3c0-.1 0-.2.1-.3s.2-.1.3-.1.2 0 .3.1.1.2.1.3v3.3c0 .1 0 .2-.1.3-.1 0-.2.1-.3.1m1.9 0c-.1 0-.2 0-.3-.1s-.1-.2-.1-.3v-3.3c0-.1 0-.2.1-.3s.2-.1.3-.1.2 0 .3.1.1.2.1.3v.6h-.1c.1-.3.3-.6.5-.7s.5-.3.9-.3c.1 0 .2 0 .2.1.1 0 .1.1.1.2s0 .2-.1.2c-.1.1-.1.1-.3.1h-.1c-.4 0-.6.2-.8.4s-.3.5-.3.8v1.9c0 .1 0 .2-.1.3s-.1.1-.3.1m4.4 0c-.4 0-.8-.1-1.1-.2s-.5-.4-.7-.7-.3-.7-.3-1.1.1-.8.2-1.1c.2-.3.4-.6.7-.7.3-.2.6-.3 1-.3.3 0 .5 0 .7.1s.4.2.6.4q.3.3.3.6c.1.2.1.5.1.8 0 .1 0 .2-.1.2s-.1.1-.2.1h-2.8v-.5h2.6l-.1.1c0-.3 0-.5-.1-.7s-.2-.4-.4-.5-.4-.2-.6-.2c-.3 0-.5.1-.7.2s-.3.3-.4.5-.1.5-.1.8c0 .5.1.9.4 1.1.2.3.6.4 1 .4.2 0 .4 0 .5-.1.2 0 .4-.1.5-.2.1 0 .2-.1.2-.1.1 0 .1 0 .2.1l.1.1v.2c0 .1-.1.1-.2.2l-.6.3c-.2.2-.5.2-.7.2m4.1 0c-.3 0-.7-.1-.9-.2s-.5-.4-.6-.7-.2-.7-.2-1.1.1-.8.2-1.1.3-.5.6-.7.6-.2.9-.2.7.1.9.3c.3.2.4.4.5.7h-.1v-2.4c0-.1 0-.2.1-.3s.2-.1.3-.1.2 0 .3.1.1.2.1.3v5.1c0 .1 0 .2-.1.3s-.2.1-.3.1-.2 0-.3-.1-.1-.2-.1-.3v-.8l.1.1c-.1.3-.3.5-.5.7q-.45.3-.9.3m.1-.6c.2 0 .4-.1.6-.2s.3-.3.4-.5.1-.5.1-.8c0-.5-.1-.8-.3-1.1s-.5-.4-.9-.4c-.2 0-.4.1-.6.2s-.3.3-.4.5-.1.5-.1.8c0 .5.1.8.3 1.1.3.3.6.4.9.4m-35.9 8.4c-.2 0-.5 0-.7-.1s-.5-.2-.7-.3c-.1 0-.1-.1-.1-.1v-.2c0-.1 0-.1.1-.2l.1-.1h.2l.6.3c.2 0 .4.1.6.1.3 0 .5-.1.7-.2s.2-.3.2-.4c0-.2-.1-.3-.2-.4s-.3-.1-.5-.2l-.8-.2c-.3-.1-.6-.2-.8-.4s-.3-.4-.3-.7c0-.2.1-.5.2-.6.1-.2.3-.3.6-.4.2-.1.5-.1.8-.1.2 0 .5 0 .7.1l.6.3c.1 0 .1.1.1.1v.2c0 .1 0 .1-.1.1s-.1.1-.1.1h-.2c-.2-.1-.3-.2-.5-.2s-.3-.1-.5-.1c-.3 0-.5.1-.7.2s-.2.3-.2.5c0 .1 0 .3.1.4s.2.2.4.2l.8.2c.4.1.6.2.8.4s.3.4.3.7c0 .4-.1.7-.4.9-.2 0-.6.1-1.1.1m4.2 0c-.3 0-.6-.1-.8-.2s-.4-.3-.5-.5-.2-.5-.2-.8v-2h-.5c-.1 0-.2 0-.2-.1-.1-.1-.1-.1-.1-.2s0-.2.1-.2.1-.1.2-.1h.5v-.8c0-.1 0-.2.1-.3s.2-.1.3-.1.2 0 .3.1.1.2.1.3v.9h1c.1 0 .2 0 .2.1.1 0 .1.1.1.2s0 .2-.1.2c-.1.1-.1.1-.2.1h-1v1.9c0 .3.1.5.2.7s.3.2.6.2h.6s.1.1.1.2v.2c0 .1-.1.1-.1.1-.1 0-.2 0-.3.1zm2.6 0c-.3 0-.5-.1-.7-.2s-.4-.3-.5-.4c-.1-.2-.2-.4-.2-.6 0-.3.1-.5.2-.7s.4-.3.7-.4.8-.1 1.4-.1h.4v.5h-.4c-.4 0-.8 0-1 .1s-.4.1-.5.2-.1.2-.1.4.1.4.2.5.4.2.6.2.4-.1.5-.2c.2-.1.3-.2.4-.4s.1-.4.1-.6v-.9c0-.3-.1-.6-.2-.7s-.4-.2-.7-.2c-.2 0-.4 0-.6.1-.2 0-.4.1-.6.2-.1 0-.2.1-.2 0s-.1 0-.1-.1-.1-.1-.1-.2v-.2c0-.1.1-.1.2-.1.2-.1.5-.2.7-.3s.5-.1.7-.1c.4 0 .6.1.9.2s.4.3.5.5.2.5.2.9v2.2c0 .1 0 .2-.1.3s-.1.1-.3.1c-.1 0-.2 0-.3-.1s-.1-.2-.1-.3v-.5h.1c0 .2-.1.4-.2.5s-.3.3-.4.3-.3.1-.5.1m4.7 0c-.3 0-.6-.1-.8-.2s-.4-.3-.5-.5-.2-.5-.2-.8v-2h-.5c-.1 0-.2 0-.2-.1-.1-.1-.1-.1-.1-.2s0-.2.1-.2.1-.1.2-.1h.5v-.8c0-.1 0-.2.1-.3s.2-.1.3-.1.2 0 .3.1.1.2.1.3v.9h1c.1 0 .2 0 .2.1.1 0 .1.1.1.2s0 .2-.1.2c-.1.1-.1.1-.2.1h-1v1.9c0 .3.1.5.2.7s.3.2.6.2h.6s.1.1.1.2v.2c0 .1-.1.1-.1.1-.1 0-.2 0-.3.1zm3.1 0c-.4 0-.8-.1-1.1-.2s-.5-.4-.7-.7-.3-.7-.3-1.1.1-.8.2-1.1c.2-.3.4-.6.7-.7.3-.2.6-.3 1-.3.3 0 .5 0 .7.1s.4.2.6.4q.3.3.3.6c.1.2.1.5.1.8 0 .1 0 .2-.1.2s-.1.1-.2.1h-2.8v-.5h2.6l-.1.1c0-.3 0-.5-.1-.7s-.2-.4-.4-.5-.4-.2-.6-.2c-.3 0-.5.1-.7.2s-.3.3-.4.5-.1.5-.1.8c0 .5.1.9.4 1.1.2.3.6.4 1 .4.2 0 .4 0 .5-.1.2 0 .4-.1.5-.2.1 0 .2-.1.2-.1.1 0 .1 0 .2.1l.1.1v.2c0 .1-.1.1-.2.2l-.6.3c-.3.2-.5.2-.7.2"/><path fill="#3C356C" d="M765.8 105.6V120c0 3.4-2.7 6.1-6.1 6.1h-65.5c-3.4 0-6.1-2.7-6.1-6.1v-14.4c0-3.4 2.7-6.1 6.1-6.1h65.5c3.3.1 6.1 2.8 6.1 6.1"/><path fill="#fff" d="M704.8 114.8c-.3 0-.5-.1-.7-.2s-.4-.3-.5-.4c-.1-.2-.2-.4-.2-.6 0-.3.1-.5.2-.7s.4-.3.7-.4.8-.1 1.4-.1h.4v.5h-.4c-.4 0-.8 0-1 .1s-.4.1-.5.2-.1.2-.1.4.1.4.2.5.4.2.6.2.4-.1.5-.2c.2-.1.3-.2.4-.4s.1-.4.1-.6v-.9c0-.3-.1-.6-.2-.7s-.4-.2-.7-.2c-.2 0-.4 0-.6.1-.2 0-.4.1-.6.2-.1 0-.2.1-.2 0s-.1 0-.1-.1-.1-.1-.1-.2v-.2c0-.1.1-.1.2-.1.2-.1.5-.2.7-.3s.5-.1.7-.1c.4 0 .6.1.9.2s.4.3.5.5.2.5.2.9v2.2c0 .1 0 .2-.1.3s-.1.1-.3.1c-.1 0-.2 0-.3-.1s-.1-.2-.1-.3v-.6h.1c0 .2-.1.4-.2.5s-.3.3-.4.3-.2.2-.5.2m4.8 0c-.3 0-.6-.1-.8-.2s-.4-.3-.5-.5-.2-.5-.2-.8v-2h-.5c-.1 0-.2 0-.2-.1-.1-.1-.1-.1-.1-.2s0-.2.1-.2.1-.1.2-.1h.5v-.9c0-.1 0-.2.1-.3s.2-.1.3-.1.2 0 .3.1.1.2.1.3v.9h1c.1 0 .2 0 .2.1.1 0 .1.1.1.2s0 .2-.1.2c-.1.1-.1.1-.2.1h-1v1.9c0 .3.1.5.2.7s.3.2.6.2h.6s.1.1.1.2v.2c0 .1-.1.1-.1.1-.1 0-.2 0-.3.1-.2 0-.3.1-.4.1"/><path fill="#fff" d="M712.4 114.8c-.3 0-.6-.1-.8-.2s-.4-.3-.5-.5-.2-.5-.2-.8v-2h-.5c-.1 0-.2 0-.2-.1-.1-.1-.1-.1-.1-.2s0-.2.1-.2.1-.1.2-.1h.5v-.9c0-.1 0-.2.1-.3s.2-.1.3-.1.2 0 .3.1.1.2.1.3v.9h1c.1 0 .2 0 .2.1.1 0 .1.1.1.2s0 .2-.1.2c-.1.1-.1.1-.2.1h-1v1.9c0 .3.1.5.2.7s.3.2.6.2h.6s.1.1.1.2v.2c0 .1-.1.1-.1.1-.1 0-.2 0-.3.1-.2 0-.3.1-.4.1m3 0c-.4 0-.8-.1-1.1-.2s-.5-.4-.7-.7-.3-.7-.3-1.1.1-.8.2-1.1c.2-.3.4-.6.7-.7.3-.2.6-.3 1-.3.3 0 .5 0 .7.1s.4.2.6.4q.3.3.3.6c.1.2.1.5.1.8 0 .1 0 .2-.1.2s-.1.1-.2.1h-2.8v-.5h2.6l-.1.1c0-.3 0-.5-.1-.7s-.2-.4-.4-.5-.4-.2-.6-.2c-.3 0-.5.1-.7.2s-.3.3-.4.5-.1.5-.1.8c0 .5.1.9.4 1.1.2.3.6.4 1 .4.2 0 .4 0 .5-.1.2 0 .4-.1.5-.2.1 0 .2-.1.2-.1.1 0 .1 0 .2.1l.1.1v.2c0 .1-.1.1-.2.2l-.6.3c-.2.1-.4.2-.7.2m3-.1c-.1 0-.2 0-.3-.1s-.1-.2-.1-.3V111c0-.1 0-.2.1-.3s.2-.1.3-.1.2 0 .3.1.1.2.1.3v.7l-.1-.1c.1-.3.3-.5.5-.7s.5-.2.8-.2.6.1.8.2c.2.2.3.4.4.7h-.1c.1-.3.3-.5.5-.7.3-.2.5-.3.9-.3.3 0 .5.1.7.2s.3.3.4.5.1.5.1.9v2.1c0 .1 0 .2-.1.3s-.2.1-.3.1-.2 0-.3-.1-.1-.2-.1-.3v-2.1c0-.3-.1-.6-.2-.8s-.3-.2-.6-.2-.6.1-.7.3-.3.5-.3.9v1.9c0 .1 0 .2-.1.3s-.2.1-.3.1-.2 0-.3-.1-.1-.2-.1-.3v-2.1c0-.3-.1-.6-.2-.8s-.3-.2-.6-.2-.6.1-.7.3-.3.5-.3.9v1.9c.2.3.1.4-.1.4m7 1.5c-.1 0-.2 0-.3-.1s-.1-.2-.1-.3V111c0-.1 0-.2.1-.3s.2-.1.3-.1.2 0 .3.1.1.2.1.3v.7l-.1-.1c.1-.3.3-.5.5-.7q.45-.3.9-.3c.4 0 .7.1.9.2.3.2.5.4.6.7s.2.7.2 1.1-.1.8-.2 1.1-.3.6-.6.7c-.3.2-.6.2-.9.2s-.7-.1-.9-.3c-.3-.2-.4-.4-.5-.7h.1v2.1c0 .1 0 .2-.1.3s-.2.2-.3.2m1.5-2c.2 0 .4-.1.6-.2s.3-.3.4-.5.1-.5.1-.8c0-.5-.1-.8-.3-1.1s-.5-.4-.9-.4c-.2 0-.4.1-.6.2s-.3.3-.4.5-.1.5-.1.8c0 .5.1.8.3 1.1.3.2.6.4.9.4m4.5.6c-.3 0-.6-.1-.8-.2s-.4-.3-.5-.5-.2-.5-.2-.8v-2h-.5c-.1 0-.2 0-.2-.1-.1-.1-.1-.1-.1-.2s0-.2.1-.2.1-.1.2-.1h.5v-.9c0-.1 0-.2.1-.3s.2-.1.3-.1.2 0 .3.1.1.2.1.3v.9h1c.1 0 .2 0 .2.1.1 0 .1.1.1.2s0 .2-.1.2c-.1.1-.1.1-.2.1h-1v1.9c0 .3.1.5.2.7s.3.2.6.2h.6s.1.1.1.2v.2c0 .1-.1.1-.1.1-.1 0-.2 0-.3.1-.2 0-.3.1-.4.1m4.8 0c-.2 0-.5 0-.7-.1s-.5-.2-.7-.3c-.1 0-.1-.1-.1-.1v-.2c0-.1 0-.1.1-.2l.1-.1h.2l.6.3c.2 0 .4.1.6.1.3 0 .5-.1.7-.2s.2-.3.2-.4c0-.2-.1-.3-.2-.4s-.3-.1-.5-.2l-.8-.2c-.3-.1-.6-.2-.8-.4s-.3-.4-.3-.7c0-.2.1-.5.2-.6.1-.2.3-.3.6-.4.2-.1.5-.1.8-.1.2 0 .5 0 .7.1l.6.3c.1 0 .1.1.1.1v.2c0 .1 0 .1-.1.1s-.1.1-.1.1h-.2c-.2-.1-.3-.2-.5-.2s-.3-.1-.5-.1c-.3 0-.5.1-.7.2s-.2.3-.2.5c0 .1 0 .3.1.4s.2.2.4.2l.8.2c.4.1.6.2.8.4s.3.4.3.7c0 .4-.1.7-.4.9-.2-.1-.6.1-1.1.1m3.4 1.4c-.1 0-.2 0-.2-.1s-.1-.1-.1-.2v-.2l.6-1.3v.3l-1.5-3.6c0-.1-.1-.2 0-.3 0-.1 0-.1.1-.2.1 0 .1-.1.3-.1.1 0 .2 0 .2.1.1 0 .1.1.2.2l1.3 3.2h-.2l1.3-3.2c0-.1.1-.2.2-.2s.1-.1.2-.1.2 0 .2.1c.1 0 .1.1.1.2v.2l-2.1 4.8c-.1.1-.1.2-.2.2s-.3.2-.4.2m3.7-1.5c-.1 0-.2 0-.3-.1s-.1-.2-.1-.3V111c0-.1 0-.2.1-.3s.2-.1.3-.1.2 0 .3.1.1.2.1.3v.7l-.1-.1c.1-.3.3-.5.6-.7s.6-.2.9-.2.6.1.8.2.4.3.5.5.2.5.2.9v2.1c0 .1 0 .2-.1.3s-.2.1-.3.1-.2 0-.3-.1-.1-.2-.1-.3v-2.1c0-.4-.1-.6-.2-.8s-.4-.2-.7-.2-.6.1-.8.3q-.3.3-.3.9v1.9c-.1.2-.2.3-.5.3m6 .1c-.4 0-.8-.1-1-.3s-.5-.4-.7-.7-.2-.7-.2-1.1c0-.3 0-.6.1-.9s.2-.5.4-.6c.2-.2.4-.3.6-.4s.5-.1.8-.1c.2 0 .4 0 .6.1l.6.3c.1 0 .1.1.1.2v.2c0 .1 0 .1-.1.2 0 0-.1.1-.2.1s-.1 0-.2-.1-.3-.2-.4-.2-.3-.1-.4-.1c-.2 0-.4 0-.5.1-.2.1-.3.2-.4.3s-.2.3-.2.5c-.1.2-.1.4-.1.6 0 .5.1.8.3 1.1s.5.4.9.4c.1 0 .3 0 .4-.1.1 0 .3-.1.4-.2.1 0 .1-.1.2-.1s.1 0 .2.1l.1.1v.2c0 .1-.1.1-.1.1l-.6.3c-.2-.1-.4 0-.6 0"/><path fill="#3C356C" d="M156.5 105.6V120c0 3.4-2.7 6.1-6.1 6.1H84.9c-3.4 0-6.1-2.7-6.1-6.1v-14.4c0-3.4 2.7-6.1 6.1-6.1h65.5c3.4.1 6.1 2.8 6.1 6.1"/><path fill="#fff" d="M96.5 116.4c-.1 0-.2 0-.3-.1s-.1-.2-.1-.3v-4.8c0-.1 0-.2.1-.3s.2-.1.3-.1.2 0 .3.1.1.2.1.3v.7l-.1-.1c.1-.3.3-.5.5-.7q.45-.3.9-.3c.4 0 .7.1.9.2.3.2.5.4.6.7s.2.7.2 1.1-.1.8-.2 1.1-.3.6-.6.7c-.3.2-.6.2-.9.2s-.7-.1-.9-.3c-.3-.2-.4-.4-.5-.7h.1v2.1c0 .1 0 .2-.1.3s-.2.2-.3.2m1.5-2c.2 0 .4-.1.6-.2s.3-.3.4-.5.1-.5.1-.8c0-.5-.1-.8-.3-1.1s-.5-.4-.9-.4c-.2 0-.4.1-.6.2s-.3.3-.4.5-.1.5-.1.8c0 .5.1.8.3 1.1.3.3.5.4.9.4m4.3.6c-.3 0-.6-.1-.8-.2s-.4-.3-.5-.5-.2-.5-.2-.9v-2.1c0-.1 0-.2.1-.3s.2-.1.3-.1.2 0 .3.1.1.2.1.3v2.1c0 .3.1.6.2.7.1.2.4.2.6.2.3 0 .6-.1.8-.3q.3-.3.3-.9v-1.9c0-.1 0-.2.1-.3s.2-.1.3-.1.2 0 .3.1.1.2.1.3v3.3c0 .3-.1.4-.4.4-.1 0-.2 0-.3-.1s-.1-.2-.1-.3v-.7l.1.1c-.1.3-.3.6-.5.7s-.5.4-.8.4m4.5 0c-.4 0-.7-.1-.9-.4-.2-.2-.3-.6-.3-1.1v-4.1c0-.1 0-.2.1-.3s.2-.1.3-.1.2 0 .3.1.1.2.1.3v4c0 .3.1.5.2.6s.3.2.5.2h.3v.2c0 .1 0 .2-.1.2s-.1.1-.2.1h-.1c-.1.3-.2.3-.2.3m2.4 0c-.4 0-.7-.1-.9-.4-.2-.2-.3-.6-.3-1.1v-4.1c0-.1 0-.2.1-.3s.2-.1.3-.1.2 0 .3.1.1.2.1.3v4c0 .3.1.5.2.6s.3.2.5.2h.3v.2c0 .1 0 .2-.1.2s-.1.1-.2.1h-.1c-.1.3-.1.3-.2.3m3.8-.1c-.1 0-.2 0-.3-.1s-.1-.2-.1-.3v-3.3c0-.1 0-.2.1-.3s.2-.1.3-.1.2 0 .3.1.1.2.1.3v.6h-.1c.1-.3.3-.6.5-.7s.5-.3.9-.3c.1 0 .2 0 .2.1.1 0 .1.1.1.2s0 .2-.1.2c-.1.1-.1.1-.3.1h-.1c-.4 0-.6.2-.8.4s-.3.5-.3.8v1.9c0 .1 0 .2-.1.3s-.2.1-.3.1m4.3.1c-.4 0-.8-.1-1.1-.2s-.5-.4-.7-.7-.3-.7-.3-1.1.1-.8.2-1.1c.2-.3.4-.6.7-.7.3-.2.6-.3 1-.3.3 0 .5 0 .7.1s.4.2.6.4q.3.3.3.6c.1.2.1.5.1.8 0 .1 0 .2-.1.2s-.1.1-.2.1h-2.8v-.5h2.6l-.1.1c0-.3 0-.5-.1-.7s-.2-.4-.4-.5-.4-.2-.6-.2c-.3 0-.5.1-.7.2s-.3.3-.4.5-.1.5-.1.8c0 .5.1.9.4 1.1.2.3.6.4 1 .4.2 0 .4 0 .5-.1.2 0 .4-.1.5-.2.1 0 .2-.1.2-.1.1 0 .1 0 .2.1l.1.1v.2c0 .1-.1.1-.2.2l-.6.3c-.2.1-.4.2-.7.2m5.8 1.4c-.1 0-.2 0-.3-.1s-.1-.2-.1-.3v-2h.1c-.1.3-.3.5-.5.7q-.45.3-.9.3c-.3 0-.7-.1-.9-.2s-.5-.4-.6-.7-.2-.7-.2-1.1.1-.8.2-1.1.4-.5.6-.7c.3-.2.6-.2.9-.2q.6 0 .9.3c.3.2.4.4.5.7l-.1.1v-.7c0-.1 0-.2.1-.3s.2-.1.3-.1.2 0 .3.1.1.2.1.3v4.8c0 .1 0 .2-.1.3s-.2-.1-.3-.1m-1.5-2c.2 0 .4-.1.6-.2s.3-.3.4-.5.1-.5.1-.8c0-.5-.1-.8-.3-1.1s-.5-.4-.9-.4c-.2 0-.4.1-.6.2s-.3.3-.4.5-.1.5-.1.8c0 .5.1.8.3 1.1s.5.4.9.4m4.5.6c-.3 0-.6-.1-.8-.2s-.4-.3-.5-.5-.2-.5-.2-.9v-2.1c0-.1 0-.2.1-.3s.2-.1.3-.1.2 0 .3.1.1.2.1.3v2.1c0 .3.1.6.2.7.1.2.4.2.6.2.3 0 .6-.1.8-.3q.3-.3.3-.9v-1.9c0-.1 0-.2.1-.3s.2-.1.3-.1.2 0 .3.1.1.2.1.3v3.3c0 .3-.1.4-.4.4-.1 0-.2 0-.3-.1s-.1-.2-.1-.3v-.7l.1.1c-.1.3-.3.6-.5.7s-.5.4-.8.4m5 0c-.4 0-.8-.1-1.1-.2s-.5-.4-.7-.7-.3-.7-.3-1.1.1-.8.2-1.1c.2-.3.4-.6.7-.7.3-.2.6-.3 1-.3.3 0 .5 0 .7.1s.4.2.6.4q.3.3.3.6c.1.2.1.5.1.8 0 .1 0 .2-.1.2s-.1.1-.2.1h-2.8v-.5h2.6l-.1.1c0-.3 0-.5-.1-.7s-.2-.4-.4-.5-.4-.2-.6-.2c-.3 0-.5.1-.7.2s-.3.3-.4.5-.1.5-.1.8c0 .5.1.9.4 1.1.2.3.6.4 1 .4.2 0 .4 0 .5-.1.2 0 .4-.1.5-.2.1 0 .2-.1.2-.1.1 0 .1 0 .2.1l.1.1v.2c0 .1-.1.1-.2.2l-.6.3c-.2.1-.4.2-.7.2m3.9 0c-.2 0-.5 0-.7-.1s-.5-.2-.7-.3c-.1 0-.1-.1-.1-.1v-.2c0-.1 0-.1.1-.2l.1-.1h.2l.6.3c.2 0 .4.1.6.1.3 0 .5-.1.7-.2s.2-.3.2-.4c0-.2-.1-.3-.2-.4s-.3-.1-.5-.2l-.8-.2c-.3-.1-.6-.2-.8-.4s-.3-.4-.3-.7c0-.2.1-.5.2-.6.1-.2.3-.3.6-.4.2-.1.5-.1.8-.1.2 0 .5 0 .7.1l.6.3c.1 0 .1.1.1.1v.2c0 .1 0 .1-.1.1s-.1.1-.1.1h-.2c-.2-.1-.3-.2-.5-.2s-.3-.1-.5-.1c-.3 0-.5.1-.7.2s-.2.3-.2.5c0 .1 0 .3.1.4s.2.2.4.2l.8.2c.4.1.6.2.8.4s.3.4.3.7c0 .4-.1.7-.4.9-.2 0-.6.1-1.1.1m4.2 0c-.3 0-.6-.1-.8-.2s-.4-.3-.5-.5-.2-.5-.2-.8v-2h-.5c-.1 0-.2 0-.2-.1-.1-.1-.1-.1-.1-.2s0-.2.1-.2.1-.1.2-.1h.5v-.9c0-.1 0-.2.1-.3s.2-.1.3-.1.2 0 .3.1.1.2.1.3v.9h1c.1 0 .2 0 .2.1.1 0 .1.1.1.2s0 .2-.1.2c-.1.1-.1.1-.2.1h-1v1.9c0 .3.1.5.2.7s.3.2.6.2h.6s.1.1.1.2v.2c0 .1-.1.1-.1.1-.1 0-.2 0-.3.1-.2.1-.3.1-.4.1"/><path fill="#3C356C" d="M215.8 49.8v14.4c0 3.4-2.7 6.1-6.1 6.1h-65.5c-3.4 0-6.1-2.7-6.1-6.1V49.8c0-3.4 2.7-6.1 6.1-6.1h65.5c3.4 0 6.1 2.8 6.1 6.1"/><path fill="#fff" d="M166.2 59.1c-.1 0-.2 0-.3-.1s-.1-.2-.1-.3v-3.3c0-.1 0-.2.1-.3s.2-.1.3-.1.2 0 .3.1.1.2.1.3v.7l-.1-.1c.1-.3.3-.5.5-.7s.5-.2.8-.2.6.1.8.2c.2.2.3.4.4.7h-.1c.1-.3.3-.5.5-.7.3-.2.5-.3.9-.3.3 0 .5.1.7.2s.3.3.4.5.1.5.1.9v2.1c0 .1 0 .2-.1.3s-.2.1-.3.1-.2 0-.3-.1-.1-.2-.1-.3v-2.1c0-.3-.1-.6-.2-.8s-.3-.2-.6-.2-.6.1-.7.3-.3.5-.3.9v1.9c0 .1 0 .2-.1.3s-.2.1-.3.1-.2 0-.3-.1-.1-.2-.1-.3v-2.1c0-.3-.1-.6-.2-.8s-.3-.2-.6-.2-.6.1-.7.3-.3.5-.3.9v1.9c.2.3.1.4-.1.4m8.5 0c-.4 0-.8-.1-1.1-.2s-.5-.4-.7-.7-.3-.7-.3-1.1.1-.8.2-1.1c.2-.3.4-.6.7-.7.3-.2.6-.3 1-.3.3 0 .5 0 .7.1s.4.2.6.4q.3.3.3.6c.1.2.1.5.1.8 0 .1 0 .2-.1.2s-.1.1-.2.1h-2.8v-.5h2.6l-.1.1c0-.3 0-.5-.1-.7s-.2-.4-.4-.5-.4-.2-.6-.2c-.3 0-.5.1-.7.2s-.3.3-.4.5-.1.5-.1.8c0 .5.1.9.4 1.1.2.3.6.4 1 .4.2 0 .4 0 .5-.1.2 0 .4-.1.5-.2.1 0 .2-.1.2-.1.1 0 .1 0 .2.1l.1.1v.2c0 .1-.1.1-.2.2l-.6.3c-.3.2-.5.2-.7.2m2.9 0c-.1 0-.2 0-.3-.1s-.1-.2-.1-.3v-3.3c0-.1 0-.2.1-.3s.2-.1.3-.1.2 0 .3.1.1.2.1.3v.6h-.1c.1-.3.3-.6.5-.7s.5-.3.9-.3c.1 0 .2 0 .2.1.1 0 .1.1.1.2s0 .2-.1.2c-.1.1-.1.1-.3.1h-.1c-.4 0-.6.2-.8.4s-.3.5-.3.8v1.9c0 .1 0 .2-.1.3s-.2.1-.3.1m4.3 1.5c-.3 0-.6 0-.9-.1s-.5-.2-.7-.3c-.1 0-.1-.1-.1-.2v-.2c0-.1 0-.1.1-.2l.1-.1h.2c.2.1.5.2.7.3.2 0 .4.1.6.1q.6 0 .9-.3t.3-.9V58h.1c-.1.3-.2.5-.5.7q-.45.3-.9.3c-.4 0-.7-.1-.9-.2-.3-.2-.5-.4-.6-.7s-.2-.6-.2-1c0-.3 0-.6.1-.8s.2-.5.4-.6c.2-.2.3-.3.6-.4.2-.1.5-.1.7-.1q.6 0 .9.3c.3.2.4.4.5.7l-.1.1v-.7c0-.1 0-.2.1-.3s.2-.1.3-.1.2 0 .3.1.1.2.1.3V59c0 .6-.2 1.1-.5 1.4-.5.1-1 .2-1.6.2m-.1-2.2c.2 0 .5-.1.6-.2s.3-.3.4-.5.1-.5.1-.7c0-.4-.1-.8-.3-1s-.5-.4-.9-.4c-.2 0-.5.1-.6.2-.2.1-.3.3-.4.5s-.1.5-.1.7c0 .4.1.8.3 1 .3.2.6.4.9.4m5 .7c-.4 0-.8-.1-1.1-.2s-.5-.4-.7-.7-.3-.7-.3-1.1.1-.8.2-1.1c.2-.3.4-.6.7-.7.3-.2.6-.3 1-.3.3 0 .5 0 .7.1s.4.2.6.4q.3.3.3.6c.1.2.1.5.1.8 0 .1 0 .2-.1.2s-.1.1-.2.1h-2.8v-.5h2.6l-.1.1c0-.3 0-.5-.1-.7s-.2-.4-.4-.5-.4-.2-.6-.2c-.3 0-.5.1-.7.2s-.3.3-.4.5-.1.5-.1.8c0 .5.1.9.4 1.1.2.3.6.4 1 .4.2 0 .4 0 .5-.1.2 0 .4-.1.5-.2.1 0 .2-.1.2-.1.1 0 .1 0 .2.1l.1.1v.2c0 .1-.1.1-.2.2l-.6.3c-.3.2-.5.2-.7.2"/><path fill="#3C356C" d="M215.8 161.5v14.4c0 3.4-2.7 6.1-6.1 6.1h-65.5c-3.4 0-6.1-2.7-6.1-6.1v-14.4c0-3.4 2.7-6.1 6.1-6.1h65.5c3.4 0 6.1 2.7 6.1 6.1"/><path fill="#fff" d="M157.7 170.8c-.3 0-.5-.1-.7-.2s-.4-.3-.5-.4c-.1-.2-.2-.4-.2-.6 0-.3.1-.5.2-.7s.4-.3.7-.4.8-.1 1.4-.1h.4v.5h-.4c-.4 0-.8 0-1 .1s-.4.1-.5.2-.1.2-.1.4.1.4.2.5.4.2.6.2.4-.1.5-.2c.2-.1.3-.2.4-.4s.1-.4.1-.6v-.9c0-.3-.1-.6-.2-.7s-.4-.2-.7-.2c-.2 0-.4 0-.6.1-.2 0-.4.1-.6.2-.1 0-.2.1-.2 0s-.1 0-.1-.1-.1-.1-.1-.2v-.2c0-.1.1-.1.2-.1.2-.1.5-.2.7-.3s.5-.1.7-.1c.4 0 .6.1.9.2s.4.3.5.5.2.5.2.9v2.2c0 .1 0 .2-.1.3s-.1.1-.3.1c-.1 0-.2 0-.3-.1s-.1-.2-.1-.3v-.6h.1c0 .2-.1.4-.2.5s-.3.3-.4.3-.3.2-.5.2m4.6 0c-.3 0-.7-.1-.9-.2s-.5-.4-.6-.7-.2-.7-.2-1.1.1-.8.2-1.1.3-.5.6-.7.6-.2.9-.2.7.1.9.3c.3.2.4.4.5.7h-.1v-2.4c0-.1 0-.2.1-.3s.2-.1.3-.1.2 0 .3.1.1.2.1.3v5.1c0 .1 0 .2-.1.3s-.2.1-.3.1-.2 0-.3-.1-.1-.2-.1-.3v-.7l.1.1c-.1.3-.3.5-.5.7-.2.1-.5.2-.9.2m.2-.6c.2 0 .4-.1.6-.2s.3-.3.4-.5.1-.5.1-.8c0-.5-.1-.8-.3-1.1s-.5-.4-.9-.4c-.2 0-.4.1-.6.2s-.3.3-.4.5-.1.5-.1.8c0 .5.1.8.3 1.1.3.3.5.4.9.4m2.4 2.1h-.2l-.1-.1v-.2c0-.1 0-.1.1-.1s.1-.1.2-.1c.3 0 .5-.1.6-.2s.2-.4.2-.6v-3.8c0-.1 0-.2.1-.3s.2-.1.3-.1.2 0 .3.1.1.2.1.3v3.7c0 .3-.1.6-.2.8s-.3.4-.5.5c-.3 0-.6.1-.9.1m1.1-6.5c-.1 0-.3 0-.3-.1-.1-.1-.1-.2-.1-.3s0-.2.1-.3.2-.1.3-.1c.2 0 .3 0 .4.1s.1.2.1.3 0 .2-.1.3-.2.1-.4.1m3 5c-.3 0-.6-.1-.8-.2s-.4-.3-.5-.5-.2-.5-.2-.9v-2.1c0-.1 0-.2.1-.3s.2-.1.3-.1.2 0 .3.1.1.2.1.3v2.1c0 .3.1.6.2.7.1.2.4.2.6.2.3 0 .6-.1.8-.3q.3-.3.3-.9V167c0-.1 0-.2.1-.3s.2-.1.3-.1.2 0 .3.1.1.2.1.3v3.3c0 .3-.1.4-.4.4-.1 0-.2 0-.3-.1s-.1-.2-.1-.3v-.7l.1.1c-.1.3-.3.6-.5.7s-.5.4-.8.4m4.6 0c-.2 0-.5 0-.7-.1s-.5-.2-.7-.3c-.1 0-.1-.1-.1-.1v-.2c0-.1 0-.1.1-.2l.1-.1h.2l.6.3c.2 0 .4.1.6.1.3 0 .5-.1.7-.2s.2-.3.2-.4c0-.2-.1-.3-.2-.4s-.3-.1-.5-.2l-.8-.2c-.3-.1-.6-.2-.8-.4s-.3-.4-.3-.7c0-.2.1-.5.2-.6.1-.2.3-.3.6-.4.2-.1.5-.1.8-.1.2 0 .5 0 .7.1l.6.3c.1 0 .1.1.1.1v.2c0 .1 0 .1-.1.1s-.1.1-.1.1h-.2c-.2-.1-.3-.2-.5-.2s-.3-.1-.5-.1c-.3 0-.5.1-.7.2s-.2.3-.2.5c0 .1 0 .3.1.4s.2.2.4.2l.8.2c.4.1.6.2.8.4s.3.4.3.7c0 .4-.1.7-.4.9-.2 0-.6.1-1.1.1m4.2 0c-.3 0-.6-.1-.8-.2s-.4-.3-.5-.5-.2-.5-.2-.8v-2h-.5c-.1 0-.2 0-.2-.1-.1-.1-.1-.1-.1-.2s0-.2.1-.2.1-.1.2-.1h.5v-.9c0-.1 0-.2.1-.3s.2-.1.3-.1.2 0 .3.1.1.2.1.3v.9h1c.1 0 .2 0 .2.1.1 0 .1.1.1.2s0 .2-.1.2c-.1.1-.1.1-.2.1h-1v1.9c0 .3.1.5.2.7s.3.2.6.2h.6s.1.1.1.2v.2c0 .1-.1.1-.1.1-.1 0-.2 0-.3.1-.3.1-.4.1-.4.1m5.1 0c-.4 0-.8-.1-1-.3s-.5-.4-.7-.7-.2-.7-.2-1.1c0-.3 0-.6.1-.9s.2-.5.4-.6c.2-.2.4-.3.6-.4s.5-.1.8-.1c.2 0 .4 0 .6.1l.6.3c.1 0 .1.1.1.2v.2c0 .1 0 .1-.1.2 0 0-.1.1-.2.1s-.1 0-.2-.1-.3-.2-.4-.2-.3-.1-.4-.1c-.2 0-.4 0-.5.1-.2.1-.3.2-.4.3s-.2.3-.2.5c-.1.2-.1.4-.1.6 0 .5.1.8.3 1.1s.5.4.9.4c.1 0 .3 0 .4-.1.1 0 .3-.1.4-.2.1 0 .1-.1.2-.1s.1 0 .2.1l.1.1v.2c0 .1-.1.1-.1.1l-.6.3zm3.7 0c-.4 0-.7-.1-1-.3s-.5-.4-.7-.7-.2-.7-.2-1.1c0-.3 0-.6.1-.9s.2-.5.4-.6c.2-.2.4-.3.6-.4s.5-.1.8-.1c.4 0 .7.1 1 .3s.5.4.7.7.2.7.2 1.1c0 .3 0 .6-.1.9s-.2.5-.4.7-.4.3-.6.4c-.3-.1-.5 0-.8 0m0-.6c.2 0 .4-.1.6-.2s.3-.3.4-.5.1-.5.1-.8c0-.5-.1-.8-.3-1.1s-.5-.4-.9-.4c-.2 0-.4.1-.6.2s-.3.3-.4.5-.1.5-.1.8c0 .5.1.8.3 1.1s.5.4.9.4m4.4.6c-.3 0-.7-.1-.9-.2s-.5-.4-.6-.7-.2-.7-.2-1.1.1-.8.2-1.1.3-.5.6-.7.6-.2.9-.2.7.1.9.3c.3.2.4.4.5.7h-.1v-2.4c0-.1 0-.2.1-.3s.2-.1.3-.1.2 0 .3.1.1.2.1.3v5.1c0 .1 0 .2-.1.3s-.2.1-.3.1-.2 0-.3-.1-.1-.2-.1-.3v-.7l.1.1c-.1.3-.3.5-.5.7-.2.1-.6.2-.9.2m.2-.6c.2 0 .4-.1.6-.2s.3-.3.4-.5.1-.5.1-.8c0-.5-.1-.8-.3-1.1s-.5-.4-.9-.4c-.2 0-.4.1-.6.2s-.3.3-.4.5-.1.5-.1.8c0 .5.1.8.3 1.1s.5.4.9.4m4.9.6c-.4 0-.8-.1-1.1-.2s-.5-.4-.7-.7-.3-.7-.3-1.1.1-.8.2-1.1c.2-.3.4-.6.7-.7.3-.2.6-.3 1-.3.3 0 .5 0 .7.1s.4.2.6.4q.3.3.3.6c.1.2.1.5.1.8 0 .1 0 .2-.1.2s-.1.1-.2.1h-2.8v-.5h2.6l-.1.1c0-.3 0-.5-.1-.7s-.2-.4-.4-.5-.4-.2-.6-.2c-.3 0-.5.1-.7.2s-.3.3-.4.5-.1.5-.1.8c0 .5.1.9.4 1.1.2.3.6.4 1 .4.2 0 .4 0 .5-.1.2 0 .4-.1.5-.2.1 0 .2-.1.2-.1.1 0 .1 0 .2.1l.1.1v.2c0 .1-.1.1-.2.2l-.6.3c-.2.2-.5.2-.7.2"/><path fill="#3C356C" d="M322.3 49.8v14.4c0 3.4-2.7 6.1-6.1 6.1h-65.5c-3.4 0-6.1-2.7-6.1-6.1V49.8c0-3.4 2.7-6.1 6.1-6.1h65.5c3.4 0 6.1 2.8 6.1 6.1"/><path fill="#fff" d="M270.8 60.6c-.1 0-.2 0-.3-.1s-.1-.2-.1-.3v-4.8c0-.1 0-.2.1-.3s.2-.1.3-.1.2 0 .3.1.1.2.1.3v.7l-.1-.1c.1-.3.3-.5.5-.7q.45-.3.9-.3c.4 0 .7.1.9.2.3.2.5.4.6.7s.2.7.2 1.1-.1.8-.2 1.1-.3.6-.6.7c-.3.2-.6.2-.9.2s-.7-.1-.9-.3c-.3-.2-.4-.4-.5-.7h.1v2.1c0 .1 0 .2-.1.3s-.2.2-.3.2m1.5-2.1c.2 0 .4-.1.6-.2s.3-.3.4-.5.1-.5.1-.8c0-.5-.1-.8-.3-1.1s-.5-.4-.9-.4c-.2 0-.4.1-.6.2s-.3.3-.4.5-.1.5-.1.8c0 .5.1.8.3 1.1.3.3.6.4.9.4m4.4.6c-.3 0-.6-.1-.8-.2s-.4-.3-.5-.5-.2-.5-.2-.9v-2.1c0-.1 0-.2.1-.3s.2-.1.3-.1.2 0 .3.1.1.2.1.3v2.1c0 .3.1.6.2.7.1.2.4.2.6.2.3 0 .6-.1.8-.3q.3-.3.3-.9v-1.9c0-.1 0-.2.1-.3s.2-.1.3-.1.2 0 .3.1.1.2.1.3v3.3c0 .3-.1.4-.4.4-.1 0-.2 0-.3-.1s-.1-.2-.1-.3V58l.1.1c-.1.3-.3.6-.5.7s-.5.3-.8.3m5.2 0q-.6 0-.9-.3c-.3-.2-.4-.4-.5-.7l.1-.1v.7c0 .1 0 .2-.1.3s-.2.1-.3.1-.2 0-.3-.1-.1-.2-.1-.3v-5.1c0-.1 0-.2.1-.3s.2-.1.3-.1.2 0 .3.1.1.2.1.3V56h-.1c.1-.3.3-.5.5-.7s.6-.3.9-.3.7.1.9.2c.3.2.5.4.6.7s.2.7.2 1.1-.1.8-.2 1.1-.4.6-.6.7-.5.3-.9.3m-.1-.6c.2 0 .4-.1.6-.2s.3-.3.4-.5.1-.5.1-.8c0-.5-.1-.8-.3-1.1s-.5-.4-.9-.4c-.2 0-.4.1-.6.2s-.3.3-.4.5-.1.5-.1.8c0 .5.1.8.3 1.1s.5.4.9.4m4.1.6c-.4 0-.7-.1-.9-.4-.2-.2-.3-.6-.3-1.1v-4.1c0-.1 0-.2.1-.3s.2-.1.3-.1.2 0 .3.1.1.2.1.3v4c0 .3.1.5.2.6s.3.2.5.2h.3v.2c0 .1 0 .2-.1.2s-.1.1-.2.1h-.1c-.1.3-.1.3-.2.3m1.6-4.9c-.1 0-.3 0-.3-.1-.1-.1-.1-.2-.1-.3s0-.2.1-.3.2-.1.3-.1c.2 0 .3 0 .4.1s.1.2.1.3 0 .2-.1.3-.3.1-.4.1m0 4.9c-.1 0-.2 0-.3-.1s-.1-.2-.1-.3v-3.3c0-.1 0-.2.1-.3s.2-.1.3-.1.2 0 .3.1.1.2.1.3v3.3c0 .1 0 .2-.1.3s-.2.1-.3.1m2.9 0c-.2 0-.5 0-.7-.1s-.5-.2-.7-.3c-.1 0-.1-.1-.1-.1v-.2c0-.1 0-.1.1-.2l.1-.1h.2l.6.3c.2 0 .4.1.6.1.3 0 .5-.1.7-.2s.2-.3.2-.4c0-.2-.1-.3-.2-.4s-.3-.1-.5-.2l-.8-.2c-.3-.1-.6-.2-.8-.4s-.3-.4-.3-.7c0-.2.1-.5.2-.6.1-.2.3-.3.6-.4.2-.1.5-.1.8-.1.2 0 .5 0 .7.1l.6.3c.1 0 .1.1.1.1v.2c0 .1 0 .1-.1.1s-.1.1-.1.1h-.2c-.2-.1-.3-.2-.5-.2s-.3-.1-.5-.1c-.3 0-.5.1-.7.2s-.2.3-.2.5c0 .1 0 .3.1.4s.2.2.4.2l.8.2c.4.1.6.2.8.4s.3.4.3.7c0 .4-.1.7-.4.9-.2 0-.6.1-1.1.1m3 0c-.1 0-.2 0-.3-.1s-.1-.2-.1-.3v-5.1c0-.1 0-.2.1-.3s.2-.1.3-.1.2 0 .3.1.1.2.1.3v2.3h-.1c.1-.3.3-.5.6-.7s.6-.2.9-.2.6.1.8.2.4.3.5.5.2.5.2.9v2.1c0 .1 0 .2-.1.3s-.2.1-.3.1-.2 0-.3-.1-.1-.2-.1-.3v-2.1c0-.4-.1-.6-.2-.8s-.4-.2-.7-.2-.6.1-.8.3q-.3.3-.3.9v1.9c-.1.3-.3.4-.5.4"/><path stroke="#3C356C" stroke-miterlimit="10" stroke-width=".665" d="M117.7 129.4v34.5c0 2.6 2.1 4.8 4.8 4.8h15.6"/><path fill="#3C356C" d="m117.7 126.1-1.9 4.6 1.9-1.1 1.9 1.1z"/><path stroke="#3C356C" stroke-miterlimit="10" stroke-width=".665" d="M117.7 99.6V61.8c0-2.6 2.1-4.8 4.8-4.8h12.4"/><path fill="#3C356C" d="m138.1 57-4.6 1.9 1.1-1.9-1.1-1.9z"/><path stroke="#3C356C" stroke-miterlimit="10" stroke-width=".665" d="M543.8 129.4v34.5c0 2.6 2.1 4.8 4.8 4.8h48"/><path fill="#3C356C" d="m543.8 126.1-1.9 4.6 1.9-1.1 1.9 1.1z"/><path stroke="#3C356C" stroke-miterlimit="10" stroke-width=".665" d="M543.8 99.6V61.8c0-2.6 2.1-4.8 4.8-4.8h44.7"/><path fill="#3C356C" d="m596.5 57-4.6 1.9L593 57l-1.1-1.9z"/><path stroke="#3C356C" stroke-miterlimit="10" stroke-width=".665" d="M339.5 96.3V61.8c0-2.6-2.1-4.8-4.8-4.8h-12.4"/><path fill="#3C356C" d="m339.5 99.6 1.9-4.7-1.9 1.1-1.9-1.1z"/><path stroke="#3C356C" stroke-miterlimit="10" stroke-width=".665" d="M344.6 126.1v37.8c0 2.6-2.1 4.8-4.8 4.8h-14.2"/><path fill="#3C356C" d="m322.3 168.7 4.6-1.9-1.1 1.9 1.1 1.8z"/><path stroke="#3C356C" stroke-miterlimit="10" stroke-width=".665" d="M726.9 96.3V61.7c0-2.6-2.1-4.8-4.8-4.8h-48"/><path fill="#3C356C" d="m726.9 99.6 1.9-4.7-1.9 1.1-1.9-1.1z"/><path stroke="#3C356C" stroke-miterlimit="10" stroke-width=".665" d="M726.9 126.1v37.8c0 2.6-2.1 4.8-4.8 4.8h-44.7"/><path fill="#3C356C" d="m674.2 168.7 4.6-1.9-1.1 1.9 1.1 1.8z"/><path stroke="#3C356C" stroke-miterlimit="10" stroke-width=".665" d="M350.7 96.3v-81c0-2.6-2.1-4.8-4.8-4.8h-279c-2.6 0-4.8 2.1-4.8 4.8v194.1c0 2.6 2.1 4.8 4.8 4.8h212.5c2.6 0 4.8-2.1 4.8-4.8v-27.5"/><path fill="#3C356C" d="m350.7 99.6 1.9-4.7-1.9 1.1-1.9-1.1z"/><path stroke="#3C356C" stroke-miterlimit="10" stroke-width=".665" d="M411.8 112.8h-30.2"/><path fill="#3C356C" d="m415.1 112.8-4.7-1.9 1.1 1.9-1.1 1.9z"/><path stroke="#3C356C" stroke-miterlimit="10" stroke-width=".665" d="M501.7 112.8h-30.3"/><path fill="#3C356C" d="m504.9 112.8-4.6-1.9 1.1 1.9-1.1 1.9zm-89.5 36.6c-.1 0-.2 0-.3-.1s-.1-.2-.1-.3v-3.3c0-.1 0-.2.1-.3s.2-.1.3-.1.2 0 .3.1.1.2.1.3v.7l-.1-.1c.1-.3.3-.5.5-.7s.5-.2.8-.2.6.1.8.2c.2.2.3.4.4.7h-.1c.1-.3.3-.5.5-.7.3-.2.5-.3.9-.3.3 0 .5.1.7.2s.3.3.4.5.1.5.1.9v2.1c0 .1 0 .2-.1.3s-.2.1-.3.1-.2 0-.3-.1-.1-.2-.1-.3v-2.1c0-.3-.1-.6-.2-.8s-.3-.2-.6-.2-.6.1-.7.3-.3.5-.3.9v1.9c0 .1 0 .2-.1.3s-.2.1-.3.1-.2 0-.3-.1-.1-.2-.1-.3v-2.1c0-.3-.1-.6-.2-.8s-.3-.2-.6-.2-.6.1-.7.3-.3.5-.3.9v1.9c.2.3.1.4-.1.4m7.9 0c-.3 0-.5-.1-.7-.2s-.4-.3-.5-.4c-.1-.2-.2-.4-.2-.6 0-.3.1-.5.2-.7s.4-.3.7-.4.8-.1 1.4-.1h.4v.5h-.4c-.4 0-.8 0-1 .1s-.4.1-.5.2-.1.2-.1.4.1.4.2.5.4.2.6.2.4-.1.5-.2c.2-.1.3-.2.4-.4s.1-.4.1-.6v-.9c0-.3-.1-.6-.2-.7s-.4-.2-.7-.2c-.2 0-.4 0-.6.1-.2 0-.4.1-.6.2-.1 0-.2.1-.2 0s-.1 0-.1-.1-.1-.1-.1-.2v-.2c0-.1.1-.1.2-.1.2-.1.5-.2.7-.3s.5-.1.7-.1c.4 0 .6.1.9.2s.4.3.5.5.2.5.2.9v2.2c0 .1 0 .2-.1.3s-.1.1-.3.1c-.1 0-.2 0-.3-.1s-.1-.2-.1-.3v-.6h.1c0 .2-.1.4-.2.5s-.3.3-.4.3-.3.2-.5.2m3.4-4.9c-.1 0-.3 0-.3-.1-.1-.1-.1-.2-.1-.3s0-.2.1-.3.2-.1.3-.1c.2 0 .3 0 .4.1s.1.2.1.3 0 .2-.1.3-.2.1-.4.1m0 4.9c-.1 0-.2 0-.3-.1s-.1-.2-.1-.3v-3.3c0-.1 0-.2.1-.3s.2-.1.3-.1.2 0 .3.1.1.2.1.3v3.3c0 .1 0 .2-.1.3 0 .1-.1.1-.3.1m2 0c-.1 0-.2 0-.3-.1s-.1-.2-.1-.3v-3.3c0-.1 0-.2.1-.3s.2-.1.3-.1.2 0 .3.1.1.2.1.3v.7l-.1-.1c.1-.3.3-.5.6-.7s.6-.2.9-.2.6.1.8.2.4.3.5.5.2.5.2.9v2.1c0 .1 0 .2-.1.3s-.2.1-.3.1-.2 0-.3-.1-.1-.2-.1-.3V147c0-.4-.1-.6-.2-.8s-.4-.2-.7-.2-.6.1-.8.3q-.3.3-.3.9v1.9c-.1.2-.3.3-.5.3m8.5 0q-.6 0-.9-.3c-.3-.2-.4-.4-.5-.7l.1-.1v.7c0 .1 0 .2-.1.3s-.2.1-.3.1-.2 0-.3-.1-.1-.2-.1-.3v-5.1c0-.1 0-.2.1-.3s.2-.1.3-.1.2 0 .3.1.1.2.1.3v2.4h-.1c.1-.3.3-.5.5-.7s.6-.3.9-.3.7.1.9.2c.3.2.5.4.6.7s.2.7.2 1.1-.1.8-.2 1.1-.4.6-.6.7-.5.3-.9.3m-.2-.6c.2 0 .4-.1.6-.2s.3-.3.4-.5.1-.5.1-.8c0-.5-.1-.8-.3-1.1s-.5-.4-.9-.4c-.2 0-.4.1-.6.2s-.3.3-.4.5-.1.5-.1.8c0 .5.1.8.3 1.1.3.3.6.4.9.4m3.3.6c-.1 0-.2 0-.3-.1s-.1-.2-.1-.3v-3.3c0-.1 0-.2.1-.3s.2-.1.3-.1.2 0 .3.1.1.2.1.3v.6h-.1c.1-.3.3-.6.5-.7s.5-.3.9-.3c.1 0 .2 0 .2.1.1 0 .1.1.1.2s0 .2-.1.2c-.1.1-.1.1-.3.1h-.1c-.4 0-.6.2-.8.4s-.3.5-.3.8v1.9c0 .1 0 .2-.1.3s-.2.1-.3.1m3.8 0c-.3 0-.5-.1-.7-.2s-.4-.3-.5-.4c-.1-.2-.2-.4-.2-.6 0-.3.1-.5.2-.7s.4-.3.7-.4.8-.1 1.4-.1h.4v.5h-.4c-.4 0-.8 0-1 .1s-.4.1-.5.2-.1.2-.1.4.1.4.2.5.4.2.6.2.4-.1.5-.2c.2-.1.3-.2.4-.4s.1-.4.1-.6v-.9c0-.3-.1-.6-.2-.7s-.4-.2-.7-.2c-.2 0-.4 0-.6.1-.2 0-.4.1-.6.2-.1 0-.2.1-.2 0s-.1 0-.1-.1-.1-.1-.1-.2v-.2c0-.1.1-.1.2-.1.2-.1.5-.2.7-.3s.5-.1.7-.1c.4 0 .6.1.9.2s.4.3.5.5.2.5.2.9v2.2c0 .1 0 .2-.1.3s-.1.1-.3.1c-.1 0-.2 0-.3-.1s-.1-.2-.1-.3v-.6h.1c0 .2-.1.4-.2.5s-.3.3-.4.3-.2.2-.5.2m3.5 0c-.1 0-.2 0-.3-.1s-.1-.2-.1-.3v-3.3c0-.1 0-.2.1-.3s.2-.1.3-.1.2 0 .3.1.1.2.1.3v.7l-.1-.1c.1-.3.3-.5.6-.7s.6-.2.9-.2.6.1.8.2.4.3.5.5.2.5.2.9v2.1c0 .1 0 .2-.1.3s-.2.1-.3.1-.2 0-.3-.1-.1-.2-.1-.3V147c0-.4-.1-.6-.2-.8s-.4-.2-.7-.2-.6.1-.8.3q-.3.3-.3.9v1.9c-.1.2-.3.3-.5.3m6 0c-.4 0-.8-.1-1-.3s-.5-.4-.7-.7-.2-.7-.2-1.1c0-.3 0-.6.1-.9s.2-.5.4-.6c.2-.2.4-.3.6-.4s.5-.1.8-.1c.2 0 .4 0 .6.1l.6.3c.1 0 .1.1.1.2v.2c0 .1 0 .1-.1.2 0 0-.1.1-.2.1s-.1 0-.2-.1-.3-.2-.4-.2-.3-.1-.4-.1c-.2 0-.4 0-.5.1-.2.1-.3.2-.4.3s-.2.3-.2.5c-.1.2-.1.4-.1.6 0 .5.1.8.3 1.1s.5.4.9.4c.1 0 .3 0 .4-.1.1 0 .3-.1.4-.2.1 0 .1-.1.2-.1s.1 0 .2.1l.1.1v.2c0 .1-.1.1-.1.1l-.6.3zm2.5 0c-.1 0-.2 0-.3-.1s-.1-.2-.1-.3v-5.1c0-.1 0-.2.1-.3s.2-.1.3-.1.2 0 .3.1.1.2.1.3v2.3h-.1c.1-.3.3-.5.6-.7s.6-.2.9-.2.6.1.8.2.4.3.5.5.2.5.2.9v2.1c0 .1 0 .2-.1.3s-.2.1-.3.1-.2 0-.3-.1-.1-.2-.1-.3v-2.1c0-.4-.1-.6-.2-.8s-.4-.2-.7-.2-.6.1-.8.3q-.3.3-.3.9v1.9c-.1.3-.3.4-.5.4m8.1 0c-.4 0-.7-.1-1-.3s-.5-.4-.7-.7-.2-.7-.2-1.1c0-.3 0-.6.1-.9s.2-.5.4-.6c.2-.2.4-.3.6-.4s.5-.1.8-.1c.4 0 .7.1 1 .3s.5.4.7.7.2.7.2 1.1c0 .3 0 .6-.1.9s-.2.5-.4.7-.4.3-.6.4zm0-.6c.2 0 .4-.1.6-.2s.3-.3.4-.5.1-.5.1-.8c0-.5-.1-.8-.3-1.1s-.5-.4-.9-.4c-.2 0-.4.1-.6.2s-.3.3-.4.5-.1.5-.1.8c0 .5.1.8.3 1.1.3.3.6.4.9.4m3.5.6c-.1 0-.2 0-.3-.1s-.1-.2-.1-.3v-3.1h-.5c-.1 0-.2 0-.2-.1-.1-.1-.1-.1-.1-.2s0-.2.1-.2.1-.1.2-.1h.7l-.2.2v-.3c0-.5.1-.9.4-1.2s.6-.4 1.1-.5h.5l.1.1v.2c0 .1 0 .1-.1.2l-.1.1h-.2c-.3 0-.6.1-.7.3s-.2.4-.2.7v.3l-.1-.1h.9c.1 0 .2 0 .2.1.1 0 .1.1.1.2s0 .2-.1.2c-.1.1-.1.1-.2.1h-.9v3.1c0 .3-.1.4-.3.4m-44.4 9.3c-.3 0-.6 0-.9-.1s-.5-.2-.7-.3c-.1 0-.1-.1-.1-.2v-.2c0-.1 0-.1.1-.2l.1-.1h.2c.2.1.5.2.7.3.2 0 .4.1.6.1q.6 0 .9-.3t.3-.9v-.9h.1c-.1.3-.2.5-.5.7q-.45.3-.9.3c-.4 0-.7-.1-.9-.2-.3-.2-.5-.4-.6-.7s-.2-.6-.2-1c0-.3 0-.6.1-.8s.2-.5.4-.6c.2-.2.3-.3.6-.4.2-.1.5-.1.7-.1q.6 0 .9.3c.3.2.4.4.5.7l-.1.1v-.7c0-.1 0-.2.1-.3s.2-.1.3-.1.2 0 .3.1.1.2.1.3v3.4c0 .6-.2 1.1-.5 1.4-.5.3-1 .4-1.6.4m-.1-2.2c.2 0 .5-.1.6-.2s.3-.3.4-.5.1-.5.1-.7c0-.4-.1-.8-.3-1s-.5-.4-.9-.4c-.2 0-.5.1-.6.2-.2.1-.3.3-.4.5s-.1.5-.1.7c0 .4.1.8.3 1 .3.3.6.4.9.4m3.5-4.2c-.1 0-.3 0-.3-.1-.1-.1-.1-.2-.1-.3s0-.2.1-.3.2-.1.3-.1c.2 0 .3 0 .4.1s.1.2.1.3 0 .2-.1.3-.2.1-.4.1m0 4.9c-.1 0-.2 0-.3-.1s-.1-.2-.1-.3v-3.3c0-.1 0-.2.1-.3s.2-.1.3-.1.2 0 .3.1.1.2.1.3v3.3c0 .1 0 .2-.1.3s-.2.1-.3.1m3.2.1c-.3 0-.6-.1-.8-.2s-.4-.3-.5-.5-.2-.5-.2-.8v-2h-.4c-.1 0-.2 0-.2-.1-.1-.1-.1-.1-.1-.2s0-.2.1-.2.1-.1.2-.1h.5v-.9c0-.1 0-.2.1-.3s.2-.1.3-.1.2 0 .3.1.1.2.1.3v.9h1c.1 0 .2 0 .2.1.1 0 .1.1.1.2s0 .2-.1.2c-.1.1-.1.1-.2.1h-1v1.9c0 .3.1.5.2.7s.3.2.6.2h.6s.1.1.1.2v.2c0 .1-.1.1-.1.1-.1 0-.2 0-.3.1-.3.1-.4.1-.5.1m3 0c-.4 0-.7-.1-1-.3s-.5-.4-.7-.7-.2-.7-.2-1.1c0-.3 0-.6.1-.9s.2-.5.4-.6c.2-.2.4-.3.6-.4s.5-.1.8-.1c.4 0 .7.1 1 .3s.5.4.7.7.2.7.2 1.1c0 .3 0 .6-.1.9s-.2.5-.4.7-.4.3-.6.4c-.3-.1-.6 0-.8 0m0-.6c.2 0 .4-.1.6-.2s.3-.3.4-.5.1-.5.1-.8c0-.5-.1-.8-.3-1.1s-.5-.4-.9-.4c-.2 0-.4.1-.6.2s-.3.3-.4.5-.1.5-.1.8c0 .5.1.8.3 1.1.2.2.5.4.9.4m3.2 2c-.1 0-.2 0-.3-.1s-.1-.2-.1-.3v-4.8c0-.1 0-.2.1-.3s.2-.1.3-.1.2 0 .3.1.1.2.1.3v.7l-.1-.1c.1-.3.3-.5.5-.7q.45-.3.9-.3c.4 0 .7.1.9.2.3.2.5.4.6.7s.2.7.2 1.1-.1.8-.2 1.1-.3.6-.6.7c-.3.2-.6.2-.9.2s-.7-.1-.9-.3c-.3-.2-.4-.4-.5-.7h.1v2.1c0 .1 0 .2-.1.3s-.2.2-.3.2m1.6-2c.2 0 .4-.1.6-.2s.3-.3.4-.5.1-.5.1-.8c0-.5-.1-.8-.3-1.1s-.5-.4-.9-.4c-.2 0-.4.1-.6.2s-.3.3-.4.5-.1.5-.1.8c0 .5.1.8.3 1.1.2.2.5.4.9.4m4.2.6c-.2 0-.5 0-.7-.1s-.5-.2-.7-.3c-.1 0-.1-.1-.1-.1v-.2c0-.1 0-.1.1-.2l.1-.1h.2l.6.3c.2 0 .4.1.6.1.3 0 .5-.1.7-.2s.2-.3.2-.4c0-.2-.1-.3-.2-.4s-.3-.1-.5-.2l-.8-.2c-.3-.1-.6-.2-.8-.4s-.3-.4-.3-.7c0-.2.1-.5.2-.6.1-.2.3-.3.6-.4.2-.1.5-.1.8-.1.2 0 .5 0 .7.1l.6.3c.1 0 .1.1.1.1v.2c0 .1 0 .1-.1.1s-.1.1-.1.1h-.2c-.2-.1-.3-.2-.5-.2s-.3-.1-.5-.1c-.3 0-.5.1-.7.2s-.2.3-.2.5c0 .1 0 .3.1.4s.2.2.4.2l.8.2c.4.1.6.2.8.4s.3.4.3.7c0 .4-.1.7-.4.9-.2 0-.6.1-1.1.1m5.1-.1c-.1 0-.2 0-.3-.1s-.1-.2-.1-.3v-3.3c0-.1 0-.2.1-.3s.2-.1.3-.1.2 0 .3.1.1.2.1.3v.6h-.1c.1-.3.3-.6.5-.7s.5-.3.9-.3c.1 0 .2 0 .2.1.1 0 .1.1.1.2s0 .2-.1.2c-.1.1-.1.1-.3.1h-.1c-.4 0-.6.2-.8.4s-.3.5-.3.8v1.9c0 .1 0 .2-.1.3s-.2.1-.3.1m4.4.1c-.4 0-.8-.1-1.1-.2s-.5-.4-.7-.7-.3-.7-.3-1.1.1-.8.2-1.1c.2-.3.4-.6.7-.7.3-.2.6-.3 1-.3.3 0 .5 0 .7.1s.4.2.6.4q.3.3.3.6c.1.2.1.5.1.8 0 .1 0 .2-.1.2s-.1.1-.2.1h-2.8v-.5h2.6l-.1.1c0-.3 0-.5-.1-.7s-.2-.4-.4-.5-.4-.2-.6-.2c-.3 0-.5.1-.7.2s-.3.3-.4.5-.1.5-.1.8c0 .5.1.9.4 1.1.2.3.6.4 1 .4.2 0 .4 0 .5-.1.2 0 .4-.1.5-.2.1 0 .2-.1.2-.1.1 0 .1 0 .2.1l.1.1v.2c0 .1-.1.1-.2.2l-.6.3c-.2.1-.5.2-.7.2m2.9 1.4c-.1 0-.2 0-.3-.1s-.1-.2-.1-.3v-4.8c0-.1 0-.2.1-.3s.2-.1.3-.1.2 0 .3.1.1.2.1.3v.7l-.1-.1c.1-.3.3-.5.5-.7q.45-.3.9-.3c.4 0 .7.1.9.2.3.2.5.4.6.7s.2.7.2 1.1-.1.8-.2 1.1-.3.6-.6.7c-.3.2-.6.2-.9.2s-.7-.1-.9-.3c-.3-.2-.4-.4-.5-.7h.1v2.1c0 .1 0 .2-.1.3s-.2.2-.3.2m1.5-2c.2 0 .4-.1.6-.2s.3-.3.4-.5.1-.5.1-.8c0-.5-.1-.8-.3-1.1s-.5-.4-.9-.4c-.2 0-.4.1-.6.2s-.3.3-.4.5-.1.5-.1.8c0 .5.1.8.3 1.1.3.2.6.4.9.4m4.6.6c-.4 0-.7-.1-1-.3s-.5-.4-.7-.7-.2-.7-.2-1.1c0-.3 0-.6.1-.9s.2-.5.4-.6c.2-.2.4-.3.6-.4s.5-.1.8-.1c.4 0 .7.1 1 .3s.5.4.7.7.2.7.2 1.1c0 .3 0 .6-.1.9s-.2.5-.4.7-.4.3-.6.4c-.2-.1-.5 0-.8 0m0-.6c.2 0 .4-.1.6-.2s.3-.3.4-.5.1-.5.1-.8c0-.5-.1-.8-.3-1.1s-.5-.4-.9-.4c-.2 0-.4.1-.6.2s-.3.3-.4.5-.1.5-.1.8c0 .5.1.8.3 1.1.3.2.6.4.9.4m-138.1 4.8v14.4c0 3.4-2.7 6.1-6.1 6.1h-65.5c-3.4 0-6.1-2.7-6.1-6.1v-14.4c0-3.4 2.7-6.1 6.1-6.1h65.5c3.4 0 6.1 2.7 6.1 6.1"/><path fill="#fff" d="M278.7 170.8c-.3 0-.6-.1-.8-.2s-.4-.3-.5-.5-.2-.5-.2-.8v-2h-.5c-.1 0-.2 0-.2-.1-.1-.1-.1-.1-.1-.2s0-.2.1-.2.1-.1.2-.1h.5v-.9c0-.1 0-.2.1-.3s.2-.1.3-.1.2 0 .3.1.1.2.1.3v.9h1c.1 0 .2 0 .2.1.1 0 .1.1.1.2s0 .2-.1.2c-.1.1-.1.1-.2.1h-1v1.9c0 .3.1.5.2.7s.3.2.6.2h.6s.1.1.1.2v.2c0 .1-.1.1-.1.1-.1 0-.2 0-.3.1-.2.1-.3.1-.4.1m3 0c-.4 0-.8-.1-1.1-.2s-.5-.4-.7-.7-.3-.7-.3-1.1.1-.8.2-1.1c.2-.3.4-.6.7-.7.3-.2.6-.3 1-.3.3 0 .5 0 .7.1s.4.2.6.4q.3.3.3.6c.1.2.1.5.1.8 0 .1 0 .2-.1.2s-.1.1-.2.1h-2.8v-.5h2.6l-.1.1c0-.3 0-.5-.1-.7s-.2-.4-.4-.5-.4-.2-.6-.2c-.3 0-.5.1-.7.2s-.3.3-.4.5-.1.5-.1.8c0 .5.1.9.4 1.1.2.3.6.4 1 .4.2 0 .4 0 .5-.1.2 0 .4-.1.5-.2.1 0 .2-.1.2-.1.1 0 .1 0 .2.1l.1.1v.2c0 .1-.1.1-.2.2l-.6.3c-.2.2-.4.2-.7.2m3.9 0c-.2 0-.5 0-.7-.1s-.5-.2-.7-.3c-.1 0-.1-.1-.1-.1v-.2c0-.1 0-.1.1-.2l.1-.1h.2l.6.3c.2 0 .4.1.6.1.3 0 .5-.1.7-.2s.2-.3.2-.4c0-.2-.1-.3-.2-.4s-.3-.1-.5-.2l-.8-.2c-.3-.1-.6-.2-.8-.4s-.3-.4-.3-.7c0-.2.1-.5.2-.6.1-.2.3-.3.6-.4.2-.1.5-.1.8-.1.2 0 .5 0 .7.1l.6.3c.1 0 .1.1.1.1v.2c0 .1 0 .1-.1.1s-.1.1-.1.1h-.2c-.2-.1-.3-.2-.5-.2s-.3-.1-.5-.1c-.3 0-.5.1-.7.2s-.2.3-.2.5c0 .1 0 .3.1.4s.2.2.4.2l.8.2c.4.1.6.2.8.4s.3.4.3.7c0 .4-.1.7-.4.9-.2 0-.6.1-1.1.1m4.2 0c-.3 0-.6-.1-.8-.2s-.4-.3-.5-.5-.2-.5-.2-.8v-2h-.5c-.1 0-.2 0-.2-.1-.1-.1-.1-.1-.1-.2s0-.2.1-.2.1-.1.2-.1h.5v-.9c0-.1 0-.2.1-.3s.2-.1.3-.1.2 0 .3.1.1.2.1.3v.9h1c.1 0 .2 0 .2.1.1 0 .1.1.1.2s0 .2-.1.2c-.1.1-.1.1-.2.1h-1v1.9c0 .3.1.5.2.7s.3.2.6.2h.6s.1.1.1.2v.2c0 .1-.1.1-.1.1-.1 0-.2 0-.3.1-.2.1-.3.1-.4.1"/><path fill="#F05133" d="m464.686 110.702-20.701-20.698a3.053 3.053 0 0 0-4.317 0l-4.298 4.299 5.452 5.452a3.62 3.62 0 0 1 3.73.869 3.63 3.63 0 0 1 .862 3.754l5.255 5.255a3.632 3.632 0 0 1 3.753 5.999 3.634 3.634 0 0 1-5.929-3.951l-4.901-4.901-.001 12.897a3.633 3.633 0 1 1-2.987-.106v-13.017a3.633 3.633 0 0 1-1.972-4.764l-5.375-5.376-14.193 14.193a3.055 3.055 0 0 0 0 4.319l20.7 20.698a3.054 3.054 0 0 0 4.318 0l20.604-20.601a3.055 3.055 0 0 0 0-4.319"/><path fill="#3C356C" d="M203.014 122.339q-1.74 0-2.957-.663a4.5 4.5 0 0 1-1.832-1.925q-.616-1.247-.616-2.972 0-1.294.354-2.31a4.8 4.8 0 0 1 1.032-1.756 4.5 4.5 0 0 1 1.663-1.124q.985-.385 2.218-.385a6.6 6.6 0 0 1 1.848.261q.894.247 1.633.817.184.138.231.323a.65.65 0 0 1 .015.37.7.7 0 0 1-.185.323.52.52 0 0 1-.323.17.65.65 0 0 1-.401-.124 4.2 4.2 0 0 0-1.324-.662q-.678-.2-1.494-.2-1.216 0-2.064.508-.848.493-1.278 1.463-.416.955-.416 2.326 0 2.11.986 3.203 1 1.094 2.957 1.094.723 0 1.401-.139a8 8 0 0 0 1.325-.385l-.308.77v-3.712h-2.095a.64.64 0 0 1-.447-.154.56.56 0 0 1-.154-.415q0-.262.154-.401a.7.7 0 0 1 .447-.138h2.726q.278 0 .431.154.17.153.17.446v3.958a.95.95 0 0 1-.093.432.54.54 0 0 1-.308.246 8 8 0 0 1-1.54.431 9.4 9.4 0 0 1-1.756.17m6.723-.062q-.323 0-.508-.2-.185-.201-.185-.555v-6.145q0-.37.185-.554.185-.2.508-.2.34 0 .524.2.185.185.185.554v6.145q0 .354-.185.555-.17.2-.524.2m0-9.318q-.416 0-.662-.215a.8.8 0 0 1-.231-.601q0-.4.231-.601.246-.215.662-.215.447 0 .663.215.231.2.231.601a.8.8 0 0 1-.231.601q-.216.215-.663.215m6.073 9.38q-.909 0-1.525-.324a2.1 2.1 0 0 1-.908-.939q-.293-.616-.293-1.51v-3.788h-.986q-.276 0-.431-.139a.54.54 0 0 1-.154-.4q0-.262.154-.401.155-.138.431-.138h.986v-1.679q0-.354.185-.524.185-.185.523-.185.34 0 .509.185.185.17.185.524v1.679h1.863q.292 0 .447.138.153.139.154.401a.54.54 0 0 1-.154.4q-.155.14-.447.139h-1.863v3.665q0 .848.354 1.278.354.432 1.17.432.293 0 .493-.046a1.2 1.2 0 0 1 .354-.062.25.25 0 0 1 .231.092q.108.108.108.401 0 .215-.077.4-.061.17-.262.231a3 3 0 0 1-.493.108q-.308.062-.554.062m7.229 0q-1.54 0-2.664-.678-1.125-.693-1.756-1.941-.616-1.263-.616-2.957 0-1.278.354-2.294.355-1.032 1.001-1.756a4.34 4.34 0 0 1 1.587-1.124q.939-.385 2.094-.385 1.54 0 2.665.677 1.124.678 1.74 1.925.616 1.248.616 2.942 0 1.278-.354 2.31a5.1 5.1 0 0 1-1.017 1.771 4.2 4.2 0 0 1-1.571 1.125q-.924.385-2.079.385m0-1.263q1.11 0 1.895-.509.785-.507 1.201-1.478.43-.97.431-2.326 0-2.048-.924-3.172-.909-1.125-2.603-1.125-1.109 0-1.909.509-.786.492-1.202 1.463-.416.955-.416 2.325 0 2.033.925 3.173.924 1.14 2.602 1.14m7.755 4.004q-.323 0-.509-.185-.185-.185-.185-.523V115.3q0-.354.185-.523.186-.185.509-.185.338 0 .508.185.185.17.185.523v1.402l-.17-.277a2.45 2.45 0 0 1 .97-1.356q.724-.508 1.741-.508 1 0 1.74.477.74.462 1.155 1.34.416.863.416 2.064 0 1.186-.416 2.079-.4.878-1.155 1.356-.74.462-1.74.462-1.002 0-1.725-.509a2.44 2.44 0 0 1-.97-1.34h.169v3.882q0 .338-.185.523t-.523.185m2.91-3.85q.663 0 1.155-.324.508-.323.786-.939.277-.616.277-1.525 0-1.355-.601-2.064-.6-.708-1.617-.708-.677 0-1.186.323-.492.309-.77.924-.261.616-.261 1.525 0 1.356.6 2.079.601.71 1.617.709m8.023 1.109a6.6 6.6 0 0 1-1.401-.154 4.2 4.2 0 0 1-1.31-.57.66.66 0 0 1-.246-.262.7.7 0 0 1-.046-.323.6.6 0 0 1 .138-.293.4.4 0 0 1 .262-.139.5.5 0 0 1 .354.077q.601.339 1.156.478.569.138 1.124.138.847 0 1.278-.308a.95.95 0 0 0 .431-.816q0-.43-.292-.662-.278-.246-.878-.37l-1.432-.292q-.956-.216-1.448-.709-.477-.508-.478-1.294 0-.693.37-1.201.385-.523 1.063-.801.677-.277 1.555-.277.678 0 1.279.185.615.17 1.108.523a.46.46 0 0 1 .231.278q.062.153.016.323a.5.5 0 0 1-.416.401.66.66 0 0 1-.37-.093 2.9 2.9 0 0 0-.924-.431 3.2 3.2 0 0 0-.924-.139q-.831 0-1.263.324a1.02 1.02 0 0 0-.415.847q0 .4.246.662.262.262.816.385l1.432.293q1.002.214 1.51.693.508.462.508 1.263 0 1.047-.832 1.663-.816.6-2.202.601m13.832 0q-1.617 0-2.772-.678a4.57 4.57 0 0 1-1.786-1.925q-.616-1.263-.616-2.973 0-1.278.354-2.294a4.9 4.9 0 0 1 1.016-1.756 4.3 4.3 0 0 1 1.617-1.124q.97-.385 2.187-.385.924 0 1.772.261a4.6 4.6 0 0 1 1.478.74.8.8 0 0 1 .323.385.64.64 0 0 1 .016.416.64.64 0 0 1-.2.323.6.6 0 0 1-.355.139q-.215 0-.462-.17a3.5 3.5 0 0 0-1.186-.6 4.4 4.4 0 0 0-1.355-.201q-1.185 0-2.017.509-.817.493-1.248 1.447-.416.94-.416 2.31 0 1.356.416 2.326.431.955 1.248 1.463.832.493 2.017.493.725 0 1.371-.2a3.9 3.9 0 0 0 1.217-.616q.246-.17.446-.154.216.015.354.138a.52.52 0 0 1 .185.308.6.6 0 0 1 0 .385.7.7 0 0 1-.277.355 4.3 4.3 0 0 1-1.509.816 6.2 6.2 0 0 1-1.818.262m6.327-.031q-.339 0-.523-.185-.186-.2-.185-.554v-9.595q0-.37.185-.555.184-.185.523-.185.354 0 .539.185t.185.555v9.595q0 .354-.185.554-.169.185-.539.185"/></svg>