<svg xmlns="http://www.w3.org/2000/svg" fill="none" viewBox="0 0 940 200"><path fill="url(#a)" d="M0 0h940v200H0z"/><path fill="#F38B00" d="M426.903 120.86h-9.033l7.796-15.753h.108zm.43 7.097.537 6.237h9.893l-3.28-36.398h-14.731l-18.656 36.398h10.108l3.118-6.237zm24.301-9.677h1.451l7.097-9.57h9.14l-9.785 12.258 6.022 13.226h-9.732l-3.924-10.323h-1.452l-2.204 10.323h-8.334l7.689-36.398h8.387zm28.387 5.376c2.742 0 4.516.215 4.086 2.312-.591 2.688-1.72 3.118-5.215 3.118-1.29 0-3.656 0-3.065-2.742.484-2.312 2.151-2.688 4.194-2.688m2.312 10.538h8.333l3.387-15.914c1.882-8.764-1.505-9.839-10.054-9.839-5.967 0-11.72-.054-13.44 7.849h8.333c.484-2.312 1.882-2.742 3.978-2.742 3.656 0 3.495 1.506 2.957 3.871l-.86 4.033h-.376c-.323-2.904-3.979-2.85-6.344-2.85-6.022 0-9.624 1.882-10.914 8.011-1.398 6.505 1.72 7.903 7.527 7.903 2.903 0 6.828-.591 8.172-4.086h.269zm25.215-25.484-.753 3.602h.323c1.666-3.011 4.946-3.871 7.795-3.871 3.603 0 7.151.645 6.667 5h.376c1.237-3.656 4.947-5 8.172-5 5.861 0 8.388 2.419 7.097 8.333l-3.709 17.419h-8.334l3.118-14.731c.431-2.688.861-4.623-2.365-4.623s-4.355 2.15-4.893 4.892l-3.064 14.462h-8.333l3.279-15.43c.376-2.311.592-3.924-2.312-3.924-3.441 0-4.462 1.828-5.107 4.892l-3.065 14.462h-8.333l5.43-25.483zm42.795 14.946c2.689 0 4.517.215 4.086 2.312-.537 2.688-1.72 3.118-5.215 3.118-1.236 0-3.655 0-3.064-2.742.484-2.312 2.15-2.688 4.193-2.688m2.312 10.538h8.334l3.387-15.914c1.881-8.764-1.506-9.839-10.054-9.839-5.968 0-11.774-.054-13.441 7.849h8.333c.484-2.312 1.882-2.742 3.979-2.742 3.656 0 3.495 1.506 2.957 3.871l-.753 4.033h-.376c-.323-2.904-3.979-2.85-6.344-2.85-6.022 0-9.624 1.882-10.914 8.011-1.398 6.505 1.72 7.903 7.527 7.903 2.903 0 6.828-.591 8.226-4.086h.268zm20.377-.001h-8.334l5.377-25.483h8.333z"/><path fill="#009BDE" d="M405.344 143.011c-18.495-5.645-31.99-22.742-31.99-42.957 0-20.484 13.764-37.742 32.581-43.172 1.935-.538 1.398-1.828-.914-1.828-25 0-45.323 20.161-45.323 45S379.967 145 405.021 145c2.312 0 2.419-1.344.323-1.989"/><path fill="#009BDE" d="M381.956 110.538c-.107-1.183-.215-2.42-.215-3.656 0-19.732 15.968-35.7 35.699-35.7 18.656 0 24.248 8.334 24.947 7.796.752-.59-6.775-17.096-28.656-17.096-19.732 0-35.699 15.968-35.699 35.699 0 4.57.86 8.924 2.419 12.903.645 1.72 1.667 1.72 1.505.054"/><path fill="#009BDE" d="M396.903 84.839c9.247-4.033 20.914-4.14 32.365-.162 7.688 2.688 12.151 6.506 12.527 6.344.592-.268-4.462-8.333-13.656-11.774a32.68 32.68 0 0 0-31.774 4.839c-.968.753-.591 1.237.538.753"/><path fill="#F38B00" d="M580.29 101.667a4.68 4.68 0 0 1-4.678 4.677 4.68 4.68 0 0 1-4.677-4.677 4.68 4.68 0 0 1 4.677-4.678 4.68 4.68 0 0 1 4.678 4.678"/><defs><linearGradient id="a" x1="-233.042" x2="597.72" y1="-47" y2="623.862" gradientUnits="userSpaceOnUse"><stop stop-color="#3C356C"/><stop offset=".307" stop-color="#282444"/><stop offset="1" stop-color="#0D0D0D"/></linearGradient></defs></svg>