<svg xmlns="http://www.w3.org/2000/svg" fill="none" viewBox="0 0 280 114"><path fill="#F93" d="M279.258 58.864a5.93 5.93 0 0 1-5.94 5.939 5.93 5.93 0 0 1-5.939-5.94 5.93 5.93 0 0 1 5.939-5.939 5.93 5.93 0 0 1 5.94 5.94M85.697 92.167l.742 7.954h12.515l-4.242-46.03H76.045l-23.651 45.924H65.12l3.924-7.954h16.652zm-.53-9.016H73.711l9.863-19.939h.106zm31.181-3.287h1.91l8.909-12.091h11.666l-12.409 15.485 7.637 16.757h-12.409l-4.879-13.045h-1.909l-2.758 13.045H101.5l9.864-46.03h10.5zm38.924 20.151h10.606l4.243-20.151c2.333-11.137-1.909-12.516-12.727-12.516-7.531 0-14.849-.106-16.97 9.97h10.606c.636-2.864 2.439-3.5 4.985-3.5 4.56 0 4.348 1.91 3.712 4.879l-1.061 5.09h-.53c-.424-3.711-4.985-3.605-8.061-3.605-7.636 0-12.197 2.44-13.787 10.182-1.697 8.166 2.121 9.969 9.545 9.969 3.712 0 8.591-.742 10.394-5.197h.318zm-2.969-13.258c3.394 0 5.727.213 5.091 2.97-.743 3.394-2.228 3.924-6.576 3.924-1.591 0-4.561 0-3.818-3.5.636-2.97 2.757-3.394 5.303-3.394m34.787-18.984-.954 4.56h.424c2.121-3.818 6.258-4.879 9.864-4.879 4.56 0 9.015.743 8.379 6.364h.53c1.591-4.56 6.257-6.364 10.288-6.364 7.424 0 10.606 3.076 9.015 10.607l-4.667 21.954h-10.5l3.924-18.667c.531-3.394 1.167-5.833-2.969-5.833s-5.515 2.758-6.258 6.152l-3.818 18.348h-10.606l4.136-19.515c.531-2.97.743-4.985-2.969-4.985-4.349 0-5.622 2.333-6.47 6.152l-3.818 18.348h-10.606l6.894-32.242zm57.167 32.242h10.606l4.243-20.151c2.333-11.137-1.909-12.516-12.728-12.516-7.53 0-14.848-.106-16.969 9.97h10.606c.636-2.864 2.439-3.5 4.985-3.5 4.666 0 4.348 1.91 3.818 4.879l-1.061 5.09h-.53c-.424-3.711-4.985-3.605-8.061-3.605-7.636 0-12.197 2.44-13.788 10.182-1.697 8.166 2.122 9.969 9.546 9.969 3.712 0 8.591-.742 10.394-5.197h.318zm-2.97-13.258c3.394 0 5.728.213 5.091 2.97-.742 3.394-2.227 3.924-6.575 3.924-1.591 0-4.561 0-3.819-3.5.637-2.97 2.758-3.394 5.303-3.394m28.743 13.258h-10.5l6.788-32.242h10.606z"/><path fill="#009CDE" d="M57.803 111.152c2.652.848 2.546 2.545-.424 2.545C25.773 113.697 0 88.242 0 56.849S25.667 0 57.379 0c2.97 0 3.606 1.59 1.166 2.333C34.789 9.121 17.394 30.97 17.394 56.848c0 25.561 16.97 47.197 40.409 54.304m-29.59-41.046C28.105 68.621 28 67.03 28 65.44c0-24.924 20.258-45.181 45.182-45.181 23.545 0 30.651 10.5 31.5 9.863.954-.742-8.591-21.636-36.273-21.636-24.924 0-45.182 20.257-45.182 45.182 0 5.727 1.06 11.242 3.076 16.333.848 2.121 2.121 2.227 1.91.106m18.984-32.56c11.773-5.091 26.515-5.304 40.94-.213 9.757 3.394 15.378 8.273 15.802 8.06.743-.317-5.62-10.5-17.287-14.954-14.106-5.303-29.167-2.545-40.197 6.152-1.167.954-.743 1.59.742.954"/></svg>