<svg xmlns="http://www.w3.org/2000/svg" fill="none" viewBox="0 0 280 44"><path fill="#EA4335" d="M32.934 11.523h1.583l4.512-4.52.221-1.919A20.24 20.24 0 0 0 20.005.856a20.3 20.3 0 0 0-8.701 5.285 20.3 20.3 0 0 0-5.044 8.855 2.45 2.45 0 0 1 1.583-.095l9.023-1.49s.46-.762.697-.714a11.24 11.24 0 0 1 15.403-1.174z"/><path fill="#4285F4" d="M45.456 14.996A20.37 20.37 0 0 0 39.33 5.1l-6.332 6.344a11.28 11.28 0 0 1 4.132 8.944v1.126a5.63 5.63 0 0 1 3.985 1.654 5.65 5.65 0 0 1 1.65 3.992 5.66 5.66 0 0 1-1.65 3.992 5.64 5.64 0 0 1-3.985 1.654H25.858l-1.124 1.142v6.771l1.124 1.126H37.13a14.63 14.63 0 0 0 8.76-2.826 14.7 14.7 0 0 0 5.353-7.501 14.7 14.7 0 0 0-.167-9.22 14.7 14.7 0 0 0-5.62-7.302"/><path fill="#34A853" d="M14.572 41.782h11.271v-9.04H14.572a5.6 5.6 0 0 1-2.327-.507l-1.583.492-4.544 4.52-.395 1.585a14.56 14.56 0 0 0 8.849 2.95"/><path fill="#FBBC05" d="M14.571 12.459a14.64 14.64 0 0 0-8.5 2.784 14.7 14.7 0 0 0-5.304 7.214 14.7 14.7 0 0 0-.133 8.96 14.7 14.7 0 0 0 5.088 7.368l6.538-6.55a5.64 5.64 0 0 1-3.224-4.131 5.66 5.66 0 0 1 1.56-5.006 5.63 5.63 0 0 1 4.996-1.562 5.63 5.63 0 0 1 4.124 3.23l6.538-6.55a14.65 14.65 0 0 0-5.167-4.251 14.6 14.6 0 0 0-6.516-1.506"/><path fill="#5F6368" d="M81.914 35.47a14.4 14.4 0 0 1-10.448-4.298 13.96 13.96 0 0 1-4.385-10.34 14 14 0 0 1 4.385-10.34 14.42 14.42 0 0 1 10.448-4.377 13.97 13.97 0 0 1 10.02 4.044l-2.817 2.87a10.14 10.14 0 0 0-7.203-2.854 10.02 10.02 0 0 0-7.44 3.172 10.36 10.36 0 0 0-3.055 7.533 10.37 10.37 0 0 0 3.055 7.438 10.61 10.61 0 0 0 14.817.174 8.44 8.44 0 0 0 2.169-4.932h-9.498V19.5h13.44c.132.818.185 1.646.158 2.474a12.7 12.7 0 0 1-3.467 9.357 13.47 13.47 0 0 1-10.179 4.14m31.25-2.696a9.68 9.68 0 0 1-13.409 0 9.04 9.04 0 0 1-2.739-6.74 9.07 9.07 0 0 1 2.74-6.74 9.695 9.695 0 0 1 13.408 0 9.06 9.06 0 0 1 2.738 6.74 9.04 9.04 0 0 1-2.754 6.74zm-10.449-2.648a5.13 5.13 0 0 0 3.744 1.626 5.12 5.12 0 0 0 3.744-1.626 5.65 5.65 0 0 0 1.583-4.092 5.66 5.66 0 0 0-1.583-4.107 5.2 5.2 0 0 0-3.759-1.607 5.2 5.2 0 0 0-3.76 1.607 5.66 5.66 0 0 0-1.583 4.107 5.65 5.65 0 0 0 1.599 4.092zm31.06 2.648a9.68 9.68 0 0 1-13.409 0 9.06 9.06 0 0 1-2.738-6.74 9.07 9.07 0 0 1 2.738-6.74 9.68 9.68 0 0 1 13.409 0 9.07 9.07 0 0 1 2.738 6.74 9.06 9.06 0 0 1-2.738 6.74m-10.448-2.648a5.12 5.12 0 0 0 7.487 0 5.64 5.64 0 0 0 1.583-4.092 5.66 5.66 0 0 0-1.583-4.107 5.2 5.2 0 0 0-5.803-1.189c-.646.276-1.23.68-1.716 1.189a5.68 5.68 0 0 0-1.583 4.107 5.65 5.65 0 0 0 1.599 4.092zm23.999 13.813a8.3 8.3 0 0 1-5.272-1.681 9.7 9.7 0 0 1-3.071-3.902l3.609-1.506a6.1 6.1 0 0 0 1.789 2.363 4.5 4.5 0 0 0 2.96.999 4.75 4.75 0 0 0 3.689-1.427 5.8 5.8 0 0 0 1.314-4.124v-1.364h-.143a6.03 6.03 0 0 1-4.955 2.141 8.6 8.6 0 0 1-6.332-2.76 9.12 9.12 0 0 1-2.707-6.644 9.23 9.23 0 0 1 2.707-6.692 8.6 8.6 0 0 1 6.332-2.776 6.8 6.8 0 0 1 2.913.65c.788.345 1.491.86 2.058 1.507h.143v-1.507h3.926v16.89a9.87 9.87 0 0 1-2.517 7.375 8.87 8.87 0 0 1-6.443 2.458m.284-12.18a4.6 4.6 0 0 0 3.578-1.586 5.87 5.87 0 0 0 1.441-4.06 6 6 0 0 0-1.441-4.139 4.59 4.59 0 0 0-3.578-1.586 4.88 4.88 0 0 0-3.704 1.586 5.8 5.8 0 0 0-1.583 4.108 5.68 5.68 0 0 0 1.583 4.06 4.9 4.9 0 0 0 3.704 1.618M163.267 7.18v27.721h-4.132V7.178zm11.334 28.292a8.97 8.97 0 0 1-6.664-2.712 9.2 9.2 0 0 1-2.676-6.724 9.3 9.3 0 0 1 2.581-6.788 8.48 8.48 0 0 1 6.332-2.648 8 8 0 0 1 3.166.618 7.5 7.5 0 0 1 2.422 1.586 11 11 0 0 1 1.583 1.92q.552.884.934 1.855l.428 1.078-12.665 5.218a4.755 4.755 0 0 0 4.559 2.854 5.39 5.39 0 0 0 4.639-2.616l3.166 2.14a10.4 10.4 0 0 1-3.04 2.887 8.6 8.6 0 0 1-4.765 1.332m-5.287-9.721 8.422-3.505a2.92 2.92 0 0 0-1.314-1.444 4.3 4.3 0 0 0-2.169-.555 4.9 4.9 0 0 0-3.403 1.507 5.02 5.02 0 0 0-1.536 3.997m35.032 9.719a13.02 13.02 0 0 1-9.477-3.853 13.1 13.1 0 0 1-3.789-9.516 13.1 13.1 0 0 1 3.789-9.516 13.04 13.04 0 0 1 9.477-3.853 11.8 11.8 0 0 1 9.387 4.187l-2.28 2.22a8.61 8.61 0 0 0-7.092-3.251 9.66 9.66 0 0 0-7.044 2.823 9.9 9.9 0 0 0-2.865 7.39 9.9 9.9 0 0 0 2.865 7.39 9.66 9.66 0 0 0 7.044 2.823 10.05 10.05 0 0 0 7.916-3.71l2.279 2.283a12.44 12.44 0 0 1-4.385 3.346 13.4 13.4 0 0 1-5.825 1.237m16.337-.57h-3.277V9.286h3.277zm5.351-15.416a9.16 9.16 0 0 1 12.918 0 9.28 9.28 0 0 1 2.533 6.661 9.3 9.3 0 0 1-2.533 6.66 9.16 9.16 0 0 1-12.918 0 9.28 9.28 0 0 1-2.533-6.66 9.3 9.3 0 0 1 2.533-6.66m2.438 11.26a5.52 5.52 0 0 0 8.026 0 6.36 6.36 0 0 0 1.694-4.6 6.36 6.36 0 0 0-1.694-4.598 5.52 5.52 0 0 0-8.026 0 6.34 6.34 0 0 0-1.694 4.599 6.37 6.37 0 0 0 1.71 4.583zm31.17 4.155h-3.166v-2.427h-.095a6.1 6.1 0 0 1-2.311 2.188 6.45 6.45 0 0 1-3.246.873 6.15 6.15 0 0 1-4.97-1.999 7.93 7.93 0 0 1-1.694-5.36V17.391h3.277v10.181q0 4.9 4.321 4.9a4.01 4.01 0 0 0 3.325-1.585 6 6 0 0 0 1.282-3.79V17.39h3.277zm11.129.57a7.68 7.68 0 0 1-5.858-2.68 9.52 9.52 0 0 1-2.453-6.645 9.52 9.52 0 0 1 2.453-6.645 7.69 7.69 0 0 1 5.858-2.68 7.4 7.4 0 0 1 3.577.856 6.06 6.06 0 0 1 2.375 2.141h.142l-.142-2.426V9.287H280v25.612h-3.166v-2.426h-.143a6.07 6.07 0 0 1-2.374 2.14 7.4 7.4 0 0 1-3.546.857m.538-2.997a5.22 5.22 0 0 0 3.942-1.713 6.44 6.44 0 0 0 1.583-4.615 6.44 6.44 0 0 0-1.583-4.615 5.36 5.36 0 0 0-3.958-1.753 5.35 5.35 0 0 0-3.958 1.753 6.35 6.35 0 0 0-1.583 4.6 6.35 6.35 0 0 0 1.583 4.6 5.22 5.22 0 0 0 3.974 1.743"/></svg>