<svg xmlns="http://www.w3.org/2000/svg" fill="none" viewBox="0 0 280 150"><path fill="#fff" d="M113.045 67.809h9.194c-1.533-9.775-9.997-16.584-21.011-16.584-13.033 0-22.812 9.582-22.812 25.629 0 15.761 9.34 25.536 23.078 25.536 12.33 0 21.157-7.931 21.157-20.77v-5.981h-20.208v7.051h11.478c-.145 7.103-4.888 11.6-12.378 11.6-8.339 0-14.054-6.248-14.054-17.533 0-11.212 5.812-17.436 13.86-17.436 6.005 0 10.114 3.209 11.696 8.488m15.684 33.899h8.803V64.374h-8.803zm4.44-43.266c2.797 0 5.081-2.144 5.081-4.767s-2.284-4.791-5.081-4.791-5.106 2.139-5.106 4.791 2.269 4.767 5.09 4.767zm30.723 5.932h-7.37v-8.968h-8.803v8.968h-5.299v6.809h5.299v20.77c-.048 7.026 5.061 10.493 11.672 10.288a17.9 17.9 0 0 0 5.183-.876l-1.486-6.886c-.841.218-1.705.334-2.574.343-2.216 0-3.992-.779-3.992-4.33V71.163h7.37zm6.812 37.334h30.957v-7.564h-21.932V51.903h-9.025zm47.819.755c5.861 0 9.36-2.749 10.966-5.885h.291v5.13h8.476V76.709c0-9.873-8.048-12.839-15.176-12.839-7.854 0-13.884 3.499-15.829 10.308l8.221 1.171c.872-2.555 3.354-4.743 7.669-4.743 4.088 0 6.324 2.091 6.324 5.764v.145c0 2.526-2.652 2.652-9.242 3.354-7.245.779-14.175 2.942-14.175 11.357-.024 7.346 5.348 11.237 12.475 11.237m2.894-6.458c-3.673 0-6.3-1.679-6.3-4.912 0-3.382 2.942-4.791 6.861-5.352 2.313-.315 6.934-.9 8.072-1.82v4.399c.025 4.145-3.333 7.673-8.633 7.673zm23.32 5.703h8.658v-5.885h.508c1.389 2.725 4.282 6.543 10.704 6.543 8.802 0 15.393-6.983 15.393-19.284 0-12.452-6.784-19.212-15.417-19.212-6.591 0-9.34 3.963-10.68 6.663h-.371v-18.63h-8.795zm8.633-18.675c0-7.265 3.112-11.943 8.779-11.943 5.86 0 8.879 4.985 8.879 11.943s-3.063 12.108-8.879 12.108c-5.618 0-8.779-4.863-8.779-12.108"/><path fill="#E24329" d="m61.82 68.963-.085-.226-8.556-22.319a2.2 2.2 0 0 0-.88-1.061 2.25 2.25 0 0 0-2.023-.209 2.25 2.25 0 0 0-1.372 1.5L43.13 64.33H19.74l-5.775-17.682a2.266 2.266 0 0 0-3.394-1.291 2.2 2.2 0 0 0-.88 1.061L1.139 68.741l-.089.222a15.89 15.89 0 0 0 5.271 18.36l.032.025.073.056 13.016 9.755 6.458 4.88 3.923 2.966a2.65 2.65 0 0 0 3.197 0l3.923-2.966 6.457-4.88 13.11-9.811.036-.029a15.884 15.884 0 0 0 5.274-18.356"/><path fill="#FC6D26" d="m61.82 68.963-.085-.226a28.9 28.9 0 0 0-11.503 5.175L31.444 88.119l11.963 9.04 13.11-9.811.036-.029a15.885 15.885 0 0 0 5.267-18.356"/><path fill="#FCA326" d="m19.441 97.159 6.458 4.88 3.923 2.966a2.65 2.65 0 0 0 3.197 0l3.923-2.966 6.457-4.88-11.963-9.04z"/><path fill="#FC6D26" d="M12.637 73.912a28.8 28.8 0 0 0-11.5-5.171l-.088.222a15.89 15.89 0 0 0 5.271 18.36l.032.025.073.056 13.016 9.755 11.971-9.041z"/></svg>