<svg xmlns="http://www.w3.org/2000/svg" fill="none" viewBox="0 0 940 200"><path fill="url(#a)" d="M0 0h940v200H0z"/><path fill="#fff" d="M434 86.333c0 1.667 0 3.334.667 5 .333 1.334 1 2.667 1.666 4 .334.334.334.667.334 1.334 0 .666-.334 1.333-1 1.666l-3.334 2.334c-.333.333-1 .333-1.333.333-.667 0-1.333-.333-1.667-.667-.666-.666-1.333-1.666-2-2.666-.666-1-1-2-1.666-3.334-4 5-10 7.667-16.334 7.667-4 .333-8-1.333-11-4-2.666-2.667-4.333-6.667-4-10.667 0-4.333 1.667-8.666 5-11.333 4-3 8.667-4.667 13.667-4.333 2 0 4 0 6 .333s4 .667 6.333 1.333V69c.334-3.333-.666-6.333-2.666-9-3-1.667-6.334-2.667-9.334-2.333-2 0-4 .333-6 .666l-6 2c-.666.334-1.333.334-2 .667h-1c-.666 0-1-.667-1-1.667v-2.666c0-.667 0-1.334.334-2 .333-.667 1-1 1.666-1 2-1 4.334-2 7-2.667S412 50 415 50c5.333-.333 10.333 1.333 14.333 4.667 3.334 3.666 5 8.666 4.667 13.666zm-22.667 8.334c2 0 4-.334 5.667-1 2-.667 4-2 5.333-3.667 1-1 1.667-2.333 2-3.667.334-1.666.667-3.333.667-4.666v-2.334l-5-1C418.333 78 416.667 78 414.667 78c-3 0-6 .667-8.334 2.333-2 1.667-3 4-2.666 6.334 0 2 .666 4.333 2 6a9.05 9.05 0 0 0 5.666 2m44.667 6c-.667 0-1.333 0-2-.667s-1-1.333-1-2.333L439.667 55c-.334-.667-.334-1.333-.334-2.333 0-.667.334-1.334 1-1.334H446c.667 0 1.667 0 2.333.667s1 1.333 1 2.333L458.667 91l8.666-36.667c0-.666.334-1.666 1-2.333.667-.333 1.334-.667 2.334-.667H475c.667 0 1.667 0 2.333.667s1 1.333 1 2.333l8.667 37 9.667-37c.333-.666.666-1.666 1-2.333.666-.333 1.333-.667 2.333-.667h5c.667 0 1.333.334 1.333 1v1.334c0 .333-.333 1-.333 1.333l-13.333 43c-.334.667-.667 1.667-1 2.333-.667.334-1.334.667-2 .667H485c-.667 0-1.667 0-2.333-.667-.667-.666-1-1.333-1-2.333l-9-36L464 97.667c0 1-.333 1.666-1 2.333-.667.333-1.333.667-2.333.667zM527.333 102c-3 0-5.666-.333-8.666-1-2.334-.333-4.334-1.333-6.334-2.333-1.333-.334-2-1.667-2-3V93c0-1 .334-1.667 1.334-1.667.333 0 .666 0 1 .334.333 0 .666.333 1.333.666q3 1.5 6 2c2.333.334 4.333.667 6.667.667 2.666 0 5.666-.333 8-2 2-1 3-3 3-5.333 0-1.334-.334-3-1.667-4-1.667-1.334-3.667-2.334-5.667-3l-8-2.667c-3.333-1-6.666-3-9-5.667-1.666-2.333-2.666-5-2.666-8 0-2 .333-4.333 1.666-6 1-1.666 2.334-3.333 4-4.666 1.667-1.334 3.667-2.334 5.667-3 2.333-.334 4.667-.667 7-.667 1.333 0 2.333 0 3.667.333 1.333 0 2.333.334 3.666.667 1 .333 2.334.667 3 1 .667.333 1.667.667 2.334 1 .666.333 1.333.667 1.666 1.333.334.667.667 1.334.334 2V59c0 1-.334 1.667-1.334 1.667-.666 0-1.333-.334-2-.667-3.333-1.333-7-2.333-10.666-2-2.667 0-5 .333-7.334 1.667-1.666 1-2.666 3-2.666 5 0 1.333.666 3 1.666 4 1.667 1.333 4 2.333 6 3l8.334 1.666c3.333 1 6.333 2.667 8.666 5.334C546 81 547 83.667 547 86.333c0 2.334-.333 4.334-1.333 6.334q-1.5 3-4 5-3 2-6 3c-3.334 1-6 1.333-8.334 1.333"/><path fill="#F90" fill-rule="evenodd" d="M537.667 129.333C519.333 143 493 150 470.333 150c-30.666 0-60-11-82.666-31.333-1.667-1.667-.334-3.667 2-2.334 25 14.334 53.666 22 82.333 22 21.667 0 43-4.333 63-13 3-1.666 5.667 1.667 2.667 4" clip-rule="evenodd"/><path fill="#F90" fill-rule="evenodd" d="M545.333 120.667C543 117.667 530 119.333 524 120c-1.667.333-2-1.333-.333-2.333 10.333-7.334 27.666-5.334 29.666-2.667 2 2.333-.666 19.667-10.333 27.667-1.667 1.333-3 .666-2.333-1 2-5.667 7-18 4.666-21" clip-rule="evenodd"/><path fill="#fff" d="M434 86.333c0 1.667 0 3.334.667 5 .333 1.334 1 2.667 1.666 4 .334.334.334.667.334 1.334 0 .666-.334 1.333-1 1.666l-3.334 2.334c-.333.333-1 .333-1.333.333-.667 0-1.333-.333-1.667-.667-.666-.666-1.333-1.666-2-2.666-.666-1-1-2-1.666-3.334-4 5-10 7.667-16.334 7.667-4 .333-8-1.333-11-4-2.666-2.667-4.333-6.667-4-10.667 0-4.333 1.667-8.666 5-11.333 4-3 8.667-4.667 13.667-4.333 2 0 4 0 6 .333s4 .667 6.333 1.333V69c.334-3.333-.666-6.333-2.666-9-3-1.667-6.334-2.667-9.334-2.333-2 0-4 .333-6 .666l-6 2c-.666.334-1.333.334-2 .667h-1c-.666 0-1-.667-1-1.667v-2.666c0-.667 0-1.334.334-2 .333-.667 1-1 1.666-1 2-1 4.334-2 7-2.667S412 50 415 50c5.333-.333 10.333 1.333 14.333 4.667 3.334 3.666 5 8.666 4.667 13.666zm-22.667 8.334c2 0 4-.334 5.667-1 2-.667 4-2 5.333-3.667 1-1 1.667-2.333 2-3.667.334-1.666.667-3.333.667-4.666v-2.334l-5-1C418.333 78 416.667 78 414.667 78c-3 0-6 .667-8.334 2.333-2 1.667-3 4-2.666 6.334 0 2 .666 4.333 2 6a9.05 9.05 0 0 0 5.666 2m44.667 6c-.667 0-1.333 0-2-.667s-1-1.333-1-2.333L439.667 55c-.334-.667-.334-1.333-.334-2.333 0-.667.334-1.334 1-1.334H446c.667 0 1.667 0 2.333.667s1 1.333 1 2.333L458.667 91l8.666-36.667c0-.666.334-1.666 1-2.333.667-.333 1.334-.667 2.334-.667H475c.667 0 1.667 0 2.333.667s1 1.333 1 2.333l8.667 37 9.667-37c.333-.666.666-1.666 1-2.333.666-.333 1.333-.667 2.333-.667h5c.667 0 1.333.334 1.333 1v1.334c0 .333-.333 1-.333 1.333l-13.333 43c-.334.667-.667 1.667-1 2.333-.667.334-1.334.667-2 .667H485c-.667 0-1.667 0-2.333-.667-.667-.666-1-1.333-1-2.333l-9-36L464 97.667c0 1-.333 1.666-1 2.333-.667.333-1.333.667-2.333.667zM527.333 102c-3 0-5.666-.333-8.666-1-2.334-.333-4.334-1.333-6.334-2.333-1.333-.334-2-1.667-2-3V93c0-1 .334-1.667 1.334-1.667.333 0 .666 0 1 .334.333 0 .666.333 1.333.666q3 1.5 6 2c2.333.334 4.333.667 6.667.667 2.666 0 5.666-.333 8-2 2-1 3-3 3-5.333 0-1.334-.334-3-1.667-4-1.667-1.334-3.667-2.334-5.667-3l-8-2.667c-3.333-1-6.666-3-9-5.667-1.666-2.333-2.666-5-2.666-8 0-2 .333-4.333 1.666-6 1-1.666 2.334-3.333 4-4.666 1.667-1.334 3.667-2.334 5.667-3 2.333-.334 4.667-.667 7-.667 1.333 0 2.333 0 3.667.333 1.333 0 2.333.334 3.666.667 1 .333 2.334.667 3 1 .667.333 1.667.667 2.334 1 .666.333 1.333.667 1.666 1.333.334.667.667 1.334.334 2V59c0 1-.334 1.667-1.334 1.667-.666 0-1.333-.334-2-.667-3.333-1.333-7-2.333-10.666-2-2.667 0-5 .333-7.334 1.667-1.666 1-2.666 3-2.666 5 0 1.333.666 3 1.666 4 1.667 1.333 4 2.333 6 3l8.334 1.666c3.333 1 6.333 2.667 8.666 5.334C546 81 547 83.667 547 86.333c0 2.334-.333 4.334-1.333 6.334q-1.5 3-4 5-3 2-6 3c-3.334 1-6 1.333-8.334 1.333"/><path fill="#F90" fill-rule="evenodd" d="M537.667 129.333C519.333 143 493 150 470.333 150c-30.666 0-60-11-82.666-31.333-1.667-1.667-.334-3.667 2-2.334 25 14.334 53.666 22 82.333 22 21.667 0 43-4.333 63-13 3-1.666 5.667 1.667 2.667 4" clip-rule="evenodd"/><path fill="#F90" fill-rule="evenodd" d="M545.333 120.667C543 117.667 530 119.333 524 120c-1.667.333-2-1.333-.333-2.333 10.333-7.334 27.666-5.334 29.666-2.667 2 2.333-.666 19.667-10.333 27.667-1.667 1.333-3 .666-2.333-1 2-5.667 7-18 4.666-21" clip-rule="evenodd"/><defs><linearGradient id="a" x1="-233.042" x2="597.72" y1="-47" y2="623.862" gradientUnits="userSpaceOnUse"><stop stop-color="#3C356C"/><stop offset=".307" stop-color="#282444"/><stop offset="1" stop-color="#0D0D0D"/></linearGradient></defs></svg>