<svg xmlns="http://www.w3.org/2000/svg" fill="none" viewBox="0 0 280 150"><path fill="#fff" d="M171.658 93.424h-.094c.047 0 .047.047.094.047h.046zm0 .047c-.373 0-1.353.187-2.38.187-3.219 0-4.339-1.493-4.339-3.453V77.234h6.579c.373 0 .653-.327.653-.793v-7.046c0-.373-.327-.7-.653-.7h-6.579v-8.772c0-.326-.233-.513-.607-.513h-8.958c-.373 0-.56.233-.56.513v9.006s-4.526 1.119-4.806 1.166c-.327.093-.513.373-.513.7v5.646c0 .466.326.793.7.793h4.572v13.624c0 10.125 7.046 11.152 11.852 11.152 2.193 0 4.852-.7 5.272-.933.233-.094.373-.374.373-.654v-6.205c0-.374-.233-.654-.606-.747m98.263-9.098c0-7.512-3.032-8.492-6.205-8.166-2.473.14-4.479 1.4-4.479 1.4v14.604s2.006 1.4 5.039 1.493c4.246.094 5.645-1.446 5.645-9.331M280 83.719c0 14.231-4.619 18.291-12.645 18.291-6.812 0-10.451-3.453-10.451-3.453s-.14 1.913-.374 2.146c-.14.234-.326.327-.606.327h-6.113c-.419 0-.793-.327-.793-.7l.094-46.052c0-.374.326-.7.699-.7h8.819c.373 0 .7.326.7.7v15.63s3.406-2.193 8.398-2.193l-.046-.093c4.946 0 12.318 1.866 12.318 16.097m-36.161-14.977h-8.725c-.467 0-.7.327-.7.793v22.536s-2.286 1.587-5.412 1.587c-3.08 0-4.013-1.4-4.013-4.526v-19.69c0-.373-.327-.7-.7-.7h-8.865c-.373 0-.7.327-.7.7v21.23c0 9.098 5.086 11.384 12.085 11.384 5.785 0 10.451-3.172 10.451-3.172s.233 1.633.327 1.866c.093.187.373.373.653.373h5.552c.467 0 .7-.326.7-.7l.094-30.981c.046-.373-.327-.7-.747-.7m-98.264-.047h-8.818c-.373 0-.7.374-.7.84v30.422c0 .84.56 1.12 1.26 1.12h7.978c.84 0 1.027-.374 1.027-1.12V69.395c-.047-.373-.373-.7-.747-.7m-4.386-14.044a5.703 5.703 0 0 0-5.739 5.739 5.7 5.7 0 0 0 1.671 4.068 5.7 5.7 0 0 0 4.068 1.671c3.127 0 5.646-2.52 5.646-5.739 0-3.173-2.519-5.739-5.646-5.739m68.402-1.027h-8.771c-.374 0-.7.327-.7.7v16.938h-13.718V54.324c0-.373-.327-.7-.7-.7h-8.818c-.374 0-.7.327-.7.7v46.053c0 .373.373.7.7.7h8.818c.373 0 .7-.327.7-.7v-19.69h13.718l-.094 19.69c0 .373.327.7.7.7h8.819c.373 0 .7-.327.7-.7V54.324c.046-.373-.28-.7-.654-.7m-78.247 20.39V97.81c0 .14-.046.467-.233.514 0 0-5.179 3.686-13.718 3.686-10.311 0-22.582-3.22-22.582-24.543s10.684-25.709 21.136-25.662c9.052 0 12.691 2.053 13.251 2.426.14.233.233.373.233.56l-1.679 7.419c0 .373-.374.84-.84.7-1.493-.467-3.733-1.354-9.005-1.354-6.113 0-12.645 1.727-12.645 15.491 0 13.718 6.206 15.351 10.685 15.351 3.826 0 5.179-.467 5.179-.467v-9.518h-6.112c-.467 0-.793-.327-.793-.7v-7.652c0-.373.326-.7.793-.7h15.537c.467-.047.793.28.793.653"/><path fill="#fff" fill-rule="evenodd" d="M35.554 40C15.911 40 0 55.911 0 75.554c0 15.724 10.172 29.022 24.31 33.734 1.772.28 2.472-.746 2.472-1.679 0-.84-.046-3.64-.046-6.626-8.912 1.633-11.245-2.193-11.945-4.152-.42-1.027-2.146-4.2-3.64-5.04-1.26-.653-3.032-2.333-.046-2.379 2.8-.047 4.806 2.566 5.459 3.639 3.22 5.366 8.305 3.873 10.358 2.94.327-2.287 1.26-3.873 2.287-4.76-7.886-.886-16.191-3.966-16.191-17.543 0-3.873 1.4-7.092 3.64-9.565-.374-.887-1.587-4.526.372-9.425 0 0 2.987-.934 9.799 3.639a33.3 33.3 0 0 1 8.865-1.213c3.033 0 6.02.42 8.865 1.213 6.813-4.619 9.752-3.639 9.752-3.639 1.96 4.899.7 8.538.373 9.425 2.287 2.473 3.64 5.645 3.64 9.565 0 13.624-8.306 16.657-16.238 17.543 1.307 1.12 2.427 3.22 2.427 6.579 0 4.76-.047 8.586-.047 9.752 0 .933.653 2.053 2.426 1.68 14.464-4.899 24.216-18.477 24.216-33.735C71.108 55.911 55.198 40 35.554 40" clip-rule="evenodd"/></svg>