<svg xmlns="http://www.w3.org/2000/svg" viewBox="0 0 280 107" fill="none"><path fill="#0DCEFF" d="M2.66 100.055c1.663.301 2.116.754 2.418 1.359.303.756.303 1.361.152 2.117v.15c-.302 1.209-1.21 1.814-2.57 1.814-1.058-.302-1.814-.757-2.267-1.511-.454-.605-.454-1.361-.302-2.117.453-1.208 1.36-1.812 2.57-1.812m-2.42-31.89c0-.605.152-1.058.454-1.513L52.388.908C52.84.303 53.598 0 54.353 0a2.55 2.55 0 0 1 1.511.455c1.36 1.058 1.511 2.115.454 3.476L5.23 69.071v25.24c0 1.36-1.21 2.568-2.57 2.568S.241 95.67.241 94.312zm0-21.916V2.872C.241 1.512 1.3.303 2.661.303S5.23 1.513 5.23 2.872v43.377c0 1.36-1.21 2.57-2.57 2.57S.241 47.61.241 46.25"/><path fill="#1A1A1A" d="M18.53 30.832c0 1.361-1.209 2.57-2.57 2.57s-2.418-1.209-2.418-2.57V16.324c0-1.662.756-2.419 2.419-2.419 1.512 0 2.57.907 2.57 2.42z"/><path fill="#0DCEFF" d="M13.542 103.076v-27.96c0-.755.152-1.208.454-1.511l8.918-11.336c.453-.604 1.209-.905 1.965-.905.906 0 1.51.3 1.965.906l30.229 39.597c.907 1.361.756 2.418-.453 3.476a2.55 2.55 0 0 1-1.512.455c-.755 0-1.51-.303-1.965-.908L24.88 67.861l-6.349 8.01v27.205c0 1.361-1.209 2.419-2.57 2.419-1.662 0-2.418-.757-2.418-2.419"/><path fill="#1A1A1A" d="M75.212 3.931 37.273 51.992l38.09 49.573c.454.453.604 1.058.454 1.663-.152.756-.454 1.361-1.06 1.814-.302.301-.755.453-1.51.453-.757 0-1.361-.302-1.965-.906L32.134 53.503c-.756-1.058-.756-1.964 0-3.022L71.433.908Q72.112 0 73.247 0c.755 0 1.208.152 1.662.455 1.36 1.058 1.36 2.267.303 3.476"/><path fill="#0DCEFF" d="M129.315 3.628c.151.605.151 1.21-.151 1.814-.453.605-.907 1.058-1.663 1.21-13.3 3.324-22.219 13.601-22.219 27.505 0 1.361-1.209 2.57-2.569 2.57-1.663 0-2.419-.906-2.419-2.57 0-16.775 10.732-28.11 25.998-32.343 1.662 0 2.57 0 3.023 1.814m-26.3 66.199c1.36 0 2.569 1.21 2.569 2.568 0 16.325 14.661 28.113 30.23 28.717q1.134.226 1.813.906.68.68.454 1.814c0 1.511-.756 2.267-2.418 2.267-18.743-1.209-35.067-14.358-35.067-33.704 0-1.359 1.058-2.568 2.419-2.568"/><path fill="#1A1A1A" d="M143.977 12.092c8.918 0 17.836 2.267 23.127 9.976 1.812 2.568 2.869 4.835 3.325 6.8.301 2.116.453 3.174.453 3.326 0 8.463-3.176 16.775-11.035 20.706 7.859 4.987 10.883 11.184 10.883 20.553 0 7.406-5.592 14.51-11.941 17.835-4.081 2.115-8.918 3.173-14.812 3.173h-.455c-14.963 0-29.171-5.288-29.171-22.066 0-1.359 1.21-2.568 2.57-2.568 1.512 0 2.418 1.058 2.418 2.568 0 14.207 13.15 17.079 24.486 17.079h.152c9.371 0 18.592-3.626 21.312-13.299q.453-2.493.453-2.722c0-2.115-.303-4.23-.756-6.346-1.964-6.199-6.197-11.186-13.15-11.639-1.058-.3-2.267-1.36-2.267-2.418 0-1.511.907-2.267 2.267-2.569.756-.151 1.512-.303 2.267-.604q1.134-.227 2.267-.908c6.954-2.72 9.524-9.522 9.524-16.624 0-2.722-1.361-5.442-3.023-7.557-3.629-5.139-9.976-7.71-18.894-7.71-10.883 0-24.94 4.082-24.94 17.08 0 1.663-.756 2.57-2.419 2.57-1.36 0-2.569-1.21-2.569-2.57 0-15.87 16.475-22.066 29.928-22.066"/><path fill="#0DCEFF" d="M136.268 55.77c3.022.756 5.592 1.512 7.859 2.418 4.081 2.116 7.104 4.233 9.825 8.01 1.058 1.815 2.116 3.93 3.175 6.5q.227.907 0 1.815-.454 1.131-1.362 1.358c-1.208 0-2.72 0-3.324-1.358-3.628-10.278-9.674-12.092-19.196-14.359-1.361-.152-1.966-1.058-1.966-2.419V49.12c0-1.359.605-2.267 1.814-2.418 2.57-.755 4.837-1.36 6.802-1.964 6.953-2.115 9.976-6.047 12.546-12.393.454-1.06 1.209-1.513 2.418-1.513 1.511.304 1.966.757 2.268 1.361.151.757.151 1.361 0 1.964-4.535 10.882-10.279 14.057-20.859 16.777zM132.64 2.118c.302-1.21 1.208-1.815 2.569-1.815 1.663.302 2.116.757 2.418 1.362.302.754.302 1.358.152 2.115v.152c-.454 1.207-1.361 1.812-2.57 1.812-2.419-.605-3.326-1.812-2.569-3.626m71.181 101.261V16.173c0-1.361 1.058-2.569 2.419-2.569h26.149c13.904 0 25.091 8.312 30.835 20.705C265.491 39.9 266.7 46.097 266.7 52.9c0 17.077-7.709 33.25-24.789 38.54-1.814 0-2.872-.605-3.174-1.663-.151-.756-.151-1.36.152-1.966.301-.604.754-1.057 1.511-1.209 15.114-4.081 21.311-19.345 21.311-33.702 0-14.662-5.592-26.602-19.347-32.495q-4.987-1.814-9.975-1.814h-23.58v84.788c0 1.359-1.21 2.569-2.569 2.569-1.361 0-2.419-1.21-2.419-2.569"/><path fill="#1A1A1A" d="M219.39 5.743c-1.361 0-2.571-1.057-2.571-2.416 0-1.361 1.21-2.57 2.571-2.57h16.323c17.384 0 32.799 11.788 39.451 27.507 3.173 7.558 4.836 16.17 4.836 25.694 0 28.262-14.661 51.84-44.287 51.84h-16.171c-1.362 0-2.571-1.06-2.571-2.419v-75.72c0-1.662.906-2.57 2.571-2.57 1.662 0 2.416.908 2.416 2.57v73.15h13.755c28.115 0 39.299-22.217 39.299-46.851 0-19.65-8.011-39.296-27.659-46.097-4.535-1.361-8.464-2.118-11.64-2.118z"/><path fill="#0DCEFF" d="M230.423 91.591c-.453-.605-.453-1.36-.15-2.117.15-.906.605-1.511 1.359-1.663.757-.151 1.361-.151 2.118-.151.754.303 1.207.756 1.511 1.36.301.757.301 1.362.151 2.116v.152c-.455 1.21-1.361 1.814-2.57 1.814-1.21-.304-1.964-.757-2.419-1.51"/></svg>